<?xml version="1.0" encoding="utf-8"?>
<!-- Generator: Adobe Illustrator 26.0.3, SVG Export Plug-In . SVG Version: 6.00 Build 0)  -->
<svg version="1.1" id="Camada_1" xmlns="http://www.w3.org/2000/svg"
	xmlns:xlink="http://www.w3.org/1999/xlink" x="0px" y="0px"
	viewBox="0 0 800 800" style="enable-background:new 0 0 800 800;" xml:space="preserve">
<style type="text/css">
	.st0{fill:#CEBEBE;}
	.st1{fill:#FEFEFE;}
	.st2{fill:url(#SVGID_1_);}
</style>
<path class="st0" d="M783.2,423c-0.5,2.3-1.3,4.2-2.3,5.9c-1.1,1.7-2.5,3.1-4.3,4.2c-1.8,1-4,1.6-6.6,1.6c-2.6,0-4.8-0.5-6.6-1.6
	c-1.8-1-3.3-2.5-4.4-4.2c-1.1-1.7-1.9-3.6-2.4-5.9c-0.5-2.3-0.8-4.6-0.7-6.9c0-2.4,0.2-4.8,0.7-7c0.5-2.3,1.3-4.3,2.3-6
	c1.1-1.8,2.5-3.1,4.3-4.3c1.8-1.1,4-1.7,6.6-1.7c2.6,0,4.7,0.6,6.5,1.7c1.8,1.1,3.3,2.6,4.4,4.3c1.1,1.8,1.9,3.8,2.4,6
	c0.5,2.3,0.7,4.6,0.7,6.9C783.9,418.4,783.7,420.7,783.2,423z M798.4,404.6c-1.1-3.8-2.7-7.1-4.8-10c-2.2-2.8-5-5.2-8.3-6.9
	c-3.3-1.7-7.3-2.6-11.9-2.6c-3.6,0-7,0.7-10,2.2c-3,1.4-5.5,3.8-7.5,6.9h-0.2v-7.5h-15.3v79h16.1v-27.8h0.2c1.9,2.8,4.5,5,7.5,6.5
	c3.1,1.5,6.4,2.2,10,2.2c4.3,0,8-0.9,11.3-2.5c3.1-1.6,5.9-3.9,8-6.7c2.2-2.8,3.8-6,4.8-9.6c1.1-3.6,1.6-7.4,1.6-11.3
	C800,412.3,799.5,408.4,798.4,404.6L798.4,404.6L798.4,404.6z M719.1,423c-0.5,2.3-1.3,4.2-2.3,5.9c-1.1,1.7-2.5,3.1-4.3,4.2
	c-1.8,1-4,1.6-6.6,1.6c-2.6,0-4.7-0.5-6.6-1.6c-1.8-1-3.3-2.5-4.4-4.2c-1.1-1.7-1.9-3.6-2.4-5.9c-0.5-2.3-0.8-4.6-0.7-6.9
	c0-2.4,0.2-4.8,0.7-7c0.5-2.3,1.3-4.3,2.3-6c1.1-1.8,2.5-3.1,4.3-4.3c1.8-1.1,4-1.7,6.6-1.7c2.6,0,4.7,0.6,6.5,1.7
	c1.8,1.1,3.3,2.6,4.4,4.3c1.1,1.8,1.9,3.8,2.5,6c0.5,2.3,0.7,4.6,0.7,6.9C719.8,418.4,719.6,420.7,719.1,423z M729.5,394.6
	c-2.2-2.8-5-5.2-8.3-6.9c-3.3-1.7-7.3-2.6-11.9-2.6c-3.6,0-7,0.7-10,2.2c-3,1.4-5.5,3.8-7.5,6.9h-0.2v-7.5h-15.3v79h16.1v-27.8h0.2
	c1.9,2.8,4.5,5,7.5,6.5c3.1,1.5,6.4,2.2,10,2.2c4.3,0,8-0.9,11.3-2.5c3.1-1.6,5.9-3.9,8-6.7c2.2-2.8,3.8-6,4.8-9.6
	c1.1-3.7,1.6-7.5,1.6-11.3c0-4.2-0.5-8.1-1.6-12C733.3,400.7,731.7,397.4,729.5,394.6L729.5,394.6L729.5,394.6z M623.7,413.9
	l10.5-29.7h0.2l10.2,29.7H623.7L623.7,413.9z M625.4,364.3l-30.6,80.9h17.9l6.3-18h30.3l6.1,18h18.5l-30.3-80.9H625.4L625.4,364.3z
	 M593.5,419.5c-1.1-1.8-2.5-3.4-4.2-4.7c-1.7-1.3-3.7-2.2-5.9-3c-2.3-0.7-4.5-1.4-6.8-1.9c-2.3-0.5-4.5-1-6.7-1.5s-4.2-1-5.8-1.5
	c-1.7-0.6-3.1-1.3-4.1-2.2c-1.1-0.9-1.6-2.1-1.6-3.5c0-1.2,0.3-2.2,0.9-2.9c0.6-0.7,1.4-1.3,2.2-1.7c0.9-0.4,1.8-0.6,2.9-0.7
	c1-0.1,2-0.2,3-0.2c2.8,0,5.4,0.6,7.5,1.7c2.1,1.1,3.3,3.2,3.5,6.3h15.3c-0.3-3.6-1.3-6.6-2.8-9c-1.5-2.4-3.5-4.3-5.8-5.7
	c-2.3-1.4-5-2.4-8-3.1c-3-0.6-6-0.9-9.2-0.9c-3.2,0-6.3,0.3-9.3,0.9c-3,0.6-5.8,1.5-8.1,3c-2.4,1.4-4.4,3.3-5.8,5.7
	c-1.5,2.4-2.2,5.5-2.2,9.3c0,2.6,0.5,4.7,1.6,6.5c1,1.8,2.4,3.2,4.2,4.4c1.8,1.1,3.7,2.1,5.9,2.8c2.2,0.7,4.5,1.4,6.8,1.9
	c5.8,1.2,10.2,2.4,13.4,3.6c3.2,1.2,4.8,3,4.8,5.4c0,1.4-0.3,2.6-1,3.6c-0.7,0.9-1.5,1.7-2.6,2.3c-1,0.6-2.2,1-3.4,1.3
	c-1.2,0.3-2.4,0.4-3.6,0.4c-1.6,0-3.1-0.2-4.6-0.6c-1.5-0.4-2.8-1-3.9-1.8c-1.1-0.8-2.1-1.8-2.8-3.1c-0.7-1.3-1.1-2.7-1.1-4.4h-15.3
	c0.2,3.9,1,7.2,2.7,9.8c1.6,2.6,3.7,4.7,6.2,6.3c2.5,1.6,5.4,2.7,8.7,3.4c3.2,0.7,6.6,1,10,1c3.3,0,6.6-0.3,9.8-1
	c3.2-0.6,6-1.8,8.5-3.4c2.5-1.6,4.5-3.7,6-6.3c1.5-2.6,2.3-5.8,2.3-9.7c0-2.7-0.5-5-1.6-6.8L593.5,419.5L593.5,419.5z M527,369.1
	h-16.1v17.6h-9.7v10.8h9.7v34.5c0,3,0.5,5.3,1.5,7.1c1,1.8,2.3,3.2,4,4.2c1.7,1,3.6,1.7,5.9,2c2.3,0.3,4.7,0.5,7.1,0.5
	c1.6,0,3.2-0.1,4.9-0.1c1.5-0.1,3-0.2,4.5-0.5v-12.5c-0.8,0.2-1.6,0.3-2.4,0.3c-0.9,0.1-1.7,0.1-2.6,0.1c-2.7,0-4.5-0.5-5.4-1.4
	c-0.9-0.9-1.4-2.7-1.4-5.4v-29h11.8v-10.8H527L527,369.1L527,369.1z M480.9,422.5c0,0.9-0.1,2.1-0.3,3.6c-0.2,1.6-0.7,3.1-1.5,4.4
	c-0.9,1.5-2.1,2.7-3.9,3.8c-1.7,1.1-4.2,1.6-7.3,1.6c-1.3,0-2.5-0.1-3.8-0.3c-1.2-0.2-2.3-0.6-3.2-1.2c-0.9-0.6-1.6-1.3-2.2-2.3
	c-0.5-1-0.8-2.2-0.8-3.6c0-1.5,0.3-2.7,0.8-3.8c0.5-1,1.3-1.8,2.1-2.5c0.9-0.6,1.9-1.1,3.1-1.5c1.2-0.4,2.3-0.7,3.6-0.9
	c1.3-0.2,2.6-0.4,3.9-0.6c1.3-0.2,2.5-0.3,3.7-0.6c1.2-0.2,2.3-0.5,3.3-0.9c1-0.3,1.9-0.8,2.6-1.4v6L480.9,422.5z M497,432.2v-30.5
	c0-3.5-0.8-6.4-2.4-8.5c-1.6-2.2-3.6-3.8-6.1-5c-2.5-1.2-5.2-2-8.3-2.4c-3-0.4-6-0.6-8.9-0.6c-3.3,0-6.5,0.3-9.7,1
	c-3.2,0.6-6.1,1.7-8.7,3.2c-2.5,1.5-4.7,3.5-6.3,6c-1.7,2.5-2.6,5.6-2.8,9.4h16.1c0.3-3.2,1.4-5.4,3.2-6.8c1.8-1.4,4.3-2.1,7.5-2.1
	c1.4,0,2.8,0.1,4,0.3c1.2,0.2,2.3,0.5,3.3,1.1c1,0.6,1.7,1.4,2.3,2.4c0.6,1,0.9,2.4,0.9,4.2c0.1,1.7-0.4,2.9-1.5,3.8
	c-1.1,0.9-2.5,1.5-4.3,2c-1.8,0.5-3.9,0.8-6.2,1c-2.3,0.2-4.7,0.5-7.1,0.9c-2.4,0.4-4.8,0.9-7.2,1.5s-4.5,1.6-6.3,2.9
	c-1.9,1.3-3.4,3-4.6,5.1c-1.2,2.2-1.8,4.9-1.8,8.2c0,3,0.5,5.6,1.5,7.8c1,2.1,2.4,4,4.2,5.4c1.9,1.5,4,2.5,6.3,3.2
	c2.4,0.7,5,1,7.8,1c3.6,0,7.2-0.5,10.7-1.6c3.4-1,6.6-3,9.1-5.5c0.1,1,0.2,1.9,0.4,2.9c0.2,0.9,0.5,1.9,0.7,2.8H499
	c-0.7-1.2-1.3-3-1.6-5.4c-0.3-2.5-0.5-5-0.5-7.6L497,432.2L497,432.2z M430.7,391.7c-1.6-2.1-3.8-3.7-6.5-4.8
	c-2.7-1.2-6.3-1.8-10.6-1.8c-3,0-6.1,0.8-9.3,2.3s-5.8,4-7.8,7.4h-0.3v-30.5h-16.1v80.9h16.1v-30.7c0-6,1-10.3,3-12.9
	c1.9-2.6,5.1-3.9,9.5-3.9c3.8,0,6.6,1.2,8,3.6c1.5,2.4,2.3,6,2.3,10.8v33.1h16.1v-36c0-3.6-0.3-7-1-9.9
	C433.5,396.3,432.3,393.8,430.7,391.7L430.7,391.7z M345.8,420.1h-0.2l-13.8-55.7h-16.6l-14,55h-0.2l-12.8-55h-17.8l21.4,80.9h18
	l13.4-55h0.2l13.7,55h17.7l9.7-35.9l12.1-45h-17.4L345.8,420.1L345.8,420.1z"/>
<path class="st1" d="M119.6,493.9c-19.7,0-38-5.9-53.3-16l-37.3,11.9l12.1-36c-11.6-16-18.5-35.6-18.5-56.8
	c0-53.5,43.5-96.9,96.9-96.9s96.9,43.5,96.9,96.9C216.4,450.4,172.9,493.9,119.6,493.9L119.6,493.9L119.6,493.9z M119.6,281.7
	C55.9,281.7,4.3,333.3,4.3,397c0,21.8,6,42.2,16.5,59.5L0,518.3l63.8-20.5c17.1,9.4,36.2,14.4,55.7,14.4
	c63.7,0,115.3-51.6,115.3-115.3C234.8,333.3,183.2,281.7,119.6,281.7z"/>
<linearGradient id="SVGID_1_" gradientUnits="userSpaceOnUse" x1="396.9588" y1="-480857.0938" x2="396.9588" y2="-484259.0938" gradientTransform="matrix(2.090683e-03 0 0 -2.090683e-03 -1230.0712 -1343.0231)">
	<stop  offset="0" style="stop-color:#6EBF61"/>
	<stop  offset="0.231" style="stop-color:#50A557"/>
	<stop  offset="0.522" style="stop-color:#2A904F"/>
	<stop  offset="0.812" style="stop-color:#50A557"/>
	<stop  offset="1" style="stop-color:#6EBF63"/>
</linearGradient>
<path class="st2" d="M119.6,300c-53.5,0-96.9,43.5-96.9,96.9c0,21.2,6.8,40.9,18.5,56.8l-12.1,36l37.3-11.9
	c15.3,10.1,33.6,16,53.3,16c53.5,0,96.9-43.5,96.9-96.9C216.5,343.5,173.1,300,119.6,300L119.6,300L119.6,300z"/>
<path class="st1" d="M92.5,349.3c-1.9-4.5-3.3-4.7-6.2-4.8c-1.1-0.1-2.2-0.1-3.2-0.1c-3.7,0-7.6,1.1-9.9,3.5
	c-2.8,2.9-9.9,9.7-9.9,23.6c0,13.9,10.1,27.4,11.5,29.2c1.4,1.9,19.8,30.8,48.3,42.6c22.3,9.2,28.9,8.4,34,7.3
	c7.4-1.6,16.7-7.1,19-13.7c2.3-6.6,2.3-12.3,1.7-13.4c-0.7-1.2-2.6-1.9-5.4-3.3c-2.8-1.4-16.7-8.3-19.3-9.2c-2.6-1-5-0.6-7,2.1
	c-2.7,3.8-5.4,7.7-7.6,10c-1.7,1.8-4.5,2.1-6.8,1.1c-3.1-1.3-11.9-4.4-22.7-14c-8.4-7.5-14.1-16.8-15.7-19.5c-1.7-2.8-0.2-4.5,1.1-6
	c1.4-1.8,2.8-3,4.2-4.7c1.4-1.7,2.2-2.5,3.1-4.4c1-1.9,0.3-3.8-0.4-5.2C100.5,368.8,94.8,354.9,92.5,349.3L92.5,349.3z"/>
</svg>