<?xml version="1.0" encoding="utf-8"?>
<!-- Generator: Adobe Illustrator 26.0.3, SVG Export Plug-In . SVG Version: 6.00 Build 0)  -->
<svg version="1.1" xmlns="http://www.w3.org/2000/svg" xmlns:xlink="http://www.w3.org/1999/xlink" x="0px" y="0px"
	 viewBox="0 0 1920 1080" style="enable-background:new 0 0 1920 1080;" xml:space="preserve">
<style type="text/css">
	.st0{display:none;}
	.st1{opacity:8.000000e-02;}
	
		.st2{display:none;clip-path:url(#SVGID_00000080165432544467476520000006065874339133315717_);fill:url(#SVGID_00000101064139440666879130000004147661453616360350_);}
	.st3{opacity:0.2;clip-path:url(#SVGID_00000080165432544467476520000006065874339133315717_);fill:#969FBC;}
	
		.st4{clip-path:url(#SVGID_00000080165432544467476520000006065874339133315717_);fill:url(#SVGID_00000173134924433637731790000018175712123291346828_);}
	
		.st5{clip-path:url(#SVGID_00000080165432544467476520000006065874339133315717_);fill:url(#SVGID_00000072974401930561718440000002682581864700596874_);}
	.st6{opacity:0.2;clip-path:url(#SVGID_00000080165432544467476520000006065874339133315717_);fill:#E0F25A;}
	.st7{clip-path:url(#SVGID_00000080165432544467476520000006065874339133315717_);}
	.st8{fill:none;stroke:#B800E9;stroke-width:1.8716;stroke-miterlimit:10;}
	.st9{fill:none;stroke:#940091;stroke-width:2.0311;stroke-miterlimit:10;}
	.st10{fill:none;stroke:#095B72;stroke-miterlimit:10;}
	
		.st11{clip-path:url(#SVGID_00000080165432544467476520000006065874339133315717_);fill:none;stroke:#E213BB;stroke-width:9;stroke-miterlimit:10;}
	
		.st12{clip-path:url(#SVGID_00000080165432544467476520000006065874339133315717_);fill:none;stroke:#940091;stroke-linecap:round;stroke-miterlimit:10;}
	.st13{fill:none;stroke:#160FA8;stroke-linecap:round;stroke-miterlimit:10;}
	.st14{fill:none;stroke:#160FA8;stroke-linecap:round;stroke-miterlimit:10;stroke-dasharray:9.3743,9.3743;}
	
		.st15{clip-path:url(#SVGID_00000080165432544467476520000006065874339133315717_);fill:none;stroke:#095B72;stroke-linecap:round;stroke-miterlimit:10;}
	.st16{clip-path:url(#SVGID_00000080165432544467476520000006065874339133315717_);fill:none;stroke:#EDFF00;stroke-miterlimit:10;}
	.st17{fill:#FFFFFF;}
	.st18{fill:#DD1788;}
	.st19{fill:#CC0959;}
	.st20{fill:#E03F0E;}
	.st21{fill:#EFDE41;}
	.st22{clip-path:url(#SVGID_00000019670062352052919730000002627873612363355808_);}
	.st23{fill:#940091;}
	
		.st24{clip-path:url(#SVGID_00000080165432544467476520000006065874339133315717_);fill:none;stroke:#940091;stroke-width:3.6;stroke-linecap:round;stroke-miterlimit:10;}
	
		.st25{clip-path:url(#SVGID_00000080165432544467476520000006065874339133315717_);fill:none;stroke:#EF41D7;stroke-width:3;stroke-linecap:round;stroke-miterlimit:10;}
	.st26{clip-path:url(#SVGID_00000080165432544467476520000006065874339133315717_);fill:#0FB7EA;}
	.st27{fill:none;stroke:#FF9203;stroke-width:3;stroke-miterlimit:10;}
	.st28{fill:#1E0FB2;}
	.st29{fill:#F90847;}
	
		.st30{clip-path:url(#SVGID_00000080165432544467476520000006065874339133315717_);fill:none;stroke:#E5D728;stroke-width:1.5;stroke-linecap:round;stroke-miterlimit:10;}
	.st31{fill:none;stroke:#9E057E;stroke-width:1.123;stroke-linecap:round;stroke-miterlimit:10;}
	.st32{fill:none;stroke:#9E057E;stroke-width:1.123;stroke-linecap:round;stroke-miterlimit:10;stroke-dasharray:10.3391,10.3391;}
	.st33{fill:none;stroke:#FFFF00;stroke-width:1.4976;stroke-miterlimit:10;}
	.st34{fill:none;stroke:#E51A1A;stroke-width:3;stroke-miterlimit:10;}
	.st35{fill:none;stroke:#095B72;stroke-width:2.5665;stroke-miterlimit:10;}
	.st36{fill:none;stroke:#F97306;stroke-width:2.0323;stroke-miterlimit:10;}
</style>
<g id="BACKGROUND" class="st0">
</g>
<g id="OBJECTS">
	<g id="New_Symbol_3" class="st0">
	</g>
	<g class="st1">
		<g>
			<defs>
				<path id="SVGID_1_" d="M1920,0v1080H0V0H1920z"/>
			</defs>
			<clipPath id="SVGID_00000171000168243841549100000008360320572166288279_">
				<use xlink:href="#SVGID_1_"  style="overflow:visible;"/>
			</clipPath>
			
				<linearGradient id="SVGID_00000136404422845157072350000012219600713011070384_" gradientUnits="userSpaceOnUse" x1="66.397" y1="-38.3278" x2="1878.8928" y2="1134.6951">
				<stop  offset="0" style="stop-color:#00B988"/>
				<stop  offset="1" style="stop-color:#071452"/>
			</linearGradient>
			
				<rect style="display:none;clip-path:url(#SVGID_00000171000168243841549100000008360320572166288279_);fill:url(#SVGID_00000136404422845157072350000012219600713011070384_);" width="1920" height="1080"/>
			<polygon style="opacity:0.2;clip-path:url(#SVGID_00000171000168243841549100000008360320572166288279_);fill:#969FBC;" points="
				-74.8,465.7 -593.9,27.7 202.2,-644.1 721.3,-206.1 			"/>
			
				<linearGradient id="SVGID_00000162340445039200350150000007654486981376891315_" gradientUnits="userSpaceOnUse" x1="434.5255" y1="-1.2087" x2="997.069" y2="561.3348" gradientTransform="matrix(1.9803 -0.5496 -0.5496 1.9803 -549.7746 -52.9258)">
				<stop  offset="0" style="stop-color:#940091"/>
				<stop  offset="1" style="stop-color:#FFAB15;stop-opacity:0"/>
			</linearGradient>
			
				<polygon style="clip-path:url(#SVGID_00000171000168243841549100000008360320572166288279_);fill:url(#SVGID_00000162340445039200350150000007654486981376891315_);" points="
				936.1,613.9 108.3,-84.6 485.8,-403.1 1313.6,295.4 			"/>
			
				<linearGradient id="SVGID_00000042737450380043728230000013615318555962785926_" gradientUnits="userSpaceOnUse" x1="233.9817" y1="-56.8653" x2="796.5256" y2="505.6786" gradientTransform="matrix(1.9803 -0.5496 -0.5496 1.9803 -549.7749 -52.9261)">
				<stop  offset="0" style="stop-color:#940091"/>
				<stop  offset="1" style="stop-color:#FF892A;stop-opacity:0"/>
			</linearGradient>
			
				<polygon style="clip-path:url(#SVGID_00000171000168243841549100000008360320572166288279_);fill:url(#SVGID_00000042737450380043728230000013615318555962785926_);" points="
				569.5,613.9 -258.3,-84.6 119.2,-403.1 947,295.4 			"/>
			
				<ellipse style="opacity:0.2;clip-path:url(#SVGID_00000171000168243841549100000008360320572166288279_);fill:#E0F25A;" cx="0" cy="1078.5" rx="676.2" ry="570.6"/>
			<g style="clip-path:url(#SVGID_00000171000168243841549100000008360320572166288279_);">
				<line class="st8" x1="384.5" y1="1105.7" x2="522.1" y2="1105.7"/>
				<line class="st8" x1="418.9" y1="1076.7" x2="556.5" y2="1076.7"/>
				<line class="st8" x1="453.3" y1="1047.7" x2="590.9" y2="1047.7"/>
				<line class="st8" x1="487.7" y1="1018.6" x2="625.3" y2="1018.6"/>
				<line class="st8" x1="522.1" y1="989.6" x2="659.7" y2="989.6"/>
				<line class="st8" x1="556.5" y1="960.6" x2="694.1" y2="960.6"/>
				<line class="st8" x1="590.9" y1="931.6" x2="728.5" y2="931.6"/>
				<line class="st8" x1="625.3" y1="902.5" x2="762.9" y2="902.5"/>
				<line class="st8" x1="659.7" y1="873.5" x2="797.3" y2="873.5"/>
				<line class="st8" x1="694.1" y1="844.5" x2="831.7" y2="844.5"/>
				<line class="st8" x1="728.5" y1="815.5" x2="866.1" y2="815.5"/>
				<line class="st8" x1="762.9" y1="786.4" x2="900.5" y2="786.4"/>
				<line class="st8" x1="797.3" y1="757.4" x2="934.9" y2="757.4"/>
			</g>
			<g style="clip-path:url(#SVGID_00000171000168243841549100000008360320572166288279_);">
				<line class="st9" x1="2055.9" y1="44.3" x2="2055.9" y2="170.3"/>
				<line class="st9" x1="2018.6" y1="75.8" x2="2018.6" y2="201.8"/>
				<line class="st9" x1="1981.2" y1="107.3" x2="1981.2" y2="233.3"/>
				<line class="st9" x1="1943.9" y1="138.8" x2="1943.9" y2="264.8"/>
				<line class="st9" x1="1906.5" y1="170.3" x2="1906.5" y2="296.3"/>
				<line class="st9" x1="1869.2" y1="201.8" x2="1869.2" y2="327.8"/>
				<line class="st9" x1="1831.9" y1="233.3" x2="1831.9" y2="359.3"/>
				<line class="st9" x1="1794.5" y1="264.8" x2="1794.5" y2="390.8"/>
				<line class="st9" x1="1757.2" y1="296.3" x2="1757.2" y2="422.3"/>
				<line class="st9" x1="1719.9" y1="327.8" x2="1719.9" y2="453.8"/>
				<line class="st9" x1="1682.5" y1="359.3" x2="1682.5" y2="485.3"/>
				<line class="st9" x1="1645.2" y1="390.8" x2="1645.2" y2="516.8"/>
				<line class="st9" x1="1607.9" y1="422.3" x2="1607.9" y2="548.3"/>
			</g>
			<g style="clip-path:url(#SVGID_00000171000168243841549100000008360320572166288279_);">
				<line class="st10" x1="565.1" y1="149.8" x2="659.7" y2="149.8"/>
				<line class="st10" x1="588.8" y1="129.9" x2="683.4" y2="129.9"/>
				<line class="st10" x1="612.4" y1="109.9" x2="707" y2="109.9"/>
				<line class="st10" x1="636.1" y1="90" x2="730.7" y2="90"/>
				<line class="st10" x1="659.7" y1="70" x2="754.3" y2="70"/>
				<line class="st10" x1="683.4" y1="50.1" x2="778" y2="50.1"/>
				<line class="st10" x1="707" y1="30.1" x2="801.6" y2="30.1"/>
				<line class="st10" x1="730.7" y1="10.2" x2="825.3" y2="10.2"/>
				<line class="st10" x1="754.3" y1="-9.8" x2="848.9" y2="-9.8"/>
				<line class="st10" x1="778" y1="-29.8" x2="872.6" y2="-29.8"/>
				<line class="st10" x1="801.6" y1="-49.7" x2="896.2" y2="-49.7"/>
				<line class="st10" x1="825.3" y1="-69.7" x2="919.9" y2="-69.7"/>
				<line class="st10" x1="848.9" y1="-89.6" x2="943.5" y2="-89.6"/>
			</g>
			
				<ellipse style="clip-path:url(#SVGID_00000171000168243841549100000008360320572166288279_);fill:none;stroke:#E213BB;stroke-width:9;stroke-miterlimit:10;" cx="104.4" cy="332.3" rx="151" ry="127.4"/>
			
				<polygon style="clip-path:url(#SVGID_00000171000168243841549100000008360320572166288279_);fill:none;stroke:#940091;stroke-linecap:round;stroke-miterlimit:10;" points="
				904.6,250 792.9,344.2 681.2,250 792.9,155.8 			"/>
			<g style="clip-path:url(#SVGID_00000171000168243841549100000008360320572166288279_);">
				<g>
					<polyline class="st13" points="547,645.6 550.5,648.6 547,651.6 					"/>
					<line class="st14" x1="539.8" y1="657.6" x2="213.8" y2="932.7"/>
					<polyline class="st13" points="210.2,935.7 206.7,938.7 203.2,935.7 					"/>
					<line class="st14" x1="196.1" y1="929.6" x2="-129.9" y2="654.6"/>
					<polyline class="st13" points="-133.5,651.6 -137,648.6 -133.5,645.6 					"/>
					<line class="st14" x1="-126.4" y1="639.6" x2="199.6" y2="364.5"/>
					<polyline class="st13" points="203.2,361.5 206.7,358.6 210.2,361.5 					"/>
					<line class="st14" x1="217.4" y1="367.6" x2="543.4" y2="642.6"/>
				</g>
			</g>
			
				<polygon style="clip-path:url(#SVGID_00000171000168243841549100000008360320572166288279_);fill:none;stroke:#095B72;stroke-linecap:round;stroke-miterlimit:10;" points="
				1139.3,1057.5 913.4,1248.2 687.4,1057.5 913.4,866.9 			"/>
			
				<polygon style="clip-path:url(#SVGID_00000171000168243841549100000008360320572166288279_);fill:none;stroke:#EDFF00;stroke-miterlimit:10;" points="
				186.9,584.9 140.1,624.4 93.3,584.9 140.1,545.5 			"/>
			<g style="clip-path:url(#SVGID_00000171000168243841549100000008360320572166288279_);">
				<polygon class="st17" points="490.8,177.1 471.9,193 453,177.1 471.9,161.1 				"/>
			</g>
			<g style="clip-path:url(#SVGID_00000171000168243841549100000008360320572166288279_);">
				<polygon class="st18" points="1231,654.2 1218.5,664.8 1205.9,654.2 1218.5,643.6 				"/>
			</g>
			<g style="clip-path:url(#SVGID_00000171000168243841549100000008360320572166288279_);">
				<polygon class="st19" points="1642.2,114.6 1623.4,130.5 1604.6,114.6 1623.4,98.7 				"/>
			</g>
			<g style="clip-path:url(#SVGID_00000171000168243841549100000008360320572166288279_);">
				<polygon class="st20" points="1782.7,833.6 1768.9,845.3 1755.1,833.6 1768.9,822 				"/>
			</g>
			<g style="clip-path:url(#SVGID_00000171000168243841549100000008360320572166288279_);">
				<polygon class="st21" points="130.5,981.1 111.8,996.9 93,981.1 111.8,965.2 				"/>
			</g>
			<g style="clip-path:url(#SVGID_00000171000168243841549100000008360320572166288279_);">
				<defs>
					<polygon id="SVGID_00000026128917462518182590000016598378635726431931_" points="1368.6,29.5 1555.8,187.5 1368.6,345.4 
						1181.4,187.5 					"/>
				</defs>
				<clipPath id="SVGID_00000183951332599714292010000015502735736147956610_">
					<use xlink:href="#SVGID_00000026128917462518182590000016598378635726431931_"  style="overflow:visible;"/>
				</clipPath>
				<g style="clip-path:url(#SVGID_00000183951332599714292010000015502735736147956610_);">
					<rect x="1183.6" y="3.7" class="st23" width="3.1" height="367.5"/>
					<rect x="1202.9" y="3.7" class="st23" width="3.1" height="367.5"/>
					<rect x="1222.2" y="3.7" class="st23" width="3.1" height="367.5"/>
					<rect x="1241.5" y="3.7" class="st23" width="3.1" height="367.5"/>
					<rect x="1260.8" y="3.7" class="st23" width="3.1" height="367.5"/>
					<rect x="1280.1" y="3.7" class="st23" width="3.1" height="367.5"/>
					<rect x="1299.4" y="3.7" class="st23" width="3.1" height="367.5"/>
					<rect x="1318.7" y="3.7" class="st23" width="3.1" height="367.5"/>
					<rect x="1338.1" y="3.7" class="st23" width="3.1" height="367.5"/>
					<rect x="1357.4" y="3.7" class="st23" width="3.1" height="367.5"/>
					<rect x="1376.7" y="3.7" class="st23" width="3.1" height="367.5"/>
					<rect x="1396" y="3.7" class="st23" width="3.1" height="367.5"/>
					<rect x="1415.3" y="3.7" class="st23" width="3.1" height="367.5"/>
					<rect x="1434.6" y="3.7" class="st23" width="3.1" height="367.5"/>
					<rect x="1453.9" y="3.7" class="st23" width="3.1" height="367.5"/>
					<rect x="1473.2" y="3.7" class="st23" width="3.1" height="367.5"/>
					<rect x="1492.5" y="3.7" class="st23" width="3.1" height="367.5"/>
					<rect x="1511.9" y="3.7" class="st23" width="3.1" height="367.5"/>
					<rect x="1531.2" y="3.7" class="st23" width="3.1" height="367.5"/>
					<rect x="1550.5" y="3.7" class="st23" width="3.1" height="367.5"/>
				</g>
			</g>
			
				<path style="clip-path:url(#SVGID_00000171000168243841549100000008360320572166288279_);fill:none;stroke:#940091;stroke-width:3.6;stroke-linecap:round;stroke-miterlimit:10;" d="
				M1607.9,304.5c-118.3,0-214.3,80.9-214.3,180.8S1489.5,666,1607.9,666c118.3,0,214.3-80.9,214.3-180.8"/>
			
				<path style="clip-path:url(#SVGID_00000171000168243841549100000008360320572166288279_);fill:none;stroke:#EF41D7;stroke-width:3;stroke-linecap:round;stroke-miterlimit:10;" d="
				M913.4,512c0-75.5-72.5-136.6-161.9-136.6c-89.4,0-161.9,61.2-161.9,136.6c0,75.5,72.5,136.6,161.9,136.6"/>
			
				<ellipse style="clip-path:url(#SVGID_00000171000168243841549100000008360320572166288279_);fill:#0FB7EA;" cx="238.1" cy="743.7" rx="7.2" ry="6.1"/>
			<g style="clip-path:url(#SVGID_00000171000168243841549100000008360320572166288279_);">
				<path class="st27" d="M464.5,356.6c0,13.4-12.9,24.3-28.8,24.3c-15.9,0-28.8-10.9-28.8-24.3c0-13.4,12.9-24.3,28.8-24.3
					C451.6,332.3,464.5,343.1,464.5,356.6z"/>
			</g>
			<g style="clip-path:url(#SVGID_00000171000168243841549100000008360320572166288279_);">
				<g>
					<path d="M1384.5,684.9c3.3,2.8,8.6,2.8,11.8,0c3.3-2.8,3.3-7.2,0-10c-3.3-2.8-8.6-2.8-11.8,0
						C1381.2,677.7,1381.2,682.2,1384.5,684.9z"/>
					<path d="M1339.2,723.1c3.3,2.8,8.6,2.8,11.8,0c3.3-2.8,3.3-7.2,0-10c-3.3-2.8-8.6-2.8-11.8,0
						C1335.9,715.9,1335.9,720.4,1339.2,723.1z"/>
					<path d="M1293.9,761.3c3.3,2.7,8.6,2.7,11.8,0c3.3-2.8,3.3-7.2,0-10c-3.3-2.8-8.6-2.8-11.8,0
						C1290.6,754.1,1290.6,758.6,1293.9,761.3z"/>
					<path d="M1248.6,799.6c3.3,2.8,8.6,2.8,11.8,0c3.3-2.8,3.3-7.2,0-10c-3.3-2.8-8.5-2.8-11.8,0
						C1245.3,792.3,1245.3,796.8,1248.6,799.6z"/>
					<path d="M1203.3,837.8c3.3,2.8,8.6,2.8,11.8,0c3.3-2.8,3.3-7.2,0-10c-3.3-2.8-8.6-2.8-11.8,0C1200,830.6,1200,835,1203.3,837.8
						z"/>
					<path d="M1158,876c3.3,2.8,8.6,2.8,11.8,0c3.3-2.8,3.3-7.2,0-10c-3.3-2.8-8.6-2.8-11.8,0C1154.7,868.8,1154.7,873.2,1158,876z"
						/>
					<path d="M1112.7,914.2c3.3,2.8,8.6,2.8,11.8,0c3.3-2.8,3.3-7.2,0-10c-3.3-2.8-8.6-2.8-11.8,0
						C1109.5,907,1109.5,911.4,1112.7,914.2z"/>
					<path d="M1067.4,952.4c3.3,2.7,8.6,2.8,11.8,0c3.3-2.8,3.3-7.2,0-10c-3.3-2.8-8.6-2.8-11.8,0
						C1064.2,945.2,1064.2,949.7,1067.4,952.4z"/>
					<path d="M1022.1,990.6c3.3,2.7,8.6,2.7,11.8,0c3.3-2.8,3.3-7.2,0-10c-3.3-2.8-8.6-2.8-11.8,0
						C1018.9,983.4,1018.9,987.9,1022.1,990.6z"/>
					<path d="M976.8,1028.8c3.3,2.8,8.6,2.8,11.8,0c3.3-2.7,3.3-7.2,0-10c-3.3-2.7-8.6-2.7-11.8,0
						C973.6,1021.6,973.6,1026.1,976.8,1028.8z"/>
					<path d="M931.5,1067.1c3.3,2.8,8.6,2.8,11.8,0c3.3-2.8,3.3-7.2,0-10c-3.3-2.7-8.6-2.8-11.8,0
						C928.3,1059.8,928.3,1064.3,931.5,1067.1z"/>
				</g>
				<g>
					<path d="M1429.8,723.1c3.3,2.8,8.6,2.8,11.8,0c3.3-2.8,3.3-7.2,0-10c-3.3-2.8-8.6-2.8-11.8,0
						C1426.5,715.9,1426.5,720.4,1429.8,723.1z"/>
					<path d="M1384.5,761.3c3.3,2.7,8.6,2.7,11.8,0c3.3-2.8,3.3-7.2,0-10c-3.3-2.8-8.6-2.8-11.8,0
						C1381.2,754.1,1381.2,758.6,1384.5,761.3z"/>
					<path d="M1339.2,799.6c3.3,2.8,8.6,2.8,11.8,0c3.3-2.8,3.3-7.2,0-10c-3.3-2.8-8.6-2.8-11.8,0
						C1335.9,792.3,1335.9,796.8,1339.2,799.6z"/>
					<path d="M1293.9,837.8c3.3,2.8,8.6,2.8,11.8,0c3.3-2.8,3.3-7.2,0-10c-3.3-2.8-8.6-2.8-11.8,0
						C1290.6,830.6,1290.6,835,1293.9,837.8z"/>
					<path d="M1248.6,876c3.3,2.8,8.5,2.8,11.8,0c3.3-2.7,3.3-7.2,0-10c-3.3-2.8-8.6-2.8-11.8,0
						C1245.3,868.8,1245.3,873.2,1248.6,876z"/>
					<path d="M1203.3,914.2c3.3,2.7,8.6,2.8,11.8,0c3.3-2.8,3.3-7.2,0-10c-3.3-2.8-8.6-2.8-11.8,0C1200,907,1200,911.4,1203.3,914.2
						z"/>
					<path d="M1158,952.4c3.3,2.7,8.6,2.8,11.8,0c3.3-2.8,3.3-7.2,0-10c-3.3-2.8-8.6-2.8-11.8,0
						C1154.7,945.2,1154.7,949.7,1158,952.4z"/>
					<path d="M1112.7,990.6c3.3,2.7,8.6,2.8,11.8,0c3.3-2.8,3.3-7.2,0-10c-3.3-2.8-8.6-2.8-11.8,0
						C1109.5,983.4,1109.5,987.9,1112.7,990.6z"/>
					<path d="M1067.4,1028.8c3.3,2.8,8.6,2.8,11.8,0c3.3-2.8,3.3-7.2,0-10c-3.3-2.8-8.6-2.7-11.8,0
						C1064.2,1021.6,1064.2,1026.1,1067.4,1028.8z"/>
					<path d="M1022.1,1067.1c3.3,2.8,8.6,2.8,11.8,0c3.3-2.8,3.3-7.2,0-10c-3.3-2.8-8.6-2.8-11.8,0
						C1018.9,1059.8,1018.9,1064.3,1022.1,1067.1z"/>
					<path d="M976.8,1105.3c3.3,2.7,8.6,2.7,11.8,0c3.3-2.8,3.3-7.2,0-10c-3.3-2.8-8.6-2.8-11.8,0
						C973.6,1098.1,973.6,1102.5,976.8,1105.3z"/>
				</g>
				<g>
					<path d="M1475,761.3c3.3,2.8,8.6,2.8,11.8,0c3.3-2.8,3.3-7.2,0-10c-3.3-2.8-8.6-2.8-11.8,0
						C1471.8,754.1,1471.8,758.6,1475,761.3z"/>
					<path d="M1429.7,799.6c3.3,2.8,8.6,2.8,11.8,0c3.3-2.8,3.3-7.2,0-10c-3.3-2.8-8.6-2.8-11.8,0
						C1426.5,792.3,1426.5,796.8,1429.7,799.6z"/>
					<path d="M1384.5,837.8c3.3,2.8,8.6,2.8,11.8,0c3.3-2.7,3.3-7.2,0-10c-3.3-2.7-8.6-2.8-11.8,0
						C1381.2,830.6,1381.2,835,1384.5,837.8z"/>
					<path d="M1339.2,876c3.3,2.8,8.6,2.8,11.8,0c3.3-2.8,3.3-7.2,0-10c-3.3-2.7-8.6-2.8-11.8,0
						C1335.9,868.8,1335.9,873.2,1339.2,876z"/>
					<path d="M1293.9,914.2c3.3,2.8,8.6,2.8,11.8,0c3.3-2.8,3.3-7.2,0-10c-3.3-2.8-8.6-2.8-11.8,0
						C1290.6,907,1290.6,911.4,1293.9,914.2z"/>
					<path d="M1248.6,952.4c3.3,2.8,8.6,2.8,11.8,0c3.3-2.8,3.3-7.2,0-10c-3.3-2.8-8.5-2.8-11.8,0
						C1245.3,945.2,1245.3,949.7,1248.6,952.4z"/>
					<path d="M1203.3,990.6c3.3,2.8,8.6,2.8,11.8,0c3.3-2.8,3.3-7.2,0-10c-3.3-2.8-8.5-2.8-11.8,0
						C1200,983.4,1200,987.9,1203.3,990.6z"/>
					<path d="M1158,1028.8c3.3,2.8,8.6,2.8,11.8,0c3.3-2.8,3.3-7.2,0-10c-3.3-2.7-8.6-2.8-11.8,0
						C1154.7,1021.6,1154.7,1026.1,1158,1028.8z"/>
					<path d="M1112.7,1067.1c3.3,2.8,8.6,2.8,11.8,0c3.3-2.8,3.3-7.2,0-10c-3.3-2.7-8.6-2.8-11.8,0
						C1109.5,1059.8,1109.5,1064.3,1112.7,1067.1z"/>
					<path d="M1067.4,1105.3c3.3,2.8,8.6,2.8,11.8,0c3.3-2.8,3.3-7.2,0-10c-3.3-2.8-8.6-2.8-11.8,0
						C1064.2,1098.1,1064.2,1102.5,1067.4,1105.3z"/>
					<path d="M1022.1,1143.5c3.3,2.8,8.6,2.8,11.8,0c3.3-2.8,3.3-7.2,0-10c-3.3-2.8-8.6-2.8-11.8,0
						C1018.9,1136.3,1018.9,1140.7,1022.1,1143.5z"/>
				</g>
				<g>
					<path d="M1520.3,799.6c3.3,2.8,8.6,2.8,11.8,0c3.3-2.8,3.3-7.2,0-10c-3.3-2.8-8.6-2.8-11.8,0
						C1517.1,792.3,1517.1,796.8,1520.3,799.6z"/>
					<path d="M1475,837.8c3.3,2.8,8.6,2.8,11.8,0c3.3-2.7,3.3-7.2,0-10c-3.3-2.8-8.6-2.8-11.8,0C1471.8,830.6,1471.8,835,1475,837.8
						z"/>
					<path d="M1429.7,876c3.3,2.8,8.6,2.8,11.8,0c3.3-2.7,3.3-7.2,0-10c-3.3-2.8-8.6-2.8-11.8,0
						C1426.5,868.8,1426.5,873.2,1429.7,876z"/>
					<path d="M1384.5,914.2c3.3,2.8,8.6,2.8,11.8,0c3.3-2.8,3.3-7.2,0-10c-3.3-2.8-8.6-2.8-11.8,0
						C1381.2,907,1381.2,911.4,1384.5,914.2z"/>
					<path d="M1339.2,952.4c3.3,2.7,8.5,2.8,11.8,0c3.3-2.8,3.3-7.2,0-10c-3.3-2.8-8.6-2.8-11.8,0
						C1335.9,945.2,1335.9,949.7,1339.2,952.4z"/>
					<path d="M1293.9,990.6c3.3,2.7,8.6,2.7,11.8,0c3.3-2.8,3.3-7.2,0-10c-3.3-2.8-8.6-2.8-11.8,0
						C1290.6,983.4,1290.6,987.9,1293.9,990.6z"/>
					<path d="M1248.6,1028.8c3.3,2.8,8.6,2.8,11.8,0c3.3-2.8,3.3-7.2,0-10c-3.3-2.8-8.5-2.8-11.8,0
						C1245.3,1021.6,1245.3,1026.1,1248.6,1028.8z"/>
					<path d="M1203.3,1067.1c3.3,2.8,8.6,2.8,11.8,0c3.3-2.8,3.3-7.2,0-10c-3.3-2.8-8.6-2.7-11.8,0
						C1200,1059.8,1200,1064.3,1203.3,1067.1z"/>
					<path d="M1158,1105.3c3.3,2.7,8.6,2.7,11.8,0c3.3-2.8,3.3-7.2,0-10c-3.3-2.8-8.6-2.8-11.8,0
						C1154.7,1098.1,1154.7,1102.5,1158,1105.3z"/>
					<path d="M1112.7,1143.5c3.3,2.8,8.6,2.8,11.8,0c3.3-2.7,3.3-7.2,0-10c-3.3-2.8-8.6-2.8-11.8,0
						C1109.5,1136.3,1109.4,1140.7,1112.7,1143.5z"/>
					<ellipse cx="1073.3" cy="1176.7" rx="8.4" ry="7"/>
				</g>
				<g>
					<path d="M1565.6,837.8c3.3,2.8,8.6,2.8,11.8,0c3.3-2.7,3.3-7.2,0-10c-3.3-2.8-8.6-2.8-11.8,0
						C1562.4,830.6,1562.4,835,1565.6,837.8z"/>
					<path d="M1520.3,876c3.3,2.8,8.6,2.8,11.8,0c3.3-2.7,3.3-7.2,0-10c-3.3-2.8-8.6-2.8-11.8,0
						C1517.1,868.8,1517.1,873.2,1520.3,876z"/>
					<path d="M1475,914.2c3.3,2.8,8.6,2.7,11.8,0c3.3-2.8,3.3-7.2,0-10c-3.3-2.8-8.6-2.8-11.8,0C1471.8,907,1471.8,911.5,1475,914.2
						z"/>
					<path d="M1429.7,952.4c3.3,2.8,8.6,2.8,11.8,0c3.3-2.8,3.3-7.2,0-10c-3.3-2.8-8.6-2.8-11.8,0
						C1426.5,945.2,1426.5,949.7,1429.7,952.4z"/>
					<path d="M1384.5,990.6c3.3,2.8,8.6,2.8,11.8,0c3.3-2.8,3.3-7.2,0-10c-3.3-2.8-8.6-2.8-11.8,0
						C1381.2,983.4,1381.2,987.9,1384.5,990.6z"/>
					<path d="M1339.2,1028.8c3.3,2.8,8.6,2.8,11.8,0c3.3-2.8,3.3-7.2,0-10c-3.3-2.7-8.6-2.8-11.8,0
						C1335.9,1021.6,1335.9,1026.1,1339.2,1028.8z"/>
					<path d="M1293.9,1067.1c3.3,2.8,8.6,2.8,11.8,0c3.3-2.8,3.3-7.2,0-10c-3.3-2.8-8.6-2.8-11.8,0
						C1290.6,1059.8,1290.6,1064.3,1293.9,1067.1z"/>
					<path d="M1248.6,1105.3c3.3,2.8,8.6,2.8,11.8,0c3.3-2.8,3.3-7.2,0-10c-3.3-2.8-8.6-2.8-11.8,0
						C1245.3,1098.1,1245.3,1102.5,1248.6,1105.3z"/>
					<path d="M1203.3,1143.5c3.3,2.8,8.6,2.8,11.8,0c3.3-2.8,3.3-7.2,0-10c-3.3-2.8-8.6-2.8-11.8,0
						C1200,1136.3,1200,1140.7,1203.3,1143.5z"/>
					<path d="M1158,1181.7c3.3,2.8,8.6,2.8,11.8,0c3.3-2.8,3.3-7.2,0-10c-3.3-2.8-8.6-2.8-11.8,0
						C1154.7,1174.5,1154.7,1178.9,1158,1181.7z"/>
					<path d="M1112.7,1219.9c3.3,2.8,8.6,2.8,11.8,0c3.3-2.8,3.3-7.2,0-10c-3.3-2.7-8.6-2.8-11.8,0
						C1109.5,1212.7,1109.5,1217.2,1112.7,1219.9z"/>
				</g>
				<g>
					<ellipse cx="1616.8" cy="871" rx="8.4" ry="7"/>
					<path d="M1565.6,914.2c3.3,2.8,8.6,2.8,11.8,0c3.3-2.8,3.3-7.2,0-10c-3.3-2.8-8.6-2.8-11.8,0
						C1562.4,907,1562.4,911.4,1565.6,914.2z"/>
					<path d="M1520.3,952.4c3.3,2.8,8.6,2.7,11.8,0c3.3-2.8,3.3-7.2,0-10c-3.3-2.8-8.6-2.8-11.8,0
						C1517.1,945.2,1517.1,949.7,1520.3,952.4z"/>
					<path d="M1475,990.6c3.3,2.7,8.6,2.7,11.8,0c3.3-2.8,3.3-7.2,0-10c-3.3-2.8-8.6-2.8-11.8,0
						C1471.8,983.4,1471.8,987.9,1475,990.6z"/>
					<path d="M1429.8,1028.8c3.3,2.8,8.5,2.8,11.8,0c3.3-2.8,3.3-7.2,0-10c-3.3-2.8-8.6-2.8-11.8,0
						C1426.5,1021.6,1426.5,1026.1,1429.8,1028.8z"/>
					<path d="M1384.5,1067.1c3.3,2.8,8.6,2.8,11.8,0c3.3-2.8,3.3-7.2,0-10c-3.3-2.7-8.6-2.8-11.8,0
						C1381.2,1059.8,1381.2,1064.3,1384.5,1067.1z"/>
					<path d="M1339.2,1105.3c3.3,2.8,8.6,2.8,11.8,0c3.3-2.8,3.3-7.2,0-10c-3.3-2.8-8.6-2.8-11.8,0
						C1335.9,1098.1,1335.9,1102.5,1339.2,1105.3z"/>
					<path d="M1293.9,1143.5c3.3,2.8,8.5,2.8,11.8,0c3.3-2.7,3.3-7.2,0-10c-3.3-2.8-8.6-2.8-11.8,0
						C1290.6,1136.3,1290.6,1140.7,1293.9,1143.5z"/>
					<path d="M1248.6,1181.7c3.3,2.8,8.6,2.8,11.8,0c3.3-2.8,3.3-7.2,0-10c-3.3-2.8-8.6-2.8-11.8,0
						C1245.3,1174.5,1245.3,1178.9,1248.6,1181.7z"/>
					<path d="M1203.3,1219.9c3.3,2.8,8.6,2.8,11.8,0c3.3-2.8,3.3-7.2,0-10c-3.3-2.7-8.6-2.7-11.8,0
						C1200,1212.7,1200,1217.2,1203.3,1219.9z"/>
					<path d="M1158,1258.1c3.3,2.8,8.6,2.8,11.8,0c3.3-2.8,3.3-7.2,0-10c-3.3-2.8-8.6-2.8-11.8,0
						C1154.7,1250.9,1154.7,1255.4,1158,1258.1z"/>
				</g>
				<g>
					<path d="M1656.2,914.2c3.3,2.8,8.6,2.8,11.8,0c3.3-2.8,3.3-7.2,0-10c-3.3-2.8-8.6-2.8-11.8,0
						C1652.9,907,1652.9,911.4,1656.2,914.2z"/>
					<path d="M1610.9,952.4c3.3,2.8,8.6,2.8,11.8,0c3.3-2.8,3.3-7.2,0-10c-3.3-2.8-8.6-2.8-11.8,0
						C1607.6,945.2,1607.6,949.7,1610.9,952.4z"/>
					<path d="M1565.6,990.6c3.3,2.8,8.6,2.7,11.8,0c3.3-2.8,3.3-7.2,0-10c-3.3-2.8-8.6-2.8-11.8,0
						C1562.4,983.4,1562.4,987.9,1565.6,990.6z"/>
					<path d="M1520.3,1028.8c3.3,2.8,8.6,2.8,11.8,0c3.3-2.8,3.3-7.2,0-10c-3.3-2.8-8.6-2.8-11.8,0
						C1517.1,1021.6,1517.1,1026.1,1520.3,1028.8z"/>
					<path d="M1475,1067.1c3.3,2.8,8.5,2.8,11.8,0c3.3-2.8,3.3-7.2,0-10c-3.3-2.8-8.6-2.7-11.8,0
						C1471.8,1059.8,1471.8,1064.3,1475,1067.1z"/>
					<path d="M1429.8,1105.3c3.3,2.7,8.6,2.7,11.8,0c3.3-2.8,3.3-7.2,0-10c-3.3-2.8-8.6-2.8-11.8,0
						C1426.5,1098.1,1426.5,1102.5,1429.8,1105.3z"/>
					<path d="M1384.5,1143.5c3.3,2.8,8.6,2.8,11.8,0c3.3-2.8,3.3-7.2,0-10c-3.3-2.8-8.6-2.8-11.8,0
						C1381.2,1136.3,1381.2,1140.7,1384.5,1143.5z"/>
					<path d="M1339.2,1181.7c3.3,2.8,8.5,2.8,11.8,0c3.3-2.8,3.3-7.2,0-10c-3.3-2.8-8.6-2.8-11.8,0
						C1335.9,1174.5,1335.9,1178.9,1339.2,1181.7z"/>
					<path d="M1293.9,1219.9c3.3,2.8,8.6,2.8,11.8,0c3.3-2.8,3.3-7.2,0-10c-3.3-2.8-8.6-2.7-11.8,0
						C1290.6,1212.7,1290.6,1217.2,1293.9,1219.9z"/>
					<path d="M1248.6,1258.1c3.3,2.8,8.6,2.8,11.8,0c3.3-2.8,3.3-7.2,0-10c-3.3-2.8-8.6-2.7-11.8,0
						C1245.3,1250.9,1245.3,1255.4,1248.6,1258.1z"/>
					<path d="M1203.3,1296.3c3.3,2.8,8.6,2.8,11.8,0c3.3-2.8,3.3-7.2,0-10c-3.3-2.8-8.6-2.8-11.8,0
						C1200,1289.1,1200,1293.6,1203.3,1296.3z"/>
				</g>
				<g>
					<path d="M1701.5,952.4c3.3,2.8,8.6,2.7,11.8,0c3.3-2.8,3.3-7.2,0-10c-3.3-2.8-8.6-2.8-11.8,0
						C1698.2,945.2,1698.2,949.7,1701.5,952.4z"/>
					<path d="M1656.2,990.6c3.3,2.7,8.5,2.7,11.8,0c3.3-2.8,3.3-7.2,0-10c-3.3-2.8-8.6-2.8-11.8,0
						C1652.9,983.4,1652.9,987.9,1656.2,990.6z"/>
					<path d="M1610.9,1028.8c3.3,2.8,8.6,2.8,11.8,0c3.3-2.8,3.3-7.2,0-10c-3.3-2.8-8.6-2.7-11.8,0
						C1607.6,1021.6,1607.6,1026.1,1610.9,1028.8z"/>
					<path d="M1565.6,1067.1c3.3,2.8,8.6,2.8,11.8,0c3.3-2.8,3.3-7.2,0-10c-3.3-2.8-8.6-2.8-11.8,0
						C1562.4,1059.8,1562.4,1064.3,1565.6,1067.1z"/>
					<path d="M1520.3,1105.3c3.3,2.8,8.5,2.8,11.8,0c3.3-2.7,3.3-7.2,0-10c-3.3-2.8-8.6-2.8-11.8,0
						C1517.1,1098.1,1517.1,1102.5,1520.3,1105.3z"/>
					<path d="M1475,1143.5c3.3,2.8,8.5,2.8,11.8,0c3.3-2.8,3.3-7.2,0-10c-3.3-2.8-8.6-2.8-11.8,0
						C1471.8,1136.3,1471.8,1140.7,1475,1143.5z"/>
					<path d="M1429.8,1181.7c3.3,2.8,8.5,2.8,11.8,0c3.3-2.8,3.3-7.2,0-10c-3.3-2.8-8.6-2.8-11.8,0
						C1426.5,1174.5,1426.5,1178.9,1429.8,1181.7z"/>
					<path d="M1384.5,1219.9c3.3,2.8,8.6,2.8,11.8,0c3.3-2.8,3.3-7.2,0-10c-3.3-2.8-8.6-2.7-11.8,0
						C1381.2,1212.7,1381.2,1217.2,1384.5,1219.9z"/>
					<path d="M1339.2,1258.1c3.3,2.8,8.6,2.7,11.8,0c3.3-2.8,3.3-7.2,0-10c-3.3-2.8-8.6-2.8-11.8,0
						C1335.9,1250.9,1335.9,1255.4,1339.2,1258.1z"/>
					<path d="M1293.9,1296.3c3.3,2.8,8.5,2.8,11.8,0c3.3-2.7,3.3-7.2,0-10c-3.3-2.8-8.6-2.8-11.8,0
						C1290.6,1289.1,1290.6,1293.6,1293.9,1296.3z"/>
					<path d="M1248.6,1334.6c3.3,2.8,8.6,2.8,11.8,0c3.3-2.8,3.3-7.2,0-10c-3.3-2.8-8.5-2.8-11.8,0
						C1245.3,1327.3,1245.3,1331.8,1248.6,1334.6z"/>
				</g>
				<g>
					<path d="M1746.8,990.6c3.3,2.7,8.6,2.7,11.8,0c3.3-2.8,3.3-7.2,0-10c-3.3-2.8-8.6-2.8-11.8,0
						C1743.5,983.4,1743.5,987.9,1746.8,990.6z"/>
					<path d="M1701.5,1028.8c3.3,2.8,8.6,2.8,11.8,0c3.3-2.8,3.3-7.2,0-10c-3.3-2.8-8.6-2.7-11.8,0
						C1698.2,1021.6,1698.2,1026.1,1701.5,1028.8z"/>
					<path d="M1656.2,1067.1c3.3,2.8,8.6,2.8,11.8,0c3.3-2.8,3.3-7.2,0-10c-3.3-2.8-8.6-2.7-11.8,0
						C1652.9,1059.8,1652.9,1064.3,1656.2,1067.1z"/>
					<path d="M1610.9,1105.3c3.3,2.7,8.6,2.7,11.8,0c3.3-2.8,3.3-7.2,0-10c-3.3-2.8-8.6-2.8-11.8,0
						C1607.6,1098.1,1607.6,1102.5,1610.9,1105.3z"/>
					<path d="M1565.6,1143.5c3.3,2.8,8.6,2.8,11.8,0c3.3-2.7,3.3-7.2,0-10c-3.3-2.8-8.6-2.8-11.8,0
						C1562.4,1136.3,1562.4,1140.7,1565.6,1143.5z"/>
					<ellipse cx="1526.2" cy="1176.7" rx="8.4" ry="7"/>
					<path d="M1475,1219.9c3.3,2.8,8.6,2.8,11.8,0c3.3-2.8,3.3-7.2,0-10c-3.3-2.8-8.6-2.8-11.8,0
						C1471.8,1212.7,1471.8,1217.2,1475,1219.9z"/>
					<path d="M1429.8,1258.1c3.3,2.8,8.5,2.8,11.8,0c3.3-2.8,3.3-7.2,0-10c-3.3-2.8-8.6-2.8-11.8,0
						C1426.5,1250.9,1426.5,1255.4,1429.8,1258.1z"/>
					<path d="M1384.5,1296.3c3.3,2.8,8.6,2.8,11.8,0c3.3-2.8,3.3-7.2,0-10c-3.3-2.8-8.6-2.8-11.8,0
						C1381.2,1289.1,1381.2,1293.6,1384.5,1296.3z"/>
					<path d="M1339.2,1334.6c3.3,2.8,8.6,2.8,11.8,0c3.3-2.8,3.3-7.2,0-10c-3.3-2.8-8.6-2.8-11.8,0
						C1335.9,1327.3,1335.9,1331.8,1339.2,1334.6z"/>
					<path d="M1293.9,1372.8c3.3,2.8,8.6,2.8,11.8,0c3.3-2.8,3.3-7.2,0-10c-3.3-2.8-8.6-2.8-11.8,0
						C1290.6,1365.6,1290.6,1370,1293.9,1372.8z"/>
				</g>
				<g>
					<path d="M1792.1,1028.8c3.3,2.8,8.6,2.8,11.8,0c3.3-2.8,3.3-7.2,0-10c-3.3-2.7-8.6-2.7-11.8,0
						C1788.8,1021.6,1788.8,1026.1,1792.1,1028.8z"/>
					<path d="M1746.8,1067.1c3.3,2.8,8.6,2.8,11.8,0c3.3-2.8,3.3-7.2,0-10c-3.3-2.7-8.6-2.7-11.8,0
						C1743.5,1059.8,1743.5,1064.3,1746.8,1067.1z"/>
					<path d="M1701.5,1105.3c3.3,2.7,8.6,2.7,11.8,0c3.3-2.8,3.3-7.2,0-10c-3.3-2.8-8.6-2.8-11.8,0
						C1698.2,1098.1,1698.2,1102.5,1701.5,1105.3z"/>
					<path d="M1656.2,1143.5c3.3,2.8,8.6,2.8,11.8,0c3.3-2.8,3.3-7.2,0-10c-3.3-2.8-8.6-2.8-11.8,0
						C1652.9,1136.3,1652.9,1140.7,1656.2,1143.5z"/>
					<path d="M1610.9,1181.7c3.3,2.8,8.6,2.8,11.8,0c3.3-2.8,3.3-7.2,0-10c-3.3-2.8-8.6-2.8-11.8,0
						C1607.6,1174.5,1607.6,1178.9,1610.9,1181.7z"/>
					<path d="M1565.6,1219.9c3.3,2.8,8.6,2.8,11.8,0c3.3-2.8,3.3-7.2,0-10c-3.3-2.7-8.6-2.8-11.8,0
						C1562.4,1212.7,1562.4,1217.2,1565.6,1219.9z"/>
					<path d="M1520.3,1258.1c3.3,2.8,8.6,2.8,11.8,0c3.3-2.8,3.3-7.2,0-10c-3.3-2.7-8.6-2.8-11.8,0
						C1517.1,1250.9,1517.1,1255.4,1520.3,1258.1z"/>
					<path d="M1475,1296.3c3.3,2.8,8.5,2.8,11.8,0c3.3-2.8,3.3-7.2,0-10c-3.3-2.8-8.6-2.8-11.8,0
						C1471.8,1289.1,1471.8,1293.6,1475,1296.3z"/>
					<path d="M1429.7,1334.6c3.3,2.8,8.6,2.8,11.8,0c3.3-2.8,3.3-7.2,0-10c-3.3-2.8-8.6-2.8-11.8,0
						C1426.5,1327.3,1426.5,1331.8,1429.7,1334.6z"/>
					<path d="M1384.5,1372.8c3.3,2.8,8.6,2.8,11.8,0c3.3-2.8,3.3-7.2,0-10c-3.3-2.8-8.6-2.8-11.8,0
						C1381.2,1365.6,1381.2,1370,1384.5,1372.8z"/>
					<path d="M1339.2,1411c3.3,2.7,8.6,2.7,11.8,0c3.3-2.8,3.3-7.2,0-10s-8.6-2.8-11.8,0C1335.9,1403.8,1335.9,1408.2,1339.2,1411z"
						/>
				</g>
				<g>
					<path d="M1837.4,1067.1c3.3,2.8,8.6,2.8,11.8,0c3.3-2.8,3.3-7.2,0-10c-3.3-2.7-8.6-2.7-11.8,0
						C1834.1,1059.8,1834.1,1064.3,1837.4,1067.1z"/>
					<path d="M1792.1,1105.3c3.3,2.8,8.6,2.8,11.8,0c3.3-2.8,3.3-7.2,0-10c-3.3-2.8-8.6-2.8-11.8,0
						C1788.8,1098.1,1788.8,1102.5,1792.1,1105.3z"/>
					<path d="M1746.8,1143.5c3.3,2.8,8.6,2.8,11.8,0c3.3-2.7,3.3-7.2,0-10c-3.3-2.8-8.5-2.8-11.8,0
						C1743.5,1136.3,1743.5,1140.7,1746.8,1143.5z"/>
					<path d="M1701.5,1181.7c3.3,2.8,8.6,2.8,11.8,0c3.3-2.8,3.3-7.2,0-10c-3.3-2.8-8.5-2.8-11.8,0
						C1698.2,1174.5,1698.2,1178.9,1701.5,1181.7z"/>
					<path d="M1656.2,1219.9c3.3,2.8,8.5,2.8,11.8,0c3.3-2.8,3.3-7.2,0-10c-3.3-2.8-8.6-2.7-11.8,0
						C1652.9,1212.7,1652.9,1217.2,1656.2,1219.9z"/>
					<path d="M1610.9,1258.1c3.3,2.8,8.6,2.8,11.8,0c3.3-2.8,3.3-7.2,0-10c-3.3-2.8-8.6-2.8-11.8,0
						C1607.6,1250.9,1607.6,1255.4,1610.9,1258.1z"/>
					<path d="M1565.6,1296.3c3.3,2.8,8.6,2.8,11.8,0c3.3-2.8,3.3-7.2,0-10c-3.3-2.8-8.6-2.8-11.8,0
						C1562.4,1289.1,1562.4,1293.6,1565.6,1296.3z"/>
					<path d="M1520.3,1334.6c3.3,2.8,8.6,2.8,11.8,0c3.3-2.8,3.3-7.2,0-10c-3.3-2.8-8.6-2.7-11.8,0
						C1517.1,1327.3,1517.1,1331.8,1520.3,1334.6z"/>
					<path d="M1475,1372.8c3.3,2.8,8.6,2.7,11.8,0c3.3-2.8,3.3-7.2,0-10c-3.3-2.8-8.6-2.8-11.8,0
						C1471.8,1365.6,1471.8,1370,1475,1372.8z"/>
					<path d="M1429.7,1411c3.3,2.7,8.6,2.7,11.8,0c3.3-2.8,3.3-7.2,0-10c-3.3-2.8-8.6-2.7-11.8,0
						C1426.5,1403.8,1426.5,1408.2,1429.7,1411z"/>
					<path d="M1384.5,1449.2c3.3,2.8,8.6,2.8,11.8,0c3.3-2.8,3.3-7.2,0-10c-3.3-2.8-8.5-2.8-11.8,0
						C1381.2,1442,1381.2,1446.4,1384.5,1449.2z"/>
				</g>
			</g>
			<g style="clip-path:url(#SVGID_00000171000168243841549100000008360320572166288279_);">
				<g>
					<path class="st28" d="M1779.2-296.1c1.9,1.6,5.1,1.6,7.1,0c1.9-1.6,1.9-4.3,0-6c-1.9-1.6-5.1-1.6-7.1,0
						C1777.3-300.4,1777.3-297.8,1779.2-296.1z"/>
					<path class="st28" d="M1752.2-273.3c1.9,1.6,5.1,1.6,7.1,0c2-1.6,2-4.3,0-6c-1.9-1.6-5.1-1.6-7.1,0
						C1750.2-277.6,1750.2-274.9,1752.2-273.3z"/>
					<path class="st28" d="M1725.1-250.5c1.9,1.6,5.1,1.6,7.1,0c1.9-1.6,1.9-4.3,0-6c-1.9-1.6-5.1-1.6-7.1,0
						C1723.2-254.8,1723.1-252.1,1725.1-250.5z"/>
					<path class="st28" d="M1698-227.6c1.9,1.6,5.1,1.6,7.1,0c2-1.6,2-4.3,0-6c-1.9-1.6-5.1-1.6-7.1,0
						C1696.1-231.9,1696.1-229.3,1698-227.6z"/>
					<path class="st28" d="M1671-204.8c1.9,1.6,5.1,1.6,7.1,0c1.9-1.6,1.9-4.3,0-6c-1.9-1.6-5.1-1.6-7.1,0
						C1669-209.1,1669-206.4,1671-204.8z"/>
					<path class="st28" d="M1643.9-182c1.9,1.6,5.1,1.6,7.1,0c2-1.6,1.9-4.3,0-6c-1.9-1.6-5.1-1.6-7.1,0
						C1642-186.3,1642-183.6,1643.9-182z"/>
					<path class="st28" d="M1616.9-159.1c2,1.6,5.1,1.6,7.1,0c2-1.6,1.9-4.3,0-6c-1.9-1.6-5.1-1.6-7.1,0
						C1614.9-163.5,1614.9-160.8,1616.9-159.1z"/>
					<path class="st28" d="M1589.8-136.3c1.9,1.6,5.1,1.6,7.1,0c1.9-1.6,1.9-4.3,0-6c-1.9-1.6-5.1-1.6-7.1,0
						C1587.8-140.6,1587.8-138,1589.8-136.3z"/>
					<path class="st28" d="M1562.7-113.5c1.9,1.6,5.1,1.6,7.1,0c1.9-1.6,1.9-4.3,0-6c-1.9-1.6-5.1-1.6-7.1,0
						C1560.8-117.8,1560.8-115.1,1562.7-113.5z"/>
					<path class="st28" d="M1535.7-90.6c1.9,1.6,5.1,1.6,7.1,0c1.9-1.6,1.9-4.3,0-6c-1.9-1.6-5.1-1.6-7.1,0
						C1533.7-95,1533.7-92.3,1535.7-90.6z"/>
					<path class="st28" d="M1508.6-67.8c1.9,1.6,5.1,1.6,7.1,0c1.9-1.6,1.9-4.3,0-6c-1.9-1.6-5.1-1.6-7.1,0S1506.7-69.5,1508.6-67.8
						z"/>
				</g>
				<g>
					<path class="st28" d="M1806.3-273.3c1.9,1.6,5.1,1.6,7.1,0c1.9-1.6,1.9-4.3,0-6c-2-1.6-5.1-1.6-7.1,0
						C1804.3-277.6,1804.3-274.9,1806.3-273.3z"/>
					<path class="st28" d="M1779.2-250.5c1.9,1.6,5.1,1.6,7.1,0c2-1.6,1.9-4.3,0-6c-1.9-1.6-5.1-1.6-7.1,0
						C1777.3-254.8,1777.3-252.1,1779.2-250.5z"/>
					<path class="st28" d="M1752.2-227.6c1.9,1.6,5.1,1.6,7.1,0c2-1.6,2-4.3,0-6c-1.9-1.6-5.1-1.6-7.1,0
						C1750.2-231.9,1750.2-229.3,1752.2-227.6z"/>
					<path class="st28" d="M1725.1-204.8c1.9,1.6,5.1,1.6,7.1,0c2-1.6,1.9-4.3,0-6c-2-1.6-5.1-1.6-7.1,0
						C1723.2-209.1,1723.1-206.4,1725.1-204.8z"/>
					<path class="st28" d="M1698-182c1.9,1.6,5.1,1.6,7.1,0c1.9-1.6,1.9-4.3,0-6c-2-1.6-5.1-1.6-7.1,0
						C1696.1-186.3,1696.1-183.6,1698-182z"/>
					<path class="st28" d="M1671-159.1c1.9,1.6,5.1,1.6,7.1,0c1.9-1.6,1.9-4.3,0-6c-2-1.6-5.1-1.6-7.1,0
						C1669-163.5,1669-160.8,1671-159.1z"/>
					<path class="st28" d="M1643.9-136.3c1.9,1.6,5.1,1.6,7.1,0c2-1.6,1.9-4.3,0-6c-2-1.6-5.1-1.6-7.1,0
						C1642-140.6,1642-138,1643.9-136.3z"/>
					<path class="st28" d="M1616.9-113.5c2,1.6,5.1,1.6,7.1,0c1.9-1.6,1.9-4.3,0-6c-2-1.6-5.1-1.6-7.1,0
						C1614.9-117.8,1614.9-115.1,1616.9-113.5z"/>
					<path class="st28" d="M1589.8-90.6c1.9,1.6,5.1,1.6,7.1,0c2-1.6,1.9-4.3,0-6c-1.9-1.6-5.1-1.6-7.1,0
						C1587.9-95,1587.8-92.3,1589.8-90.6z"/>
					<path class="st28" d="M1562.7-67.8c1.9,1.6,5.1,1.6,7.1,0c1.9-1.6,1.9-4.3,0-6c-1.9-1.6-5.1-1.6-7.1,0
						C1560.8-72.1,1560.8-69.5,1562.7-67.8z"/>
					<path class="st28" d="M1535.7-45c1.9,1.6,5.1,1.6,7.1,0c1.9-1.6,1.9-4.3,0-6c-2-1.6-5.1-1.6-7.1,0
						C1533.7-49.3,1533.7-46.6,1535.7-45z"/>
				</g>
				<g>
					<path class="st28" d="M1833.3-250.5c1.9,1.6,5.1,1.6,7.1,0c1.9-1.6,1.9-4.3,0-6c-1.9-1.6-5.1-1.6-7.1,0
						C1831.4-254.8,1831.4-252.1,1833.3-250.5z"/>
					<path class="st28" d="M1806.3-227.6c1.9,1.6,5.1,1.6,7.1,0c1.9-1.6,1.9-4.3,0-6c-1.9-1.6-5.1-1.6-7.1,0
						C1804.3-232,1804.3-229.3,1806.3-227.6z"/>
					<path class="st28" d="M1779.2-204.8c1.9,1.6,5.1,1.6,7.1,0c2-1.6,2-4.3,0-6c-1.9-1.6-5.1-1.6-7.1,0
						C1777.3-209.1,1777.3-206.4,1779.2-204.8z"/>
					<path class="st28" d="M1752.2-182c1.9,1.6,5.1,1.6,7.1,0c2-1.6,2-4.3,0-6c-1.9-1.6-5.1-1.6-7.1,0
						C1750.2-186.3,1750.2-183.6,1752.2-182z"/>
					<path class="st28" d="M1725.1-159.1c1.9,1.6,5.1,1.6,7.1,0c1.9-1.6,1.9-4.3,0-6c-1.9-1.6-5.1-1.6-7.1,0
						C1723.1-163.5,1723.2-160.8,1725.1-159.1z"/>
					<path class="st28" d="M1698-136.3c1.9,1.6,5.1,1.6,7.1,0c1.9-1.6,1.9-4.3,0-6c-1.9-1.6-5.1-1.6-7.1,0
						C1696.1-140.6,1696.1-138,1698-136.3z"/>
					<path class="st28" d="M1671-113.5c2,1.6,5.1,1.6,7.1,0c1.9-1.6,1.9-4.3,0-6c-1.9-1.6-5.1-1.6-7.1,0
						C1669-117.8,1669-115.1,1671-113.5z"/>
					<path class="st28" d="M1643.9-90.6c1.9,1.6,5.1,1.6,7.1,0c2-1.6,2-4.3,0-6c-1.9-1.6-5.1-1.6-7.1,0
						C1642-95,1642-92.3,1643.9-90.6z"/>
					<path class="st28" d="M1616.9-67.8c2,1.6,5.1,1.6,7.1,0c1.9-1.6,1.9-4.3,0-6c-1.9-1.6-5.1-1.6-7.1,0
						C1614.9-72.1,1614.9-69.5,1616.9-67.8z"/>
					<path class="st28" d="M1589.8-45c1.9,1.6,5.1,1.6,7.1,0c1.9-1.6,1.9-4.3,0-6c-1.9-1.6-5.1-1.6-7.1,0
						C1587.8-49.3,1587.8-46.6,1589.8-45z"/>
					<path class="st28" d="M1562.7-22.2c1.9,1.6,5.1,1.6,7.1,0c2-1.6,1.9-4.3,0-6c-1.9-1.6-5.1-1.6-7.1,0
						C1560.8-26.5,1560.8-23.8,1562.7-22.2z"/>
				</g>
				<g>
					<path class="st28" d="M1860.4-227.6c1.9,1.6,5.1,1.6,7.1,0c1.9-1.6,1.9-4.3,0-6c-2-1.6-5.1-1.6-7.1,0
						C1858.4-231.9,1858.4-229.3,1860.4-227.6z"/>
					<path class="st28" d="M1833.3-204.8c1.9,1.6,5.1,1.6,7.1,0c1.9-1.6,1.9-4.3,0-6c-1.9-1.6-5.1-1.6-7.1,0
						C1831.4-209.1,1831.4-206.4,1833.3-204.8z"/>
					<path class="st28" d="M1806.3-182c1.9,1.6,5.1,1.6,7.1,0c1.9-1.6,1.9-4.3,0-6c-2-1.6-5.1-1.6-7.1,0
						C1804.3-186.3,1804.3-183.6,1806.3-182z"/>
					<path class="st28" d="M1779.2-159.1c1.9,1.6,5.1,1.6,7.1,0c2-1.6,1.9-4.3,0-6c-1.9-1.6-5.1-1.6-7.1,0
						C1777.3-163.5,1777.3-160.8,1779.2-159.1z"/>
					<path class="st28" d="M1752.2-136.3c1.9,1.6,5.1,1.6,7.1,0c2-1.6,2-4.3,0-6c-1.9-1.6-5.1-1.6-7.1,0
						C1750.2-140.6,1750.2-138,1752.2-136.3z"/>
					<path class="st28" d="M1725.1-113.5c1.9,1.6,5.1,1.6,7.1,0c2-1.6,1.9-4.3,0-6c-2-1.6-5.1-1.6-7.1,0
						C1723.2-117.8,1723.1-115.1,1725.1-113.5z"/>
					<path class="st28" d="M1698-90.6c1.9,1.6,5.1,1.6,7.1,0c2-1.6,2-4.3,0-6c-1.9-1.6-5.1-1.6-7.1,0
						C1696.1-95,1696.1-92.3,1698-90.6z"/>
					<path class="st28" d="M1671-67.8c1.9,1.6,5.1,1.6,7.1,0c1.9-1.6,1.9-4.3,0-6c-2-1.6-5.1-1.6-7.1,0
						C1669-72.1,1669-69.5,1671-67.8z"/>
					<path class="st28" d="M1643.9-45c1.9,1.6,5.1,1.6,7.1,0c2-1.6,2-4.3,0-6c-1.9-1.6-5.1-1.6-7.1,0C1642-49.3,1642-46.6,1643.9-45
						z"/>
					<path class="st28" d="M1616.9-22.2c2,1.6,5.1,1.6,7.1,0c1.9-1.6,1.9-4.3,0-6c-2-1.6-5.1-1.6-7.1,0
						C1614.9-26.5,1614.9-23.8,1616.9-22.2z"/>
					<path class="st28" d="M1589.8,0.7c1.9,1.6,5.1,1.6,7.1,0c2-1.6,1.9-4.3,0-6c-2-1.6-5.1-1.6-7.1,0
						C1587.8-3.6,1587.8-1,1589.8,0.7z"/>
				</g>
				<g>
					<path class="st28" d="M1887.5-204.8c1.9,1.6,5.1,1.6,7.1,0c1.9-1.6,1.9-4.3,0-6c-1.9-1.6-5.1-1.6-7.1,0
						C1885.5-209.1,1885.5-206.4,1887.5-204.8z"/>
					<path class="st28" d="M1860.4-182c1.9,1.6,5.1,1.6,7.1,0c1.9-1.6,1.9-4.3,0-6c-1.9-1.6-5.1-1.6-7.1,0
						C1858.4-186.3,1858.4-183.6,1860.4-182z"/>
					<path class="st28" d="M1833.3-159.1c1.9,1.6,5.1,1.6,7.1,0c1.9-1.6,1.9-4.3,0-6c-1.9-1.6-5.1-1.6-7.1,0
						C1831.4-163.5,1831.4-160.8,1833.3-159.1z"/>
					<path class="st28" d="M1806.3-136.3c1.9,1.6,5.1,1.6,7.1,0c1.9-1.6,1.9-4.3,0-6c-2-1.6-5.1-1.6-7.1,0
						C1804.3-140.6,1804.3-138,1806.3-136.3z"/>
					<path class="st28" d="M1779.2-113.5c2,1.6,5.1,1.6,7.1,0c2-1.6,2-4.3,0-6c-1.9-1.6-5.1-1.6-7.1,0
						C1777.3-117.8,1777.3-115.1,1779.2-113.5z"/>
					<path class="st28" d="M1752.2-90.6c1.9,1.6,5.1,1.6,7.1,0c2-1.6,2-4.3,0-6c-1.9-1.6-5.1-1.6-7.1,0
						C1750.2-95,1750.2-92.3,1752.2-90.6z"/>
					<path class="st28" d="M1725.1-67.8c1.9,1.6,5.1,1.6,7.1,0c1.9-1.6,1.9-4.3,0-6c-2-1.6-5.1-1.6-7.1,0
						C1723.2-72.1,1723.2-69.5,1725.1-67.8z"/>
					<path class="st28" d="M1698-45c1.9,1.6,5.1,1.6,7.1,0c1.9-1.6,1.9-4.3,0-6c-1.9-1.6-5.1-1.6-7.1,0
						C1696.1-49.3,1696.1-46.6,1698-45z"/>
					<path class="st28" d="M1671-22.2c1.9,1.6,5.1,1.6,7.1,0c1.9-1.6,1.9-4.3,0-6c-1.9-1.6-5.1-1.6-7.1,0
						C1669-26.5,1669-23.8,1671-22.2z"/>
					<path class="st28" d="M1643.9,0.7c1.9,1.6,5.1,1.6,7.1,0c1.9-1.6,1.9-4.3,0-6c-1.9-1.6-5.1-1.6-7.1,0
						C1642-3.6,1642-1,1643.9,0.7z"/>
					<path class="st28" d="M1616.9,23.5c2,1.6,5.1,1.6,7.1,0c1.9-1.6,1.9-4.3,0-6c-2-1.6-5.1-1.6-7.1,0
						C1614.9,19.2,1614.9,21.9,1616.9,23.5z"/>
				</g>
				<g>
					<path class="st28" d="M1914.5-182c1.9,1.6,5.1,1.6,7.1,0c1.9-1.6,1.9-4.3,0-6c-1.9-1.6-5.1-1.6-7.1,0
						C1912.6-186.3,1912.6-183.6,1914.5-182z"/>
					<path class="st28" d="M1887.5-159.1c1.9,1.6,5.1,1.6,7.1,0c1.9-1.6,1.9-4.3,0-6c-1.9-1.6-5.1-1.6-7.1,0
						C1885.5-163.5,1885.5-160.8,1887.5-159.1z"/>
					<path class="st28" d="M1860.4-136.3c1.9,1.6,5.1,1.6,7.1,0c1.9-1.6,1.9-4.3,0-6c-1.9-1.6-5.1-1.6-7.1,0
						C1858.4-140.6,1858.4-138,1860.4-136.3z"/>
					<path class="st28" d="M1833.3-113.5c1.9,1.6,5.1,1.6,7.1,0c1.9-1.6,1.9-4.3,0-6c-1.9-1.6-5.1-1.6-7.1,0
						C1831.4-117.8,1831.4-115.1,1833.3-113.5z"/>
					<path class="st28" d="M1806.3-90.6c1.9,1.6,5.1,1.6,7.1,0c1.9-1.6,1.9-4.3,0-6c-1.9-1.6-5.1-1.6-7.1,0
						C1804.3-95,1804.3-92.3,1806.3-90.6z"/>
					<path class="st28" d="M1779.2-67.8c1.9,1.6,5.1,1.6,7.1,0c2-1.6,1.9-4.3,0-6c-1.9-1.6-5.1-1.6-7.1,0
						C1777.3-72.1,1777.3-69.5,1779.2-67.8z"/>
					<path class="st28" d="M1752.2-45c1.9,1.6,5.1,1.6,7.1,0c2-1.6,1.9-4.3,0-6c-1.9-1.6-5.1-1.6-7.1,0
						C1750.2-49.3,1750.2-46.6,1752.2-45z"/>
					<path class="st28" d="M1725.1-22.2c1.9,1.6,5.1,1.6,7.1,0c1.9-1.6,1.9-4.3,0-6c-1.9-1.6-5.1-1.6-7.1,0
						C1723.1-26.5,1723.2-23.8,1725.1-22.2z"/>
					<path class="st28" d="M1698,0.7c1.9,1.6,5.1,1.6,7.1,0c2-1.6,2-4.3,0-6c-1.9-1.6-5.1-1.6-7.1,0C1696.1-3.6,1696.1-1,1698,0.7z"
						/>
					<path class="st28" d="M1671,23.5c1.9,1.6,5.1,1.6,7.1,0c1.9-1.6,1.9-4.3,0-6c-2-1.6-5.1-1.6-7.1,0
						C1669,19.2,1669,21.9,1671,23.5z"/>
					<path class="st28" d="M1643.9,46.3c1.9,1.6,5.1,1.6,7.1,0c2-1.6,1.9-4.3,0-6c-1.9-1.6-5.1-1.6-7.1,0
						C1642,42,1642,44.7,1643.9,46.3z"/>
				</g>
				<g>
					<path class="st28" d="M1941.6-159.1c1.9,1.6,5.1,1.6,7.1,0c2-1.6,2-4.3,0-6c-1.9-1.6-5.1-1.6-7.1,0
						C1939.6-163.5,1939.6-160.8,1941.6-159.1z"/>
					<path class="st28" d="M1914.5-136.3c1.9,1.6,5.1,1.6,7.1,0c1.9-1.6,1.9-4.3,0-6c-2-1.6-5.1-1.6-7.1,0
						C1912.6-140.6,1912.6-138,1914.5-136.3z"/>
					<path class="st28" d="M1887.5-113.5c1.9,1.6,5.1,1.6,7.1,0c1.9-1.6,1.9-4.3,0-6c-1.9-1.6-5.1-1.6-7.1,0
						C1885.5-117.8,1885.5-115.1,1887.5-113.5z"/>
					<path class="st28" d="M1860.4-90.6c1.9,1.6,5.1,1.6,7.1,0c1.9-1.6,1.9-4.3,0-6c-2-1.6-5.1-1.6-7.1,0
						C1858.4-95,1858.4-92.3,1860.4-90.6z"/>
					<path class="st28" d="M1833.3-67.8c1.9,1.6,5.1,1.6,7.1,0c2-1.6,2-4.3,0-6c-2-1.6-5.1-1.6-7.1,0
						C1831.4-72.1,1831.4-69.5,1833.3-67.8z"/>
					<path class="st28" d="M1806.3-45c1.9,1.6,5.1,1.6,7.1,0c1.9-1.6,1.9-4.3,0-6c-2-1.6-5.1-1.6-7.1,0
						C1804.3-49.3,1804.3-46.6,1806.3-45z"/>
					<path class="st28" d="M1779.2-22.2c2,1.6,5.1,1.6,7.1,0c2-1.6,1.9-4.3,0-6c-1.9-1.6-5.1-1.6-7.1,0
						C1777.3-26.5,1777.3-23.8,1779.2-22.2z"/>
					<path class="st28" d="M1752.2,0.7c1.9,1.6,5.1,1.6,7.1,0c2-1.6,2-4.3,0-6c-1.9-1.6-5.1-1.6-7.1,0
						C1750.2-3.6,1750.2-1,1752.2,0.7z"/>
					<path class="st28" d="M1725.1,23.5c1.9,1.6,5.1,1.6,7.1,0c2-1.6,2-4.3,0-6c-1.9-1.6-5.1-1.6-7.1,0
						C1723.2,19.2,1723.1,21.9,1725.1,23.5z"/>
					<path class="st28" d="M1698,46.3c1.9,1.6,5.1,1.6,7.1,0c1.9-1.6,1.9-4.3,0-6c-1.9-1.6-5.1-1.6-7.1,0
						C1696.1,42,1696.1,44.7,1698,46.3z"/>
					<path class="st28" d="M1671,69.2c1.9,1.6,5.1,1.6,7.1,0c1.9-1.6,1.9-4.3,0-6c-2-1.6-5.1-1.6-7.1,0
						C1669,64.9,1669,67.5,1671,69.2z"/>
				</g>
				<g>
					<path class="st28" d="M1968.6-136.3c2,1.6,5.1,1.6,7.1,0c1.9-1.6,1.9-4.3,0-6c-2-1.6-5.1-1.6-7.1,0
						C1966.7-140.6,1966.7-138,1968.6-136.3z"/>
					<path class="st28" d="M1941.6-113.5c1.9,1.6,5.1,1.6,7.1,0c2-1.6,2-4.3,0-6c-1.9-1.6-5.1-1.6-7.1,0
						C1939.6-117.8,1939.6-115.1,1941.6-113.5z"/>
					<path class="st28" d="M1914.5-90.6c1.9,1.6,5.1,1.6,7.1,0c1.9-1.6,1.9-4.3,0-6c-2-1.6-5.1-1.6-7.1,0
						C1912.6-95,1912.6-92.3,1914.5-90.6z"/>
					<path class="st28" d="M1887.5-67.8c1.9,1.6,5.1,1.6,7.1,0c1.9-1.6,1.9-4.3,0-6c-2-1.6-5.1-1.6-7.1,0
						C1885.5-72.1,1885.5-69.5,1887.5-67.8z"/>
					<path class="st28" d="M1860.4-45c1.9,1.6,5.1,1.6,7.1,0c1.9-1.6,1.9-4.3,0-6s-5.1-1.6-7.1,0C1858.4-49.3,1858.4-46.6,1860.4-45
						z"/>
					<path class="st28" d="M1833.3-22.2c1.9,1.6,5.1,1.6,7.1,0c1.9-1.6,1.9-4.3,0-6c-1.9-1.6-5.1-1.6-7.1,0
						C1831.4-26.5,1831.4-23.8,1833.3-22.2z"/>
					<path class="st28" d="M1806.3,0.7c1.9,1.6,5.1,1.6,7.1,0c1.9-1.6,1.9-4.3,0-6c-2-1.6-5.1-1.6-7.1,0
						C1804.3-3.6,1804.3-1,1806.3,0.7z"/>
					<path class="st28" d="M1779.2,23.5c2,1.6,5.1,1.6,7.1,0c1.9-1.6,2-4.3,0-6c-1.9-1.6-5.1-1.6-7.1,0
						C1777.3,19.2,1777.3,21.9,1779.2,23.5z"/>
					<path class="st28" d="M1752.2,46.3c1.9,1.6,5.1,1.6,7.1,0c2-1.6,2-4.3,0-6c-1.9-1.6-5.1-1.6-7.1,0
						C1750.2,42,1750.2,44.7,1752.2,46.3z"/>
					<path class="st28" d="M1725.1,69.2c1.9,1.6,5.1,1.6,7.1,0c1.9-1.6,1.9-4.3,0-6c-2-1.6-5.1-1.6-7.1,0
						C1723.2,64.9,1723.1,67.5,1725.1,69.2z"/>
					<path class="st28" d="M1698,92c1.9,1.6,5.1,1.6,7.1,0c2-1.6,2-4.3,0-6c-1.9-1.6-5.1-1.6-7.1,0C1696.1,87.7,1696.1,90.4,1698,92
						z"/>
				</g>
				<g>
					<path class="st28" d="M1995.7-113.5c1.9,1.6,5.1,1.6,7.1,0c1.9-1.6,1.9-4.3,0-6c-1.9-1.6-5.1-1.6-7.1,0
						C1993.7-117.8,1993.7-115.1,1995.7-113.5z"/>
					<path class="st28" d="M1968.6-90.6c2,1.6,5.1,1.6,7.1,0c1.9-1.6,1.9-4.3,0-6c-2-1.6-5.1-1.6-7.1,0
						C1966.7-95,1966.7-92.3,1968.6-90.6z"/>
					<path class="st28" d="M1941.6-67.8c2,1.6,5.1,1.6,7.1,0c2-1.6,2-4.3,0-6c-1.9-1.6-5.1-1.6-7.1,0
						C1939.6-72.1,1939.6-69.5,1941.6-67.8z"/>
					<path class="st28" d="M1914.5-45c1.9,1.6,5.1,1.6,7.1,0c1.9-1.6,1.9-4.3,0-6c-1.9-1.6-5.1-1.6-7.1,0
						C1912.6-49.3,1912.6-46.6,1914.5-45z"/>
					<path class="st28" d="M1887.5-22.2c1.9,1.6,5.1,1.6,7.1,0c1.9-1.6,1.9-4.3,0-6c-1.9-1.6-5.1-1.6-7.1,0
						C1885.5-26.5,1885.5-23.8,1887.5-22.2z"/>
					<path class="st28" d="M1860.4,0.7c1.9,1.6,5.1,1.6,7.1,0c1.9-1.6,1.9-4.3,0-6c-2-1.6-5.1-1.6-7.1,0
						C1858.4-3.6,1858.4-1,1860.4,0.7z"/>
					<path class="st28" d="M1833.3,23.5c1.9,1.6,5.1,1.6,7.1,0c1.9-1.6,1.9-4.3,0-6c-2-1.6-5.1-1.6-7.1,0
						C1831.4,19.2,1831.4,21.9,1833.3,23.5z"/>
					<path class="st28" d="M1806.3,46.3c1.9,1.6,5.1,1.6,7.1,0c1.9-1.6,1.9-4.3,0-6c-2-1.6-5.1-1.6-7.1,0
						C1804.3,42,1804.3,44.7,1806.3,46.3z"/>
					<path class="st28" d="M1779.2,69.2c1.9,1.6,5.1,1.6,7.1,0c2-1.6,2-4.3,0-6c-1.9-1.6-5.1-1.6-7.1,0
						C1777.3,64.9,1777.3,67.5,1779.2,69.2z"/>
					<path class="st28" d="M1752.2,92c1.9,1.6,5.1,1.6,7.1,0c2-1.6,2-4.3,0-6c-1.9-1.6-5.1-1.6-7.1,0
						C1750.2,87.7,1750.2,90.4,1752.2,92z"/>
					<path class="st28" d="M1725.1,114.8c1.9,1.6,5.1,1.6,7.1,0c2-1.6,1.9-4.3,0-6c-2-1.6-5.1-1.6-7.1,0
						C1723.2,110.5,1723.1,113.2,1725.1,114.8z"/>
				</g>
				<g>
					<path class="st28" d="M2022.8-90.6c1.9,1.6,5.1,1.6,7.1,0c1.9-1.6,1.9-4.3,0-6c-1.9-1.6-5.1-1.6-7.1,0
						C2020.8-95,2020.8-92.3,2022.8-90.6z"/>
					<path class="st28" d="M1995.7-67.8c1.9,1.6,5.1,1.6,7.1,0c1.9-1.6,1.9-4.3,0-6c-1.9-1.6-5.1-1.6-7.1,0
						C1993.7-72.1,1993.7-69.5,1995.7-67.8z"/>
					<path class="st28" d="M1968.6-45c2,1.6,5.1,1.6,7.1,0c1.9-1.6,1.9-4.3,0-6c-2-1.6-5.1-1.6-7.1,0
						C1966.7-49.3,1966.7-46.6,1968.6-45z"/>
					<path class="st28" d="M1941.6-22.2c2,1.6,5.1,1.6,7.1,0c2-1.6,2-4.3,0-6c-1.9-1.6-5.1-1.6-7.1,0
						C1939.6-26.5,1939.6-23.8,1941.6-22.2z"/>
					<path class="st28" d="M1914.5,0.7c1.9,1.6,5.1,1.6,7.1,0c1.9-1.6,1.9-4.3,0-6c-1.9-1.6-5.1-1.6-7.1,0
						C1912.6-3.6,1912.6-1,1914.5,0.7z"/>
					<path class="st28" d="M1887.5,23.5c1.9,1.6,5.1,1.6,7.1,0c1.9-1.6,1.9-4.3,0-6c-1.9-1.6-5.1-1.6-7.1,0
						C1885.5,19.2,1885.5,21.9,1887.5,23.5z"/>
					<path class="st28" d="M1860.4,46.3c1.9,1.6,5.1,1.6,7.1,0c1.9-1.6,1.9-4.3,0-6c-1.9-1.6-5.1-1.6-7.1,0
						C1858.4,42,1858.4,44.7,1860.4,46.3z"/>
					<path class="st28" d="M1833.3,69.2c1.9,1.6,5.1,1.6,7.1,0c1.9-1.6,1.9-4.3,0-6c-1.9-1.6-5.1-1.6-7.1,0
						C1831.4,64.9,1831.4,67.5,1833.3,69.2z"/>
					<path class="st28" d="M1806.3,92c1.9,1.6,5.1,1.6,7.1,0c1.9-1.6,1.9-4.3,0-6c-1.9-1.6-5.1-1.6-7.1,0
						C1804.3,87.7,1804.3,90.4,1806.3,92z"/>
					<path class="st28" d="M1779.2,114.8c1.9,1.6,5.1,1.6,7.1,0c1.9-1.6,1.9-4.3,0-6c-1.9-1.6-5.1-1.6-7.1,0
						C1777.3,110.5,1777.3,113.2,1779.2,114.8z"/>
					<path class="st28" d="M1752.2,137.7c1.9,1.6,5.1,1.6,7.1,0c2-1.6,2-4.3,0-6c-1.9-1.6-5.1-1.6-7.1,0
						C1750.2,133.4,1750.2,136,1752.2,137.7z"/>
				</g>
				<g>
					<path class="st28" d="M2049.8-67.8c1.9,1.6,5.1,1.6,7.1,0c2-1.6,2-4.3,0-6c-1.9-1.6-5.1-1.6-7.1,0
						C2047.9-72.1,2047.9-69.5,2049.8-67.8z"/>
					<path class="st28" d="M2022.8-45c1.9,1.6,5.1,1.6,7.1,0c1.9-1.6,1.9-4.3,0-6c-1.9-1.6-5.1-1.6-7.1,0
						C2020.8-49.3,2020.8-46.6,2022.8-45z"/>
					<path class="st28" d="M1995.7-22.2c1.9,1.6,5.1,1.6,7.1,0c1.9-1.6,1.9-4.3,0-6c-1.9-1.6-5.1-1.6-7.1,0
						C1993.8-26.5,1993.7-23.8,1995.7-22.2z"/>
					<path class="st28" d="M1968.6,0.7c2,1.6,5.1,1.6,7.1,0c1.9-1.6,1.9-4.3,0-6c-2-1.6-5.1-1.6-7.1,0
						C1966.7-3.6,1966.7-1,1968.6,0.7z"/>
					<path class="st28" d="M1941.6,23.5c1.9,1.6,5.1,1.6,7.1,0c2-1.6,2-4.3,0-6c-1.9-1.6-5.1-1.6-7.1,0
						C1939.6,19.2,1939.6,21.9,1941.6,23.5z"/>
					<path class="st28" d="M1914.5,46.3c1.9,1.6,5.1,1.6,7.1,0c1.9-1.6,1.9-4.3,0-6c-1.9-1.6-5.1-1.6-7.1,0
						C1912.6,42,1912.6,44.7,1914.5,46.3z"/>
					<path class="st28" d="M1887.5,69.2c1.9,1.6,5.1,1.6,7.1,0c1.9-1.6,1.9-4.3,0-6c-1.9-1.6-5.1-1.6-7.1,0
						C1885.5,64.9,1885.5,67.5,1887.5,69.2z"/>
					<path class="st28" d="M1860.4,92c1.9,1.6,5.1,1.6,7.1,0c1.9-1.6,1.9-4.3,0-6c-1.9-1.6-5.1-1.6-7.1,0
						C1858.4,87.7,1858.4,90.4,1860.4,92z"/>
					<path class="st28" d="M1833.3,114.8c1.9,1.6,5.1,1.6,7.1,0c1.9-1.6,1.9-4.3,0-6c-1.9-1.6-5.1-1.6-7.1,0
						C1831.4,110.5,1831.4,113.2,1833.3,114.8z"/>
					<path class="st28" d="M1806.3,137.7c1.9,1.6,5.1,1.6,7.1,0c1.9-1.6,1.9-4.3,0-6c-2-1.6-5.1-1.6-7.1,0
						C1804.3,133.4,1804.3,136,1806.3,137.7z"/>
					<path class="st28" d="M1779.2,160.5c1.9,1.6,5.1,1.6,7.1,0c2-1.6,1.9-4.3,0-6c-1.9-1.6-5.1-1.6-7.1,0
						C1777.3,156.2,1777.3,158.9,1779.2,160.5z"/>
				</g>
			</g>
			<g style="clip-path:url(#SVGID_00000171000168243841549100000008360320572166288279_);">
				<g>
					<path class="st29" d="M309.7-292.6c2.2,1.9,5.8,1.9,8,0c2.2-1.9,2.2-4.9,0-6.8c-2.2-1.9-5.8-1.9-8,0
						C307.4-297.5,307.4-294.5,309.7-292.6z"/>
					<path class="st29" d="M278.9-266.7c2.2,1.9,5.8,1.9,8,0c2.2-1.9,2.2-4.9,0-6.8c-2.2-1.9-5.8-1.9-8,0
						C276.7-271.6,276.7-268.6,278.9-266.7z"/>
					<path class="st29" d="M248.2-240.8c2.2,1.9,5.8,1.9,8,0c2.2-1.9,2.2-4.9,0-6.8c-2.2-1.9-5.8-1.9-8,0
						C246-245.7,246-242.7,248.2-240.8z"/>
					<path class="st29" d="M217.5-214.9c2.2,1.9,5.8,1.9,8,0c2.2-1.9,2.2-4.9,0-6.8c-2.2-1.9-5.8-1.9-8,0
						C215.3-219.8,215.3-216.8,217.5-214.9z"/>
					<path class="st29" d="M186.8-189c2.2,1.9,5.8,1.9,8,0c2.2-1.9,2.2-4.9,0-6.8c-2.2-1.9-5.8-1.9-8,0
						C184.6-193.9,184.6-190.9,186.8-189z"/>
					<path class="st29" d="M156.1-163.1c2.2,1.9,5.8,1.9,8,0c2.2-1.9,2.2-4.9,0-6.8c-2.2-1.9-5.8-1.9-8,0
						C153.9-168,153.9-164.9,156.1-163.1z"/>
					<path class="st29" d="M125.4-137.2c2.2,1.9,5.8,1.9,8,0c2.2-1.9,2.2-4.9,0-6.8c-2.2-1.9-5.8-1.9-8,0
						C123.2-142.1,123.2-139,125.4-137.2z"/>
					<path class="st29" d="M94.7-111.3c2.2,1.9,5.8,1.9,8,0c2.2-1.9,2.2-4.9,0-6.8c-2.2-1.9-5.8-1.9-8,0
						C92.5-116.2,92.5-113.1,94.7-111.3z"/>
					<path class="st29" d="M64-85.4c2.2,1.9,5.8,1.9,8,0c2.2-1.9,2.2-4.9,0-6.8c-2.2-1.9-5.8-1.9-8,0C61.8-90.2,61.8-87.2,64-85.4z"
						/>
					<path class="st29" d="M33.3-59.4c2.2,1.9,5.8,1.9,8,0c2.2-1.9,2.2-4.9,0-6.8c-2.2-1.9-5.8-1.9-8,0
						C31.1-64.3,31.1-61.3,33.3-59.4z"/>
					<path class="st29" d="M2.6-33.5c2.2,1.9,5.8,1.9,8,0c2.2-1.9,2.2-4.9,0-6.8c-2.2-1.9-5.8-1.9-8,0C0.4-38.4,0.4-35.4,2.6-33.5z"
						/>
				</g>
				<g>
					<path class="st29" d="M340.4-266.7c2.2,1.9,5.8,1.9,8,0c2.2-1.9,2.2-4.9,0-6.8c-2.2-1.9-5.8-1.9-8,0
						C338.2-271.6,338.2-268.6,340.4-266.7z"/>
					<path class="st29" d="M309.7-240.8c2.2,1.9,5.8,1.9,8,0c2.2-1.9,2.2-4.9,0-6.8c-2.2-1.9-5.8-1.9-8,0
						C307.4-245.7,307.4-242.7,309.7-240.8z"/>
					<path class="st29" d="M278.9-214.9c2.2,1.9,5.8,1.9,8,0c2.2-1.9,2.2-4.9,0-6.8c-2.2-1.9-5.8-1.9-8,0
						C276.7-219.8,276.7-216.8,278.9-214.9z"/>
					<path class="st29" d="M248.2-189c2.2,1.9,5.8,1.9,8,0c2.2-1.9,2.2-4.9,0-6.8c-2.2-1.9-5.8-1.9-8,0
						C246-193.9,246-190.9,248.2-189z"/>
					<path class="st29" d="M217.5-163.1c2.2,1.9,5.8,1.9,8,0c2.2-1.9,2.2-4.9,0-6.8c-2.2-1.9-5.8-1.9-8,0
						C215.3-168,215.3-164.9,217.5-163.1z"/>
					<path class="st29" d="M186.8-137.2c2.2,1.9,5.8,1.9,8,0c2.2-1.9,2.2-4.9,0-6.8c-2.2-1.9-5.8-1.9-8,0
						C184.6-142.1,184.6-139,186.8-137.2z"/>
					<path class="st29" d="M156.1-111.3c2.2,1.9,5.8,1.9,8,0c2.2-1.9,2.2-4.9,0-6.8c-2.2-1.9-5.8-1.9-8,0
						C153.9-116.2,153.9-113.1,156.1-111.3z"/>
					<path class="st29" d="M125.4-85.4c2.2,1.9,5.8,1.9,8,0c2.2-1.9,2.2-4.9,0-6.8c-2.2-1.9-5.8-1.9-8,0
						C123.2-90.2,123.2-87.2,125.4-85.4z"/>
					<path class="st29" d="M94.7-59.4c2.2,1.9,5.8,1.9,8,0c2.2-1.9,2.2-4.9,0-6.8c-2.2-1.9-5.8-1.9-8,0
						C92.5-64.3,92.5-61.3,94.7-59.4z"/>
					<path class="st29" d="M64-33.5c2.2,1.9,5.8,1.9,8,0c2.2-1.9,2.2-4.9,0-6.8c-2.2-1.9-5.8-1.9-8,0C61.8-38.4,61.8-35.4,64-33.5z"
						/>
					<path class="st29" d="M33.3-7.6c2.2,1.9,5.8,1.9,8,0c2.2-1.9,2.2-4.9,0-6.8c-2.2-1.9-5.8-1.9-8,0C31.1-12.5,31.1-9.5,33.3-7.6z
						"/>
				</g>
				<g>
					<path class="st29" d="M371.1-240.8c2.2,1.9,5.8,1.9,8,0c2.2-1.9,2.2-4.9,0-6.8c-2.2-1.9-5.8-1.9-8,0
						C368.9-245.7,368.9-242.7,371.1-240.8z"/>
					<path class="st29" d="M340.4-214.9c2.2,1.9,5.8,1.9,8,0c2.2-1.9,2.2-4.9,0-6.8c-2.2-1.9-5.8-1.9-8,0
						C338.2-219.8,338.2-216.8,340.4-214.9z"/>
					<path class="st29" d="M309.7-189c2.2,1.9,5.8,1.9,8,0c2.2-1.9,2.2-4.9,0-6.8c-2.2-1.9-5.8-1.9-8,0
						C307.4-193.9,307.4-190.9,309.7-189z"/>
					<path class="st29" d="M278.9-163.1c2.2,1.9,5.8,1.9,8,0c2.2-1.9,2.2-4.9,0-6.8c-2.2-1.9-5.8-1.9-8,0
						C276.7-168,276.7-164.9,278.9-163.1z"/>
					<path class="st29" d="M248.2-137.2c2.2,1.9,5.8,1.9,8,0c2.2-1.9,2.2-4.9,0-6.8c-2.2-1.9-5.8-1.9-8,0
						C246-142.1,246-139,248.2-137.2z"/>
					<path class="st29" d="M217.5-111.3c2.2,1.9,5.8,1.9,8,0c2.2-1.9,2.2-4.9,0-6.8c-2.2-1.9-5.8-1.9-8,0
						C215.3-116.2,215.3-113.1,217.5-111.3z"/>
					<path class="st29" d="M186.8-85.4c2.2,1.9,5.8,1.9,8,0c2.2-1.9,2.2-4.9,0-6.8c-2.2-1.9-5.8-1.9-8,0
						C184.6-90.2,184.6-87.2,186.8-85.4z"/>
					<path class="st29" d="M156.1-59.4c2.2,1.9,5.8,1.9,8,0c2.2-1.9,2.2-4.9,0-6.8c-2.2-1.9-5.8-1.9-8,0
						C153.9-64.3,153.9-61.3,156.1-59.4z"/>
					<path class="st29" d="M125.4-33.5c2.2,1.9,5.8,1.9,8,0c2.2-1.9,2.2-4.9,0-6.8c-2.2-1.9-5.8-1.9-8,0
						C123.2-38.4,123.2-35.4,125.4-33.5z"/>
					<path class="st29" d="M94.7-7.6c2.2,1.9,5.8,1.9,8,0c2.2-1.9,2.2-4.9,0-6.8c-2.2-1.9-5.8-1.9-8,0C92.5-12.5,92.5-9.5,94.7-7.6z
						"/>
					<path class="st29" d="M64,18.3c2.2,1.9,5.8,1.9,8,0c2.2-1.9,2.2-4.9,0-6.8c-2.2-1.9-5.8-1.9-8,0C61.8,13.4,61.8,16.4,64,18.3z"
						/>
				</g>
				<g>
					<path class="st29" d="M401.8-214.9c2.2,1.9,5.8,1.9,8,0c2.2-1.9,2.2-4.9,0-6.8c-2.2-1.9-5.8-1.9-8,0
						C399.6-219.8,399.6-216.8,401.8-214.9z"/>
					<path class="st29" d="M371.1-189c2.2,1.9,5.8,1.9,8,0c2.2-1.9,2.2-4.9,0-6.8c-2.2-1.9-5.8-1.9-8,0
						C368.9-193.9,368.9-190.9,371.1-189z"/>
					<path class="st29" d="M340.4-163.1c2.2,1.9,5.8,1.9,8,0c2.2-1.9,2.2-4.9,0-6.8c-2.2-1.9-5.8-1.9-8,0
						C338.2-168,338.2-164.9,340.4-163.1z"/>
					<path class="st29" d="M309.7-137.2c2.2,1.9,5.8,1.9,8,0c2.2-1.9,2.2-4.9,0-6.8c-2.2-1.9-5.8-1.9-8,0
						C307.4-142.1,307.4-139,309.7-137.2z"/>
					<path class="st29" d="M279-111.3c2.2,1.9,5.8,1.9,8,0c2.2-1.9,2.2-4.9,0-6.8c-2.2-1.9-5.8-1.9-8,0
						C276.7-116.2,276.7-113.1,279-111.3z"/>
					<path class="st29" d="M248.2-85.4c2.2,1.9,5.8,1.9,8,0c2.2-1.9,2.2-4.9,0-6.8c-2.2-1.9-5.8-1.9-8,0
						C246-90.2,246-87.2,248.2-85.4z"/>
					<path class="st29" d="M217.5-59.4c2.2,1.9,5.8,1.9,8,0c2.2-1.9,2.2-4.9,0-6.8c-2.2-1.9-5.8-1.9-8,0
						C215.3-64.3,215.3-61.3,217.5-59.4z"/>
					<path class="st29" d="M186.8-33.5c2.2,1.9,5.8,1.9,8,0c2.2-1.9,2.2-4.9,0-6.8c-2.2-1.9-5.8-1.9-8,0
						C184.6-38.4,184.6-35.4,186.8-33.5z"/>
					<path class="st29" d="M156.1-7.6c2.2,1.9,5.8,1.9,8,0c2.2-1.9,2.2-4.9,0-6.8c-2.2-1.9-5.8-1.9-8,0
						C153.9-12.5,153.9-9.5,156.1-7.6z"/>
					<path class="st29" d="M125.4,18.3c2.2,1.9,5.8,1.9,8,0c2.2-1.9,2.2-4.9,0-6.8s-5.8-1.9-8,0C123.2,13.4,123.2,16.4,125.4,18.3z"
						/>
					<path class="st29" d="M94.7,44.2c2.2,1.9,5.8,1.9,8,0c2.2-1.9,2.2-4.9,0-6.8c-2.2-1.9-5.8-1.9-8,0
						C92.5,39.3,92.5,42.3,94.7,44.2z"/>
				</g>
				<g>
					<path class="st29" d="M432.5-189c2.2,1.9,5.8,1.9,8,0c2.2-1.9,2.2-4.9,0-6.8c-2.2-1.9-5.8-1.9-8,0
						C430.3-193.9,430.3-190.9,432.5-189z"/>
					<path class="st29" d="M401.8-163.1c2.2,1.9,5.8,1.9,8,0c2.2-1.9,2.2-4.9,0-6.8c-2.2-1.9-5.8-1.9-8,0
						C399.6-168,399.6-164.9,401.8-163.1z"/>
					<path class="st29" d="M371.1-137.2c2.2,1.9,5.8,1.9,8,0c2.2-1.9,2.2-4.9,0-6.8c-2.2-1.9-5.8-1.9-8,0
						C368.9-142.1,368.9-139,371.1-137.2z"/>
					<path class="st29" d="M340.4-111.3c2.2,1.9,5.8,1.9,8,0c2.2-1.9,2.2-4.9,0-6.8c-2.2-1.9-5.8-1.9-8,0
						C338.2-116.2,338.2-113.1,340.4-111.3z"/>
					<path class="st29" d="M309.7-85.4c2.2,1.9,5.8,1.9,8,0c2.2-1.9,2.2-4.9,0-6.8c-2.2-1.9-5.8-1.9-8,0
						C307.4-90.2,307.4-87.2,309.7-85.4z"/>
					<path class="st29" d="M278.9-59.4c2.2,1.9,5.8,1.9,8,0c2.2-1.9,2.2-4.9,0-6.8c-2.2-1.9-5.8-1.9-8,0
						C276.7-64.3,276.7-61.3,278.9-59.4z"/>
					<path class="st29" d="M248.2-33.5c2.2,1.9,5.8,1.9,8,0c2.2-1.9,2.2-4.9,0-6.8c-2.2-1.9-5.8-1.9-8,0
						C246-38.4,246-35.4,248.2-33.5z"/>
					<path class="st29" d="M217.5-7.6c2.2,1.9,5.8,1.9,8,0c2.2-1.9,2.2-4.9,0-6.8c-2.2-1.9-5.8-1.9-8,0
						C215.3-12.5,215.3-9.5,217.5-7.6z"/>
					<path class="st29" d="M186.8,18.3c2.2,1.9,5.8,1.9,8,0c2.2-1.9,2.2-4.9,0-6.8c-2.2-1.9-5.8-1.9-8,0
						C184.6,13.4,184.6,16.4,186.8,18.3z"/>
					<path class="st29" d="M156.1,44.2c2.2,1.9,5.8,1.9,8,0c2.2-1.9,2.2-4.9,0-6.8c-2.2-1.9-5.8-1.9-8,0
						C153.9,39.3,153.9,42.3,156.1,44.2z"/>
					<path class="st29" d="M125.4,70.1c2.2,1.9,5.8,1.9,8,0c2.2-1.9,2.2-4.9,0-6.8c-2.2-1.9-5.8-1.9-8,0
						C123.2,65.2,123.2,68.2,125.4,70.1z"/>
				</g>
				<g>
					<ellipse class="st29" cx="467.2" cy="-166.5" rx="5.7" ry="4.8"/>
					<path class="st29" d="M432.5-137.2c2.2,1.9,5.8,1.9,8,0c2.2-1.9,2.2-4.9,0-6.8c-2.2-1.9-5.8-1.9-8,0
						C430.3-142.1,430.3-139,432.5-137.2z"/>
					<path class="st29" d="M401.8-111.3c2.2,1.9,5.8,1.9,8,0c2.2-1.9,2.2-4.9,0-6.8c-2.2-1.9-5.8-1.9-8,0
						C399.6-116.2,399.6-113.1,401.8-111.3z"/>
					<path class="st29" d="M371.1-85.4c2.2,1.9,5.8,1.9,8,0c2.2-1.9,2.2-4.9,0-6.8c-2.2-1.9-5.8-1.9-8,0
						C368.9-90.2,368.9-87.2,371.1-85.4z"/>
					<path class="st29" d="M340.4-59.4c2.2,1.9,5.8,1.9,8,0c2.2-1.9,2.2-4.9,0-6.8c-2.2-1.9-5.8-1.9-8,0
						C338.2-64.3,338.2-61.3,340.4-59.4z"/>
					<path class="st29" d="M309.7-33.5c2.2,1.9,5.8,1.9,8,0c2.2-1.9,2.2-4.9,0-6.8c-2.2-1.9-5.8-1.9-8,0
						C307.4-38.4,307.4-35.4,309.7-33.5z"/>
					<path class="st29" d="M278.9-7.6c2.2,1.9,5.8,1.9,8,0c2.2-1.9,2.2-4.9,0-6.8c-2.2-1.9-5.8-1.9-8,0
						C276.7-12.5,276.7-9.5,278.9-7.6z"/>
					<path class="st29" d="M248.2,18.3c2.2,1.9,5.8,1.9,8,0c2.2-1.9,2.2-4.9,0-6.8c-2.2-1.9-5.8-1.9-8,0
						C246,13.4,246,16.4,248.2,18.3z"/>
					<path class="st29" d="M217.5,44.2c2.2,1.9,5.8,1.9,8,0c2.2-1.9,2.2-4.9,0-6.8c-2.2-1.9-5.8-1.9-8,0
						C215.3,39.3,215.3,42.3,217.5,44.2z"/>
					<path class="st29" d="M186.8,70.1c2.2,1.9,5.8,1.9,8,0c2.2-1.9,2.2-4.9,0-6.8c-2.2-1.9-5.8-1.9-8,0
						C184.6,65.2,184.6,68.2,186.8,70.1z"/>
					<path class="st29" d="M156.1,96c2.2,1.9,5.8,1.9,8,0c2.2-1.9,2.2-4.9,0-6.8c-2.2-1.9-5.8-1.9-8,0
						C153.9,91.1,153.9,94.2,156.1,96z"/>
				</g>
				<g>
					<path class="st29" d="M493.9-137.2c2.2,1.9,5.8,1.9,8,0c2.2-1.9,2.2-4.9,0-6.8c-2.2-1.9-5.8-1.9-8,0
						C491.7-142.1,491.7-139,493.9-137.2z"/>
					<path class="st29" d="M463.2-111.3c2.2,1.9,5.8,1.9,8,0c2.2-1.9,2.2-4.9,0-6.8c-2.2-1.9-5.8-1.9-8,0
						C461-116.2,461-113.1,463.2-111.3z"/>
					<path class="st29" d="M432.5-85.4c2.2,1.9,5.8,1.9,8,0c2.2-1.9,2.2-4.9,0-6.8c-2.2-1.9-5.8-1.9-8,0
						C430.3-90.2,430.3-87.2,432.5-85.4z"/>
					<path class="st29" d="M401.8-59.4c2.2,1.9,5.8,1.9,8,0c2.2-1.9,2.2-4.9,0-6.8c-2.2-1.9-5.8-1.9-8,0
						C399.6-64.3,399.6-61.3,401.8-59.4z"/>
					<path class="st29" d="M371.1-33.5c2.2,1.9,5.8,1.9,8,0c2.2-1.9,2.2-4.9,0-6.8c-2.2-1.9-5.8-1.9-8,0
						C368.9-38.4,368.9-35.4,371.1-33.5z"/>
					<ellipse class="st29" cx="344.4" cy="-11" rx="5.7" ry="4.8"/>
					<path class="st29" d="M309.7,18.3c2.2,1.9,5.8,1.9,8,0c2.2-1.9,2.2-4.9,0-6.8c-2.2-1.9-5.8-1.9-8,0
						C307.4,13.4,307.4,16.4,309.7,18.3z"/>
					<path class="st29" d="M279,44.2c2.2,1.9,5.8,1.9,8,0c2.2-1.9,2.2-4.9,0-6.8c-2.2-1.9-5.8-1.9-8,0
						C276.7,39.3,276.7,42.3,279,44.2z"/>
					<path class="st29" d="M248.2,70.1c2.2,1.9,5.8,1.9,8,0c2.2-1.9,2.2-4.9,0-6.8c-2.2-1.9-5.8-1.9-8,0
						C246,65.2,246,68.2,248.2,70.1z"/>
					<path class="st29" d="M217.5,96c2.2,1.9,5.8,1.9,8,0c2.2-1.9,2.2-4.9,0-6.8c-2.2-1.9-5.8-1.9-8,0
						C215.3,91.1,215.3,94.2,217.5,96z"/>
					<ellipse class="st29" cx="190.8" cy="118.5" rx="5.7" ry="4.8"/>
				</g>
				<g>
					<path class="st29" d="M524.6-111.3c2.2,1.9,5.8,1.9,8,0c2.2-1.9,2.2-4.9,0-6.8c-2.2-1.9-5.8-1.9-8,0
						C522.4-116.2,522.4-113.1,524.6-111.3z"/>
					<path class="st29" d="M493.9-85.4c2.2,1.9,5.8,1.9,8,0c2.2-1.9,2.2-4.9,0-6.8c-2.2-1.9-5.8-1.9-8,0
						C491.7-90.2,491.7-87.2,493.9-85.4z"/>
					<path class="st29" d="M463.2-59.4c2.2,1.9,5.8,1.9,8,0c2.2-1.9,2.2-4.9,0-6.8c-2.2-1.9-5.8-1.9-8,0
						C461-64.3,461-61.3,463.2-59.4z"/>
					<path class="st29" d="M432.5-33.5c2.2,1.9,5.8,1.9,8,0c2.2-1.9,2.2-4.9,0-6.8c-2.2-1.9-5.8-1.9-8,0
						C430.3-38.4,430.3-35.4,432.5-33.5z"/>
					<path class="st29" d="M401.8-7.6c2.2,1.9,5.8,1.9,8,0c2.2-1.9,2.2-4.9,0-6.8c-2.2-1.9-5.8-1.9-8,0
						C399.6-12.5,399.6-9.5,401.8-7.6z"/>
					<path class="st29" d="M371.1,18.3c2.2,1.9,5.8,1.9,8,0c2.2-1.9,2.2-4.9,0-6.8c-2.2-1.9-5.8-1.9-8,0
						C368.9,13.4,368.9,16.4,371.1,18.3z"/>
					<path class="st29" d="M340.4,44.2c2.2,1.9,5.8,1.9,8,0c2.2-1.9,2.2-4.9,0-6.8c-2.2-1.9-5.8-1.9-8,0
						C338.2,39.3,338.2,42.3,340.4,44.2z"/>
					<path class="st29" d="M309.7,70.1c2.2,1.9,5.8,1.9,8,0c2.2-1.9,2.2-4.9,0-6.8c-2.2-1.9-5.8-1.9-8,0
						C307.4,65.2,307.4,68.2,309.7,70.1z"/>
					<path class="st29" d="M278.9,96c2.2,1.9,5.8,1.9,8,0c2.2-1.9,2.2-4.9,0-6.8c-2.2-1.9-5.8-1.9-8,0
						C276.7,91.1,276.7,94.2,278.9,96z"/>
					<path class="st29" d="M248.2,121.9c2.2,1.9,5.8,1.9,8,0c2.2-1.9,2.2-4.9,0-6.8c-2.2-1.9-5.8-1.9-8,0
						C246,117,246,120.1,248.2,121.9z"/>
					<path class="st29" d="M217.5,147.8c2.2,1.9,5.8,1.9,8,0c2.2-1.9,2.2-4.9,0-6.8c-2.2-1.9-5.8-1.9-8,0
						C215.3,142.9,215.3,146,217.5,147.8z"/>
				</g>
				<g>
					<path class="st29" d="M555.3-85.4c2.2,1.9,5.8,1.9,8,0c2.2-1.9,2.2-4.9,0-6.8c-2.2-1.9-5.8-1.9-8,0
						C553.1-90.2,553.1-87.2,555.3-85.4z"/>
					<path class="st29" d="M524.6-59.4c2.2,1.9,5.8,1.9,8,0c2.2-1.9,2.2-4.9,0-6.8c-2.2-1.9-5.8-1.9-8,0
						C522.4-64.3,522.4-61.3,524.6-59.4z"/>
					<path class="st29" d="M493.9-33.5c2.2,1.9,5.8,1.9,8,0c2.2-1.9,2.2-4.9,0-6.8c-2.2-1.9-5.8-1.9-8,0
						C491.7-38.4,491.7-35.4,493.9-33.5z"/>
					<path class="st29" d="M463.2-7.6c2.2,1.9,5.8,1.9,8,0c2.2-1.9,2.2-4.9,0-6.8c-2.2-1.9-5.8-1.9-8,0C461-12.5,461-9.5,463.2-7.6z
						"/>
					<path class="st29" d="M432.5,18.3c2.2,1.9,5.8,1.9,8,0c2.2-1.9,2.2-4.9,0-6.8c-2.2-1.9-5.8-1.9-8,0
						C430.3,13.4,430.3,16.4,432.5,18.3z"/>
					<path class="st29" d="M401.8,44.2c2.2,1.9,5.8,1.9,8,0c2.2-1.9,2.2-4.9,0-6.8c-2.2-1.9-5.8-1.9-8,0
						C399.6,39.3,399.6,42.3,401.8,44.2z"/>
					<path class="st29" d="M371.1,70.1c2.2,1.9,5.8,1.9,8,0c2.2-1.9,2.2-4.9,0-6.8c-2.2-1.9-5.8-1.9-8,0
						C368.9,65.2,368.9,68.2,371.1,70.1z"/>
					<ellipse class="st29" cx="344.4" cy="92.6" rx="5.7" ry="4.8"/>
					<path class="st29" d="M309.7,121.9c2.2,1.9,5.8,1.9,8,0c2.2-1.9,2.2-4.9,0-6.8c-2.2-1.9-5.8-1.9-8,0
						C307.4,117,307.4,120.1,309.7,121.9z"/>
					<path class="st29" d="M278.9,147.8c2.2,1.9,5.8,1.9,8,0c2.2-1.9,2.2-4.9,0-6.8c-2.2-1.9-5.8-1.9-8,0
						C276.7,142.9,276.7,146,278.9,147.8z"/>
					<path class="st29" d="M248.2,173.7c2.2,1.9,5.8,1.9,8,0c2.2-1.9,2.2-4.9,0-6.8c-2.2-1.9-5.8-1.9-8,0
						C246,168.9,246,171.9,248.2,173.7z"/>
				</g>
				<g>
					<ellipse class="st29" cx="590" cy="-62.8" rx="5.7" ry="4.8"/>
					<path class="st29" d="M555.3-33.5c2.2,1.9,5.8,1.9,8,0c2.2-1.9,2.2-4.9,0-6.8c-2.2-1.9-5.8-1.9-8,0
						C553.1-38.4,553.1-35.4,555.3-33.5z"/>
					<path class="st29" d="M524.6-7.6c2.2,1.9,5.8,1.9,8,0c2.2-1.9,2.2-4.9,0-6.8c-2.2-1.9-5.8-1.9-8,0
						C522.4-12.5,522.4-9.5,524.6-7.6z"/>
					<path class="st29" d="M493.9,18.3c2.2,1.9,5.8,1.9,8,0c2.2-1.9,2.2-4.9,0-6.8c-2.2-1.9-5.8-1.9-8,0
						C491.7,13.4,491.7,16.4,493.9,18.3z"/>
					<path class="st29" d="M463.2,44.2c2.2,1.9,5.8,1.9,8,0c2.2-1.9,2.2-4.9,0-6.8c-2.2-1.9-5.8-1.9-8,0
						C461,39.3,461,42.3,463.2,44.2z"/>
					<path class="st29" d="M432.5,70.1c2.2,1.9,5.8,1.9,8,0c2.2-1.9,2.2-4.9,0-6.8c-2.2-1.9-5.8-1.9-8,0
						C430.3,65.2,430.3,68.2,432.5,70.1z"/>
					<path class="st29" d="M401.8,96c2.2,1.9,5.8,1.9,8,0c2.2-1.9,2.2-4.9,0-6.8c-2.2-1.9-5.8-1.9-8,0
						C399.6,91.1,399.6,94.2,401.8,96z"/>
					<path class="st29" d="M371.1,121.9c2.2,1.9,5.8,1.9,8,0c2.2-1.9,2.2-4.9,0-6.8c-2.2-1.9-5.8-1.9-8,0
						C368.9,117,368.9,120.1,371.1,121.9z"/>
					<path class="st29" d="M340.4,147.8c2.2,1.9,5.8,1.9,8,0c2.2-1.9,2.2-4.9,0-6.8c-2.2-1.9-5.8-1.9-8,0
						C338.2,142.9,338.2,146,340.4,147.8z"/>
					<path class="st29" d="M309.7,173.7c2.2,1.9,5.8,1.9,8,0c2.2-1.9,2.2-4.9,0-6.8c-2.2-1.9-5.8-1.9-8,0
						C307.4,168.9,307.4,171.9,309.7,173.7z"/>
					<path class="st29" d="M278.9,199.7c2.2,1.9,5.8,1.9,8,0c2.2-1.9,2.2-4.9,0-6.8c-2.2-1.9-5.8-1.9-8,0
						C276.7,194.8,276.7,197.8,278.9,199.7z"/>
				</g>
				<g>
					<path class="st29" d="M616.7-33.5c2.2,1.9,5.8,1.9,8,0c2.2-1.9,2.2-4.9,0-6.8c-2.2-1.9-5.8-1.9-8,0
						C614.5-38.4,614.5-35.4,616.7-33.5z"/>
					<path class="st29" d="M586-7.6c2.2,1.9,5.8,1.9,8,0c2.2-1.9,2.2-4.9,0-6.8c-2.2-1.9-5.8-1.9-8,0C583.8-12.5,583.8-9.5,586-7.6z
						"/>
					<path class="st29" d="M555.3,18.3c2.2,1.9,5.8,1.9,8,0c2.2-1.9,2.2-4.9,0-6.8c-2.2-1.9-5.8-1.9-8,0
						C553.1,13.4,553.1,16.4,555.3,18.3z"/>
					<path class="st29" d="M524.6,44.2c2.2,1.9,5.8,1.9,8,0c2.2-1.9,2.2-4.9,0-6.8c-2.2-1.9-5.8-1.9-8,0
						C522.4,39.3,522.4,42.3,524.6,44.2z"/>
					<path class="st29" d="M493.9,70.1c2.2,1.9,5.8,1.9,8,0c2.2-1.9,2.2-4.9,0-6.8c-2.2-1.9-5.8-1.9-8,0
						C491.7,65.2,491.7,68.2,493.9,70.1z"/>
					<path class="st29" d="M463.2,96c2.2,1.9,5.8,1.9,8,0c2.2-1.9,2.2-4.9,0-6.8c-2.2-1.9-5.8-1.9-8,0C461,91.1,461,94.2,463.2,96z"
						/>
					<path class="st29" d="M432.5,121.9c2.2,1.9,5.8,1.9,8,0c2.2-1.9,2.2-4.9,0-6.8c-2.2-1.9-5.8-1.9-8,0
						C430.3,117,430.3,120.1,432.5,121.9z"/>
					<path class="st29" d="M401.8,147.8c2.2,1.9,5.8,1.9,8,0c2.2-1.9,2.2-4.9,0-6.8c-2.2-1.9-5.8-1.9-8,0
						C399.6,142.9,399.6,146,401.8,147.8z"/>
					<path class="st29" d="M371.1,173.7c2.2,1.9,5.8,1.9,8,0c2.2-1.9,2.2-4.9,0-6.8c-2.2-1.9-5.8-1.9-8,0
						C368.9,168.9,368.9,171.9,371.1,173.7z"/>
					<path class="st29" d="M340.4,199.7c2.2,1.9,5.8,1.9,8,0c2.2-1.9,2.2-4.9,0-6.8c-2.2-1.9-5.8-1.9-8,0
						C338.2,194.8,338.2,197.8,340.4,199.7z"/>
					<path class="st29" d="M309.7,225.6c2.2,1.9,5.8,1.9,8,0c2.2-1.9,2.2-4.9,0-6.8c-2.2-1.9-5.8-1.9-8,0
						C307.4,220.7,307.4,223.7,309.7,225.6z"/>
				</g>
			</g>
			
				<path style="clip-path:url(#SVGID_00000171000168243841549100000008360320572166288279_);fill:none;stroke:#E5D728;stroke-width:1.5;stroke-linecap:round;stroke-miterlimit:10;" d="
				M683,512c0,31.9,30.6,57.7,68.4,57.7c37.8,0,68.4-25.9,68.4-57.7s-30.6-57.7-68.4-57.7"/>
			<g style="clip-path:url(#SVGID_00000171000168243841549100000008360320572166288279_);">
				<g>
					<path class="st31" d="M1659.1-67.9c-1.7,0-3.4,0-5.2,0"/>
					<path class="st32" d="M1643.6-67.8c-354.9,6.9-640.1,251.9-640.1,553c0,305.5,293.5,553.2,655.6,553.2
						c358,0,649-242.1,655.5-542.9"/>
					<path class="st31" d="M2314.7,490.4c0-1.7,0-3.4,0-5.2"/>
				</g>
			</g>
			<g style="clip-path:url(#SVGID_00000171000168243841549100000008360320572166288279_);">
				<path class="st33" d="M1160.9,479.3c0,6.7-6.4,12.1-14.4,12.1c-7.9,0-14.4-5.4-14.4-12.1c0-6.7,6.4-12.1,14.4-12.1
					C1154.4,467.2,1160.9,472.6,1160.9,479.3z"/>
			</g>
			<g style="clip-path:url(#SVGID_00000171000168243841549100000008360320572166288279_);">
				<path class="st34" d="M1067.5,76.7c0,13.4-12.9,24.3-28.8,24.3c-15.9,0-28.8-10.9-28.8-24.3s12.9-24.3,28.8-24.3
					C1054.6,52.4,1067.5,63.2,1067.5,76.7z"/>
			</g>
			<g style="clip-path:url(#SVGID_00000171000168243841549100000008360320572166288279_);">
				<ellipse class="st35" cx="1658.6" cy="759.6" rx="24.6" ry="20.8"/>
			</g>
			<g style="clip-path:url(#SVGID_00000171000168243841549100000008360320572166288279_);">
				<ellipse class="st36" cx="424.2" cy="904.3" rx="19.5" ry="16.5"/>
			</g>
		</g>
	</g>
</g>
</svg>
