<svg xmlns="http://www.w3.org/2000/svg" xmlns:xlink="http://www.w3.org/1999/xlink" viewBox="0 0 1920 1080"><defs><style>.a,.aa,.ab,.ad,.ag,.ah,.ai,.aj,.ak,.al,.h,.i,.j,.k,.l,.m,.n,.o,.p,.q,.r,.s{fill:none;}.b{isolation:isolate;}.c{clip-path:url(#a);}.d{fill:#969fbc;}.d,.g{mix-blend-mode:overlay;opacity:0.2;}.e{fill:url(#b);}.f{fill:url(#c);}.g{fill:#e0f25a;}.h{stroke:#b800e9;stroke-width:1.87px;}.aa,.ab,.ad,.ag,.ah,.ai,.aj,.ak,.al,.h,.i,.j,.k,.l,.m,.n,.o,.p,.q,.r,.s{stroke-miterlimit:10;}.aa,.i,.l{stroke:#940091;}.i{stroke-width:2.03px;}.ak,.j,.r{stroke:#095b72;}.k{stroke:#e213bb;stroke-width:9px;}.aa,.ab,.ag,.ah,.l,.m,.n,.o,.p,.q,.r{stroke-linecap:round;}.m,.n,.o,.p,.q{stroke:#160fa8;}.n{stroke-dasharray:9.37 9.37;}.o{stroke-dasharray:9.37 9.37;}.p{stroke-dasharray:9.37 9.37;}.q{stroke-dasharray:9.37 9.37;}.s{stroke:#edff00;}.t{fill:#fff;}.u{fill:#dd1788;}.v{fill:#cc0959;}.w{fill:#e03f0e;}.x{fill:#efde41;}.y{clip-path:url(#d);}.z{fill:#940091;}.aa{stroke-width:3.6px;}.ab{stroke:#ef41d7;}.ab,.ad,.aj{stroke-width:3px;}.ac{fill:#0fb7ea;}.ad{stroke:#ff9203;}.ae{fill:#1e0fb2;}.af{fill:#f90847;}.ag{stroke:#e5d728;stroke-width:1.5px;}.ah{stroke:#9e057e;stroke-width:1.12px;stroke-dasharray:10.34 10.34;}.ai{stroke:#ff0;stroke-width:1.5px;}.aj{stroke:#e51a1a;}.ak{stroke-width:2.57px;}.al{stroke:#f97306;stroke-width:2.03px;}</style><clipPath id="a"><path class="a" d="M1920,0V1080H0V0Z"/></clipPath><linearGradient id="b" x1="434.53" y1="-1.21" x2="997.07" y2="561.33" gradientTransform="matrix(1.98, -0.55, -0.55, 1.98, -549.77, -52.93)" gradientUnits="userSpaceOnUse"><stop offset="0" stop-color="#940091"/><stop offset="1" stop-color="#ffab15" stop-opacity="0"/></linearGradient><linearGradient id="c" x1="233.98" y1="-56.87" x2="796.53" y2="505.68" gradientTransform="matrix(1.98, -0.55, -0.55, 1.98, -549.77, -52.93)" gradientUnits="userSpaceOnUse"><stop offset="0" stop-color="#940091"/><stop offset="1" stop-color="#ff892a" stop-opacity="0"/></linearGradient><clipPath id="d"><polygon class="a" points="1368.59 29.55 1555.79 187.5 1368.59 345.45 1181.39 187.5 1368.59 29.55"/></clipPath></defs><g class="b"><g class="c"><polygon class="d" points="-74.78 465.66 -593.89 27.67 202.23 -644.05 721.33 -206.06 -74.78 465.66"/><polygon class="e" points="936.06 613.9 108.28 -84.58 485.77 -403.1 1313.56 295.38 936.06 613.9"/><polygon class="f" points="569.51 613.9 -258.27 -84.58 119.22 -403.09 947.01 295.39 569.51 613.9"/><ellipse class="g" cy="1078.49" rx="676.25" ry="570.58"/><line class="h" x1="418.87" y1="1076.7" x2="556.48" y2="1076.7"/><line class="h" x1="453.27" y1="1047.67" x2="590.88" y2="1047.67"/><line class="h" x1="487.67" y1="1018.65" x2="625.28" y2="1018.65"/><line class="h" x1="522.07" y1="989.62" x2="659.69" y2="989.62"/><line class="h" x1="556.48" y1="960.59" x2="694.09" y2="960.59"/><line class="h" x1="590.88" y1="931.56" x2="728.49" y2="931.56"/><line class="h" x1="625.29" y1="902.54" x2="762.9" y2="902.54"/><line class="h" x1="659.69" y1="873.51" x2="797.3" y2="873.51"/><line class="h" x1="694.09" y1="844.48" x2="831.7" y2="844.48"/><line class="h" x1="728.49" y1="815.45" x2="866.11" y2="815.45"/><line class="h" x1="762.9" y1="786.43" x2="900.51" y2="786.43"/><line class="h" x1="797.3" y1="757.4" x2="934.91" y2="757.4"/><line class="i" x1="1906.55" y1="170.26" x2="1906.55" y2="296.27"/><line class="i" x1="1869.21" y1="201.77" x2="1869.21" y2="327.77"/><line class="i" x1="1831.88" y1="233.27" x2="1831.88" y2="359.27"/><line class="i" x1="1794.54" y1="264.77" x2="1794.54" y2="390.77"/><line class="i" x1="1757.21" y1="296.27" x2="1757.21" y2="422.27"/><line class="i" x1="1719.88" y1="327.77" x2="1719.88" y2="453.77"/><line class="i" x1="1682.54" y1="359.27" x2="1682.54" y2="485.27"/><line class="i" x1="1645.21" y1="390.77" x2="1645.21" y2="516.78"/><line class="i" x1="1607.87" y1="422.27" x2="1607.87" y2="548.28"/><line class="j" x1="565.11" y1="149.85" x2="659.72" y2="149.85"/><line class="j" x1="588.76" y1="129.89" x2="683.38" y2="129.89"/><line class="j" x1="612.42" y1="109.93" x2="707.02" y2="109.93"/><line class="j" x1="636.07" y1="89.98" x2="730.67" y2="89.98"/><line class="j" x1="659.72" y1="70.02" x2="754.33" y2="70.02"/><line class="j" x1="683.38" y1="50.06" x2="777.98" y2="50.06"/><line class="j" x1="707.02" y1="30.11" x2="801.63" y2="30.11"/><line class="j" x1="730.68" y1="10.15" x2="825.29" y2="10.15"/><ellipse class="k" cx="104.37" cy="332.26" rx="151.04" ry="127.44"/><polygon class="l" points="904.57 249.99 792.89 344.22 681.21 249.99 792.89 155.75 904.57 249.99"/><polyline class="m" points="546.98 645.65 550.49 648.61 546.98 651.57"/><line class="n" x1="539.82" y1="657.61" x2="213.82" y2="932.67"/><polyline class="m" points="210.24 935.69 206.73 938.65 203.22 935.69"/><line class="o" x1="196.06" y1="929.65" x2="-129.93" y2="654.59"/><line class="p" x1="-126.35" y1="639.6" x2="199.64" y2="364.54"/><polyline class="m" points="203.22 361.52 206.73 358.56 210.24 361.52"/><line class="q" x1="217.41" y1="367.57" x2="543.4" y2="642.62"/><polygon class="r" points="1139.33 1057.55 913.38 1248.19 687.44 1057.55 913.38 866.91 1139.33 1057.55"/><polygon class="s" points="186.89 584.94 140.09 624.43 93.29 584.94 140.09 545.46 186.89 584.94"/><polygon class="t" points="490.82 177.05 471.92 193 453.02 177.05 471.92 161.1 490.82 177.05"/><polygon class="u" points="1231.03 654.18 1218.47 664.78 1205.9 654.18 1218.47 643.58 1231.03 654.18"/><polygon class="v" points="1642.23 114.59 1623.43 130.45 1604.63 114.59 1623.43 98.72 1642.23 114.59"/><polygon class="w" points="1782.75 833.63 1768.94 845.28 1755.14 833.63 1768.94 821.98 1782.75 833.63"/><polygon class="x" points="130.53 981.07 111.78 996.89 93.04 981.07 111.78 965.25 130.53 981.07"/><g class="y"><rect class="z" x="1183.57" y="3.75" width="3.14" height="367.49"/><rect class="z" x="1202.88" y="3.75" width="3.14" height="367.49"/><rect class="z" x="1222.18" y="3.75" width="3.14" height="367.49"/><rect class="z" x="1241.5" y="3.75" width="3.14" height="367.49"/><rect class="z" x="1260.81" y="3.75" width="3.14" height="367.49"/><rect class="z" x="1280.12" y="3.75" width="3.15" height="367.49"/><rect class="z" x="1299.43" y="3.75" width="3.14" height="367.49"/><rect class="z" x="1318.75" y="3.75" width="3.14" height="367.49"/><rect class="z" x="1338.05" y="3.75" width="3.14" height="367.49"/><rect class="z" x="1357.36" y="3.75" width="3.14" height="367.49"/><rect class="z" x="1376.68" y="3.75" width="3.14" height="367.49"/><rect class="z" x="1395.98" y="3.75" width="3.14" height="367.49"/><rect class="z" x="1415.3" y="3.75" width="3.14" height="367.49"/><rect class="z" x="1434.61" y="3.75" width="3.14" height="367.49"/><rect class="z" x="1453.92" y="3.75" width="3.14" height="367.49"/><rect class="z" x="1473.23" y="3.75" width="3.14" height="367.49"/><rect class="z" x="1492.54" y="3.75" width="3.14" height="367.49"/><rect class="z" x="1511.86" y="3.75" width="3.14" height="367.49"/><rect class="z" x="1531.16" y="3.75" width="3.14" height="367.49"/><rect class="z" x="1550.48" y="3.75" width="3.14" height="367.49"/></g><path class="aa" d="M1607.88,304.49c-118.34,0-214.26,80.94-214.26,180.78s95.92,180.78,214.26,180.78,214.26-80.94,214.26-180.78"/><path class="ab" d="M913.38,512c0-75.46-72.5-136.63-161.92-136.63S589.53,436.53,589.53,512,662,648.61,751.46,648.61"/><ellipse class="ac" cx="238.12" cy="743.66" rx="7.2" ry="6.08"/><path class="ad" d="M464.49,356.56c0,13.42-12.89,24.3-28.8,24.3s-28.8-10.88-28.8-24.3,12.9-24.3,28.8-24.3S464.49,343.14,464.49,356.56Z"/><path d="M1384.45,684.92a9.5,9.5,0,0,0,11.82,0,6.3,6.3,0,0,0,0-10,9.5,9.5,0,0,0-11.82,0A6.3,6.3,0,0,0,1384.45,684.92Z"/><path d="M1339.16,723.13a9.5,9.5,0,0,0,11.82,0,6.29,6.29,0,0,0,0-10,9.5,9.5,0,0,0-11.82,0A6.3,6.3,0,0,0,1339.16,723.13Z"/><path d="M1293.87,761.35a9.5,9.5,0,0,0,11.82,0,6.3,6.3,0,0,0,0-10,9.46,9.46,0,0,0-11.81,0A6.3,6.3,0,0,0,1293.87,761.35Z"/><path d="M1248.58,799.56a9.48,9.48,0,0,0,11.81,0,6.29,6.29,0,0,0,0-10,9.47,9.47,0,0,0-11.81,0A6.3,6.3,0,0,0,1248.58,799.56Z"/><path d="M1203.29,837.77a9.49,9.49,0,0,0,11.82,0,6.3,6.3,0,0,0,0-10,9.5,9.5,0,0,0-11.82,0A6.3,6.3,0,0,0,1203.29,837.77Z"/><path d="M1158,876a9.5,9.5,0,0,0,11.82,0,6.3,6.3,0,0,0,0-10,9.5,9.5,0,0,0-11.82,0A6.3,6.3,0,0,0,1158,876Z"/><path d="M1112.71,914.2a9.5,9.5,0,0,0,11.82,0,6.31,6.31,0,0,0,0-10,9.5,9.5,0,0,0-11.82,0A6.3,6.3,0,0,0,1112.71,914.2Z"/><path d="M1067.42,952.42a9.5,9.5,0,0,0,11.82,0,6.3,6.3,0,0,0,0-10,9.47,9.47,0,0,0-11.82,0A6.3,6.3,0,0,0,1067.42,952.42Z"/><path d="M1022.13,990.63a9.5,9.5,0,0,0,11.82,0,6.3,6.3,0,0,0,0-10,9.5,9.5,0,0,0-11.82,0A6.3,6.3,0,0,0,1022.13,990.63Z"/><path d="M976.84,1028.84a9.47,9.47,0,0,0,11.82,0,6.32,6.32,0,0,0,0-10,9.5,9.5,0,0,0-11.82,0A6.3,6.3,0,0,0,976.84,1028.84Z"/><path d="M931.55,1067.06a9.5,9.5,0,0,0,11.82,0,6.3,6.3,0,0,0,0-10,9.49,9.49,0,0,0-11.82,0A6.3,6.3,0,0,0,931.55,1067.06Z"/><path d="M1429.75,723.13a9.48,9.48,0,0,0,11.81,0,6.3,6.3,0,0,0,0-10,9.48,9.48,0,0,0-11.81,0A6.29,6.29,0,0,0,1429.75,723.13Z"/><path d="M1384.45,761.35a9.5,9.5,0,0,0,11.82,0,6.3,6.3,0,0,0,0-10,9.49,9.49,0,0,0-11.82,0A6.31,6.31,0,0,0,1384.45,761.35Z"/><path d="M1339.16,799.56a9.5,9.5,0,0,0,11.82,0,6.29,6.29,0,0,0,0-10,9.47,9.47,0,0,0-11.81,0A6.3,6.3,0,0,0,1339.16,799.56Z"/><path d="M1293.88,837.78a9.48,9.48,0,0,0,11.81,0,6.3,6.3,0,0,0,0-10,9.46,9.46,0,0,0-11.81,0A6.29,6.29,0,0,0,1293.88,837.78Z"/><path d="M1248.59,876a9.48,9.48,0,0,0,11.81,0,6.3,6.3,0,0,0,0-10,9.48,9.48,0,0,0-11.81,0A6.29,6.29,0,0,0,1248.59,876Z"/><path d="M1203.29,914.2a9.49,9.49,0,0,0,11.82,0,6.3,6.3,0,0,0,0-10,9.5,9.5,0,0,0-11.82,0A6.3,6.3,0,0,0,1203.29,914.2Z"/><path d="M1158,952.42a9.5,9.5,0,0,0,11.82,0,6.3,6.3,0,0,0,0-10,9.47,9.47,0,0,0-11.82,0A6.31,6.31,0,0,0,1158,952.42Z"/><path d="M1112.71,990.63a9.51,9.51,0,0,0,11.83,0,6.32,6.32,0,0,0,0-10,9.51,9.51,0,0,0-11.83,0A6.3,6.3,0,0,0,1112.71,990.63Z"/><path d="M1067.42,1028.84a9.47,9.47,0,0,0,11.82,0,6.3,6.3,0,0,0,0-10,9.49,9.49,0,0,0-11.82,0A6.29,6.29,0,0,0,1067.42,1028.84Z"/><path d="M1022.13,1067.06a9.5,9.5,0,0,0,11.82,0,6.31,6.31,0,0,0,0-10,9.5,9.5,0,0,0-11.82,0A6.3,6.3,0,0,0,1022.13,1067.06Z"/><path d="M1475,761.35a9.5,9.5,0,0,0,11.82,0,6.29,6.29,0,0,0,0-10,9.49,9.49,0,0,0-11.82,0A6.3,6.3,0,0,0,1475,761.35Z"/><path d="M1429.74,799.56a9.5,9.5,0,0,0,11.82,0,6.29,6.29,0,0,0,0-10,9.49,9.49,0,0,0-11.82,0A6.3,6.3,0,0,0,1429.74,799.56Z"/><path d="M1384.45,837.77a9.47,9.47,0,0,0,11.82,0,6.29,6.29,0,0,0,0-10,9.5,9.5,0,0,0-11.82,0A6.3,6.3,0,0,0,1384.45,837.77Z"/><path d="M1339.16,876a9.5,9.5,0,0,0,11.82,0,6.29,6.29,0,0,0,0-10,9.5,9.5,0,0,0-11.82,0A6.3,6.3,0,0,0,1339.16,876Z"/><path d="M1293.88,914.2a9.47,9.47,0,0,0,11.81,0,6.29,6.29,0,0,0,0-10,9.48,9.48,0,0,0-11.81,0A6.3,6.3,0,0,0,1293.88,914.2Z"/><path d="M1248.58,952.42a9.5,9.5,0,0,0,11.82,0,6.3,6.3,0,0,0,0-10,9.46,9.46,0,0,0-11.81,0A6.3,6.3,0,0,0,1248.58,952.42Z"/><path d="M1203.29,990.63a9.5,9.5,0,0,0,11.82,0,6.3,6.3,0,0,0,0-10,9.48,9.48,0,0,0-11.81,0A6.3,6.3,0,0,0,1203.29,990.63Z"/><path d="M1158,1028.84a9.47,9.47,0,0,0,11.82,0,6.3,6.3,0,0,0,0-10,9.5,9.5,0,0,0-11.82,0A6.31,6.31,0,0,0,1158,1028.84Z"/><path d="M1112.71,1067.06a9.5,9.5,0,0,0,11.82,0,6.31,6.31,0,0,0,0-10,9.5,9.5,0,0,0-11.82,0A6.3,6.3,0,0,0,1112.71,1067.06Z"/><path d="M1520.33,799.56a9.48,9.48,0,0,0,11.81,0,6.29,6.29,0,0,0,0-10,9.47,9.47,0,0,0-11.81,0A6.29,6.29,0,0,0,1520.33,799.56Z"/><path d="M1475,837.77a9.46,9.46,0,0,0,11.81,0,6.28,6.28,0,0,0,0-10,9.46,9.46,0,0,0-11.81,0A6.28,6.28,0,0,0,1475,837.77Z"/><path d="M1429.74,876a9.5,9.5,0,0,0,11.82,0,6.29,6.29,0,0,0,0-10,9.48,9.48,0,0,0-11.81,0A6.3,6.3,0,0,0,1429.74,876Z"/><path d="M1384.45,914.2a9.47,9.47,0,0,0,11.82,0,6.3,6.3,0,0,0,0-10,9.5,9.5,0,0,0-11.82,0A6.3,6.3,0,0,0,1384.45,914.2Z"/><path d="M1339.17,952.42a9.48,9.48,0,0,0,11.81,0,6.29,6.29,0,0,0,0-10,9.46,9.46,0,0,0-11.81,0A6.29,6.29,0,0,0,1339.17,952.42Z"/><path d="M1293.88,990.63a9.48,9.48,0,0,0,11.81,0,6.3,6.3,0,0,0,0-10,9.48,9.48,0,0,0-11.81,0A6.29,6.29,0,0,0,1293.88,990.63Z"/><path d="M1248.58,1028.84a9.46,9.46,0,0,0,11.81,0,6.28,6.28,0,0,0,0-10,9.46,9.46,0,0,0-11.81,0A6.29,6.29,0,0,0,1248.58,1028.84Z"/><path d="M1203.29,1067.06a9.5,9.5,0,0,0,11.82,0,6.3,6.3,0,0,0,0-10,9.49,9.49,0,0,0-11.82,0A6.3,6.3,0,0,0,1203.29,1067.06Z"/><path d="M1565.62,837.77a9.46,9.46,0,0,0,11.81,0,6.29,6.29,0,0,0,0-10,9.46,9.46,0,0,0-11.81,0A6.28,6.28,0,0,0,1565.62,837.77Z"/><path d="M1520.33,876a9.48,9.48,0,0,0,11.81,0,6.29,6.29,0,0,0,0-10,9.48,9.48,0,0,0-11.81,0A6.29,6.29,0,0,0,1520.33,876Z"/><path d="M1475,914.2a9.49,9.49,0,0,0,11.82,0,6.29,6.29,0,0,0,0-10,9.48,9.48,0,0,0-11.81,0A6.3,6.3,0,0,0,1475,914.2Z"/><path d="M1429.74,952.42a9.5,9.5,0,0,0,11.82,0,6.3,6.3,0,0,0,0-10,9.47,9.47,0,0,0-11.82,0A6.3,6.3,0,0,0,1429.74,952.42Z"/><path d="M1384.45,990.63a9.5,9.5,0,0,0,11.82,0,6.29,6.29,0,0,0,0-10,9.5,9.5,0,0,0-11.82,0A6.31,6.31,0,0,0,1384.45,990.63Z"/><path d="M1339.16,1028.84a9.47,9.47,0,0,0,11.82,0,6.29,6.29,0,0,0,0-10,9.5,9.5,0,0,0-11.82,0A6.3,6.3,0,0,0,1339.16,1028.84Z"/><path d="M1293.88,1067.06a9.48,9.48,0,0,0,11.81,0,6.3,6.3,0,0,0,0-10,9.5,9.5,0,0,0-11.82,0A6.3,6.3,0,0,0,1293.88,1067.06Z"/><ellipse cx="1616.82" cy="871" rx="8.36" ry="7.05"/><path d="M1565.62,914.2a9.48,9.48,0,0,0,11.81,0,6.3,6.3,0,0,0,0-10,9.48,9.48,0,0,0-11.81,0A6.29,6.29,0,0,0,1565.62,914.2Z"/><path d="M1520.33,952.42a9.48,9.48,0,0,0,11.81,0,6.29,6.29,0,0,0,0-10,9.46,9.46,0,0,0-11.81,0A6.29,6.29,0,0,0,1520.33,952.42Z"/><path d="M1475,990.63a9.5,9.5,0,0,0,11.82,0,6.3,6.3,0,0,0,0-10,9.5,9.5,0,0,0-11.82,0A6.3,6.3,0,0,0,1475,990.63Z"/><path d="M1429.75,1028.84a9.46,9.46,0,0,0,11.81,0,6.29,6.29,0,0,0,0-10,9.48,9.48,0,0,0-11.81,0A6.29,6.29,0,0,0,1429.75,1028.84Z"/><path d="M1384.45,1067.06a9.5,9.5,0,0,0,11.82,0,6.3,6.3,0,0,0,0-10,9.49,9.49,0,0,0-11.82,0A6.3,6.3,0,0,0,1384.45,1067.06Z"/><path d="M1656.2,914.2a9.47,9.47,0,0,0,11.82,0,6.3,6.3,0,0,0,0-10,9.5,9.5,0,0,0-11.82,0A6.3,6.3,0,0,0,1656.2,914.2Z"/><path d="M1610.91,952.42a9.5,9.5,0,0,0,11.82,0,6.3,6.3,0,0,0,0-10,9.47,9.47,0,0,0-11.82,0A6.3,6.3,0,0,0,1610.91,952.42Z"/><path d="M1565.62,990.63a9.48,9.48,0,0,0,11.81,0,6.29,6.29,0,0,0,0-10,9.48,9.48,0,0,0-11.81,0A6.3,6.3,0,0,0,1565.62,990.63Z"/><path d="M1520.33,1028.84a9.46,9.46,0,0,0,11.81,0,6.28,6.28,0,0,0,0-10,9.46,9.46,0,0,0-11.81,0A6.28,6.28,0,0,0,1520.33,1028.84Z"/><path d="M1475,1067.06a9.5,9.5,0,0,0,11.82,0,6.3,6.3,0,0,0,0-10,9.49,9.49,0,0,0-11.82,0A6.29,6.29,0,0,0,1475,1067.06Z"/><path d="M1701.49,952.42a9.48,9.48,0,0,0,11.81,0,6.31,6.31,0,0,0,0-10,9.47,9.47,0,0,0-11.82,0A6.3,6.3,0,0,0,1701.49,952.42Z"/><path d="M1656.2,990.63a9.48,9.48,0,0,0,11.81,0,6.3,6.3,0,0,0,0-10,9.5,9.5,0,0,0-11.82,0A6.3,6.3,0,0,0,1656.2,990.63Z"/><path d="M1610.91,1028.84a9.47,9.47,0,0,0,11.82,0,6.31,6.31,0,0,0,0-10,9.5,9.5,0,0,0-11.82,0A6.3,6.3,0,0,0,1610.91,1028.84Z"/><path d="M1565.62,1067.06a9.48,9.48,0,0,0,11.81,0,6.3,6.3,0,0,0,0-10,9.48,9.48,0,0,0-11.81,0A6.29,6.29,0,0,0,1565.62,1067.06Z"/><path d="M1746.78,990.63a9.5,9.5,0,0,0,11.82,0,6.3,6.3,0,0,0,0-10,9.5,9.5,0,0,0-11.82,0A6.3,6.3,0,0,0,1746.78,990.63Z"/><path d="M1701.49,1028.84a9.47,9.47,0,0,0,11.82,0,6.32,6.32,0,0,0,0-10,9.5,9.5,0,0,0-11.82,0A6.3,6.3,0,0,0,1701.49,1028.84Z"/><path d="M1656.2,1067.06a9.5,9.5,0,0,0,11.82,0,6.3,6.3,0,0,0,0-10,9.49,9.49,0,0,0-11.82,0A6.3,6.3,0,0,0,1656.2,1067.06Z"/><path d="M1792.07,1028.84a9.47,9.47,0,0,0,11.82,0,6.3,6.3,0,0,0,0-10,9.5,9.5,0,0,0-11.82,0A6.3,6.3,0,0,0,1792.07,1028.84Z"/><path d="M1746.78,1067.06a9.5,9.5,0,0,0,11.82,0,6.3,6.3,0,0,0,0-10,9.5,9.5,0,0,0-11.82,0A6.3,6.3,0,0,0,1746.78,1067.06Z"/><path d="M1837.36,1067.06a9.5,9.5,0,0,0,11.82,0,6.3,6.3,0,0,0,0-10,9.5,9.5,0,0,0-11.82,0A6.3,6.3,0,0,0,1837.36,1067.06Z"/><path class="ae" d="M1589.8.68a5.65,5.65,0,0,0,7.06,0,3.77,3.77,0,0,0,0-6,5.68,5.68,0,0,0-7.06,0A3.77,3.77,0,0,0,1589.8.68Z"/><path class="ae" d="M1643.92.68a5.65,5.65,0,0,0,7.06,0,3.78,3.78,0,0,0,0-6,5.68,5.68,0,0,0-7.06,0A3.77,3.77,0,0,0,1643.92.68Z"/><path class="ae" d="M1616.86,23.51a5.65,5.65,0,0,0,7.06,0,3.76,3.76,0,0,0,0-6,5.65,5.65,0,0,0-7.06,0A3.76,3.76,0,0,0,1616.86,23.51Z"/><path class="ae" d="M1698,.68a5.65,5.65,0,0,0,7,0,3.76,3.76,0,0,0,0-6,5.68,5.68,0,0,0-7.06,0A3.77,3.77,0,0,0,1698,.68Z"/><path class="ae" d="M1671,23.51a5.65,5.65,0,0,0,7.06,0,3.76,3.76,0,0,0,0-6,5.65,5.65,0,0,0-7.06,0A3.76,3.76,0,0,0,1671,23.51Z"/><path class="ae" d="M1643.92,46.34a5.65,5.65,0,0,0,7.06,0,3.76,3.76,0,0,0,0-6,5.65,5.65,0,0,0-7.06,0A3.76,3.76,0,0,0,1643.92,46.34Z"/><path class="ae" d="M1752.16.68a5.65,5.65,0,0,0,7.06,0,3.77,3.77,0,0,0,0-6,5.68,5.68,0,0,0-7.06,0A3.77,3.77,0,0,0,1752.16.68Z"/><path class="ae" d="M1725.1,23.51a5.65,5.65,0,0,0,7.06,0,3.76,3.76,0,0,0,0-6,5.65,5.65,0,0,0-7.06,0A3.76,3.76,0,0,0,1725.1,23.51Z"/><path class="ae" d="M1698,46.35a5.67,5.67,0,0,0,7.06,0,3.76,3.76,0,0,0,0-6,5.65,5.65,0,0,0-7.06,0A3.77,3.77,0,0,0,1698,46.35Z"/><path class="ae" d="M1671,69.17a5.65,5.65,0,0,0,7.06,0,3.76,3.76,0,0,0,0-6,5.65,5.65,0,0,0-7.06,0A3.76,3.76,0,0,0,1671,69.17Z"/><path class="ae" d="M1806.28.68a5.67,5.67,0,0,0,7.06,0,3.77,3.77,0,0,0,0-5.95,5.65,5.65,0,0,0-7.06,0A3.76,3.76,0,0,0,1806.28.68Z"/><path class="ae" d="M1779.22,23.51a5.65,5.65,0,0,0,7.06,0,3.76,3.76,0,0,0,0-6,5.65,5.65,0,0,0-7.06,0A3.76,3.76,0,0,0,1779.22,23.51Z"/><path class="ae" d="M1752.16,46.35a5.67,5.67,0,0,0,7.06,0,3.76,3.76,0,0,0,0-6,5.65,5.65,0,0,0-7.06,0A3.77,3.77,0,0,0,1752.16,46.35Z"/><path class="ae" d="M1725.1,69.17a5.65,5.65,0,0,0,7.06,0,3.76,3.76,0,0,0,0-6,5.67,5.67,0,0,0-7.06,0A3.76,3.76,0,0,0,1725.1,69.17Z"/><path class="ae" d="M1698,92a5.67,5.67,0,0,0,7,0,3.76,3.76,0,0,0,0-6,5.68,5.68,0,0,0-7.06,0A3.77,3.77,0,0,0,1698,92Z"/><path class="ae" d="M1860.4.68a5.65,5.65,0,0,0,7.06,0,3.77,3.77,0,0,0,0-6,5.68,5.68,0,0,0-7.06,0A3.77,3.77,0,0,0,1860.4.68Z"/><path class="ae" d="M1833.34,23.51a5.65,5.65,0,0,0,7.06,0,3.77,3.77,0,0,0,0-6,5.67,5.67,0,0,0-7.07,0A3.76,3.76,0,0,0,1833.34,23.51Z"/><path class="ae" d="M1806.28,46.34a5.65,5.65,0,0,0,7.06,0,3.76,3.76,0,0,0,0-6,5.65,5.65,0,0,0-7.06,0A3.76,3.76,0,0,0,1806.28,46.34Z"/><path class="ae" d="M1779.22,69.17a5.65,5.65,0,0,0,7.06,0,3.76,3.76,0,0,0,0-6,5.65,5.65,0,0,0-7.06,0A3.75,3.75,0,0,0,1779.22,69.17Z"/><path class="ae" d="M1752.16,92a5.68,5.68,0,0,0,7.06,0,3.77,3.77,0,0,0,0-6,5.68,5.68,0,0,0-7.06,0A3.77,3.77,0,0,0,1752.16,92Z"/><path class="ae" d="M1725.1,114.84a5.68,5.68,0,0,0,7.06,0,3.77,3.77,0,0,0,0-6,5.68,5.68,0,0,0-7.06,0A3.77,3.77,0,0,0,1725.1,114.84Z"/><path class="ae" d="M1914.52.68a5.67,5.67,0,0,0,7.06,0,3.77,3.77,0,0,0,0-6,5.68,5.68,0,0,0-7.06,0A3.77,3.77,0,0,0,1914.52.68Z"/><path class="ae" d="M1887.46,23.51a5.65,5.65,0,0,0,7.06,0,3.76,3.76,0,0,0,0-6,5.65,5.65,0,0,0-7.06,0A3.75,3.75,0,0,0,1887.46,23.51Z"/><path class="ae" d="M1860.4,46.34a5.65,5.65,0,0,0,7,0,3.77,3.77,0,0,0,0-6,5.65,5.65,0,0,0-7.06,0A3.76,3.76,0,0,0,1860.4,46.34Z"/><path class="ae" d="M1833.34,69.17a5.65,5.65,0,0,0,7.06,0,3.77,3.77,0,0,0,0-6,5.65,5.65,0,0,0-7.06,0A3.76,3.76,0,0,0,1833.34,69.17Z"/><path class="ae" d="M1806.28,92a5.68,5.68,0,0,0,7.06,0,3.77,3.77,0,0,0,0-6,5.68,5.68,0,0,0-7.06,0A3.77,3.77,0,0,0,1806.28,92Z"/><path class="ae" d="M1779.22,114.84a5.68,5.68,0,0,0,7.06,0,3.78,3.78,0,0,0,0-6,5.68,5.68,0,0,0-7.06,0A3.77,3.77,0,0,0,1779.22,114.84Z"/><path class="ae" d="M1752.16,137.67a5.68,5.68,0,0,0,7.06,0,3.77,3.77,0,0,0,0-6,5.68,5.68,0,0,0-7.06,0A3.77,3.77,0,0,0,1752.16,137.67Z"/><path class="ae" d="M1914.51,46.34a5.67,5.67,0,0,0,7.07,0,3.76,3.76,0,0,0,0-6,5.65,5.65,0,0,0-7.06,0A3.76,3.76,0,0,0,1914.51,46.34Z"/><path class="ae" d="M1887.46,69.17a5.64,5.64,0,0,0,7,0,3.76,3.76,0,0,0,0-6,5.67,5.67,0,0,0-7,0A3.75,3.75,0,0,0,1887.46,69.17Z"/><path class="ae" d="M1860.4,92a5.68,5.68,0,0,0,7.06,0,3.78,3.78,0,0,0,0-6,5.68,5.68,0,0,0-7.06,0A3.77,3.77,0,0,0,1860.4,92Z"/><path class="ae" d="M1833.33,114.84a5.69,5.69,0,0,0,7.07,0,3.78,3.78,0,0,0,0-6,5.68,5.68,0,0,0-7.06,0A3.77,3.77,0,0,0,1833.33,114.84Z"/><path class="ae" d="M1806.28,137.67a5.68,5.68,0,0,0,7.06,0,3.78,3.78,0,0,0,0-6,5.68,5.68,0,0,0-7.06,0A3.77,3.77,0,0,0,1806.28,137.67Z"/><path class="ae" d="M1779.22,160.5a5.65,5.65,0,0,0,7.06,0,3.76,3.76,0,0,0,0-5.95,5.65,5.65,0,0,0-7.06,0A3.76,3.76,0,0,0,1779.22,160.5Z"/><path class="af" d="M64,18.29a6.42,6.42,0,0,0,8,0,4.27,4.27,0,0,0,0-6.76,6.42,6.42,0,0,0-8,0A4.28,4.28,0,0,0,64,18.29Z"/><path class="af" d="M125.41,18.29a6.42,6.42,0,0,0,8,0,4.28,4.28,0,0,0,0-6.76,6.42,6.42,0,0,0-8,0A4.27,4.27,0,0,0,125.41,18.29Z"/><path class="af" d="M94.7,44.2a6.42,6.42,0,0,0,8,0,4.28,4.28,0,0,0,0-6.76,6.42,6.42,0,0,0-8,0A4.28,4.28,0,0,0,94.7,44.2Z"/><path class="af" d="M186.82,18.29a6.43,6.43,0,0,0,8,0,4.27,4.27,0,0,0,0-6.76,6.43,6.43,0,0,0-8,0A4.28,4.28,0,0,0,186.82,18.29Z"/><path class="af" d="M156.12,44.2a6.42,6.42,0,0,0,8,0,4.28,4.28,0,0,0,0-6.76,6.42,6.42,0,0,0-8,0A4.26,4.26,0,0,0,156.12,44.2Z"/><path class="af" d="M125.41,70.11a6.42,6.42,0,0,0,8,0,4.28,4.28,0,0,0,0-6.76,6.42,6.42,0,0,0-8,0A4.28,4.28,0,0,0,125.41,70.11Z"/><path class="af" d="M248.24,18.29a6.43,6.43,0,0,0,8,0,4.28,4.28,0,0,0,0-6.76,6.42,6.42,0,0,0-8,0A4.28,4.28,0,0,0,248.24,18.29Z"/><path class="af" d="M217.53,44.2a6.43,6.43,0,0,0,8,0,4.26,4.26,0,0,0,0-6.76,6.42,6.42,0,0,0-8,0A4.28,4.28,0,0,0,217.53,44.2Z"/><path class="af" d="M186.82,70.11a6.43,6.43,0,0,0,8,0,4.27,4.27,0,0,0,0-6.76,6.42,6.42,0,0,0-8,0A4.28,4.28,0,0,0,186.82,70.11Z"/><path class="af" d="M156.12,96a6.45,6.45,0,0,0,8,0,4.28,4.28,0,0,0,0-6.76,6.42,6.42,0,0,0-8,0A4.26,4.26,0,0,0,156.12,96Z"/><path class="af" d="M309.66,18.29a6.42,6.42,0,0,0,8,0,4.28,4.28,0,0,0,0-6.76,6.42,6.42,0,0,0-8,0A4.27,4.27,0,0,0,309.66,18.29Z"/><path class="af" d="M279,44.2a6.42,6.42,0,0,0,8,0,4.28,4.28,0,0,0,0-6.76,6.42,6.42,0,0,0-8,0A4.28,4.28,0,0,0,279,44.2Z"/><path class="af" d="M248.24,70.11a6.42,6.42,0,0,0,8,0,4.26,4.26,0,0,0,0-6.76,6.42,6.42,0,0,0-8,0A4.28,4.28,0,0,0,248.24,70.11Z"/><path class="af" d="M217.53,96a6.43,6.43,0,0,0,8,0,4.27,4.27,0,0,0,0-6.76,6.42,6.42,0,0,0-8,0A4.28,4.28,0,0,0,217.53,96Z"/><ellipse class="af" cx="190.83" cy="118.55" rx="5.67" ry="4.78"/><path class="af" d="M371.07,18.29a6.43,6.43,0,0,0,8,0,4.26,4.26,0,0,0,0-6.76,6.42,6.42,0,0,0-8,0A4.28,4.28,0,0,0,371.07,18.29Z"/><path class="af" d="M340.37,44.2a6.42,6.42,0,0,0,8,0,4.27,4.27,0,0,0,0-6.76,6.43,6.43,0,0,0-8,0A4.27,4.27,0,0,0,340.37,44.2Z"/><path class="af" d="M309.66,70.11a6.42,6.42,0,0,0,8,0,4.28,4.28,0,0,0,0-6.76,6.42,6.42,0,0,0-8,0A4.26,4.26,0,0,0,309.66,70.11Z"/><path class="af" d="M279,96a6.43,6.43,0,0,0,8,0,4.28,4.28,0,0,0,0-6.76,6.42,6.42,0,0,0-8,0A4.28,4.28,0,0,0,279,96Z"/><path class="af" d="M248.24,121.93a6.43,6.43,0,0,0,8,0,4.28,4.28,0,0,0,0-6.76,6.42,6.42,0,0,0-8,0A4.28,4.28,0,0,0,248.24,121.93Z"/><path class="af" d="M217.53,147.84a6.43,6.43,0,0,0,8,0,4.26,4.26,0,0,0,0-6.76,6.42,6.42,0,0,0-8,0A4.28,4.28,0,0,0,217.53,147.84Z"/><path class="af" d="M432.49,18.29a6.43,6.43,0,0,0,8,0,4.28,4.28,0,0,0,0-6.76,6.42,6.42,0,0,0-8,0A4.28,4.28,0,0,0,432.49,18.29Z"/><path class="af" d="M401.78,44.2a6.42,6.42,0,0,0,8,0,4.27,4.27,0,0,0,0-6.76,6.42,6.42,0,0,0-8,0A4.28,4.28,0,0,0,401.78,44.2Z"/><path class="af" d="M371.07,70.11a6.42,6.42,0,0,0,8,0,4.27,4.27,0,0,0,0-6.76,6.42,6.42,0,0,0-8,0A4.28,4.28,0,0,0,371.07,70.11Z"/><ellipse class="af" cx="344.37" cy="92.64" rx="5.66" ry="4.78"/><path class="af" d="M309.66,121.93a6.43,6.43,0,0,0,8,0,4.28,4.28,0,0,0,0-6.76,6.42,6.42,0,0,0-8,0A4.27,4.27,0,0,0,309.66,121.93Z"/><path class="af" d="M279,147.84a6.42,6.42,0,0,0,8,0,4.28,4.28,0,0,0,0-6.76,6.42,6.42,0,0,0-8,0A4.28,4.28,0,0,0,279,147.84Z"/><path class="af" d="M248.24,173.75a6.45,6.45,0,0,0,8,0,4.27,4.27,0,0,0,0-6.76,6.42,6.42,0,0,0-8,0A4.28,4.28,0,0,0,248.24,173.75Z"/><path class="af" d="M493.9,18.29a6.43,6.43,0,0,0,8,0,4.28,4.28,0,0,0,0-6.76,6.43,6.43,0,0,0-8,0A4.28,4.28,0,0,0,493.9,18.29Z"/><path class="af" d="M463.2,44.2a6.43,6.43,0,0,0,8,0,4.28,4.28,0,0,0,0-6.76,6.42,6.42,0,0,0-8,0A4.28,4.28,0,0,0,463.2,44.2Z"/><path class="af" d="M432.49,70.11a6.42,6.42,0,0,0,8,0,4.28,4.28,0,0,0,0-6.76,6.42,6.42,0,0,0-8,0A4.28,4.28,0,0,0,432.49,70.11Z"/><path class="af" d="M401.78,96a6.45,6.45,0,0,0,8,0,4.28,4.28,0,0,0,0-6.76,6.42,6.42,0,0,0-8,0A4.28,4.28,0,0,0,401.78,96Z"/><path class="af" d="M371.07,121.93a6.43,6.43,0,0,0,8,0,4.26,4.26,0,0,0,0-6.76,6.42,6.42,0,0,0-8,0A4.28,4.28,0,0,0,371.07,121.93Z"/><path class="af" d="M340.36,147.84a6.45,6.45,0,0,0,8,0,4.28,4.28,0,0,0,0-6.76,6.43,6.43,0,0,0-8,0A4.28,4.28,0,0,0,340.36,147.84Z"/><path class="af" d="M309.66,173.75a6.45,6.45,0,0,0,8,0,4.28,4.28,0,0,0,0-6.76,6.42,6.42,0,0,0-8,0A4.26,4.26,0,0,0,309.66,173.75Z"/><path class="af" d="M279,199.66a6.45,6.45,0,0,0,8,0,4.28,4.28,0,0,0,0-6.76,6.42,6.42,0,0,0-8,0A4.28,4.28,0,0,0,279,199.66Z"/><path class="af" d="M555.32,18.29a6.43,6.43,0,0,0,8,0,4.26,4.26,0,0,0,0-6.76,6.42,6.42,0,0,0-8,0A4.28,4.28,0,0,0,555.32,18.29Z"/><path class="af" d="M524.61,44.2a6.42,6.42,0,0,0,8,0,4.26,4.26,0,0,0,0-6.76,6.42,6.42,0,0,0-8,0A4.28,4.28,0,0,0,524.61,44.2Z"/><path class="af" d="M493.91,70.11a6.43,6.43,0,0,0,8,0,4.28,4.28,0,0,0,0-6.76,6.42,6.42,0,0,0-8,0A4.28,4.28,0,0,0,493.91,70.11Z"/><path class="af" d="M463.2,96a6.45,6.45,0,0,0,8,0,4.28,4.28,0,0,0,0-6.76,6.42,6.42,0,0,0-8,0A4.28,4.28,0,0,0,463.2,96Z"/><path class="af" d="M432.49,121.93a6.45,6.45,0,0,0,8,0,4.28,4.28,0,0,0,0-6.76,6.42,6.42,0,0,0-8,0A4.28,4.28,0,0,0,432.49,121.93Z"/><path class="af" d="M401.78,147.84a6.43,6.43,0,0,0,8,0,4.28,4.28,0,0,0,0-6.76,6.42,6.42,0,0,0-8,0A4.28,4.28,0,0,0,401.78,147.84Z"/><path class="af" d="M371.07,173.75a6.45,6.45,0,0,0,8,0,4.26,4.26,0,0,0,0-6.76,6.42,6.42,0,0,0-8,0A4.28,4.28,0,0,0,371.07,173.75Z"/><path class="af" d="M340.36,199.66a6.46,6.46,0,0,0,8,0,4.28,4.28,0,0,0,0-6.76,6.42,6.42,0,0,0-8,0A4.27,4.27,0,0,0,340.36,199.66Z"/><path class="af" d="M309.66,225.57a6.45,6.45,0,0,0,8,0,4.28,4.28,0,0,0,0-6.76,6.42,6.42,0,0,0-8,0A4.27,4.27,0,0,0,309.66,225.57Z"/><path class="ag" d="M683,512c0,31.88,30.64,57.73,68.43,57.73s68.43-25.85,68.43-57.73-30.64-57.74-68.43-57.74"/><path class="ah" d="M1643.61-67.76c-354.93,7-640.13,251.89-640.13,553,0,305.51,293.54,553.18,655.62,553.18,358,0,649-242.11,655.52-542.87"/><path class="ai" d="M1160.88,479.3c0,6.7-6.43,12.13-14.37,12.13s-14.38-5.43-14.38-12.13,6.44-12.13,14.38-12.13S1160.88,472.6,1160.88,479.3Z"/><path class="aj" d="M1067.54,76.65c0,13.42-12.9,24.3-28.8,24.3s-28.8-10.88-28.8-24.3,12.89-24.29,28.8-24.29S1067.54,63.23,1067.54,76.65Z"/><ellipse class="ak" cx="1658.57" cy="759.6" rx="24.64" ry="20.79"/><ellipse class="al" cx="424.17" cy="904.32" rx="19.51" ry="16.46"/></g></g></svg>