<?xml version="1.0" encoding="utf-8"?>
<!-- Generator: Adobe Illustrator 26.0.3, SVG Export Plug-In . SVG Version: 6.00 Build 0)  -->
<svg version="1.1" xmlns="http://www.w3.org/2000/svg" xmlns:xlink="http://www.w3.org/1999/xlink" x="0px" y="0px"
	 viewBox="0 0 214.2 61.7" style="enable-background:new 0 0 214.2 61.7;" xml:space="preserve">
<style type="text/css">
	.st0{enable-background:new    ;}
	.st1{fill:#009FE3;}
	.st2{fill:url(#SVGID_1_);}
	.st3{fill:url(#SVGID_00000150816421984186327290000004927941616549742259_);}
	.st4{fill:url(#SVGID_00000101789877800843486040000017891166683598343078_);}
	.st5{fill:url(#SVGID_00000009556075759791443510000015901739303126589579_);}
	.st6{fill:url(#SVGID_00000026126108220385668200000012255599015421334667_);}
	.st7{fill:url(#SVGID_00000082363844024123989010000018358381929902504107_);}
	.st8{fill:url(#SVGID_00000124119698737914176290000011554452842082539677_);}
	.st9{fill:url(#SVGID_00000086679233690717277440000006640495496106679969_);}
	.st10{fill:url(#SVGID_00000116928647441054926020000015603804852425254548_);}
	.st11{fill:url(#SVGID_00000029731760084137457520000003954540001224817067_);}
	.st12{fill:url(#SVGID_00000143611449763154903730000002657707968511932093_);}
	.st13{fill:none;stroke:url(#SVGID_00000004512883803879510710000010914931988576856711_);stroke-width:3;stroke-miterlimit:50;}
	.st14{fill:none;stroke:url(#SVGID_00000049908922046420898010000018308832225456198324_);stroke-width:3;stroke-miterlimit:50;}
	.st15{fill:none;stroke:url(#SVGID_00000005229856268282134970000016363316017329112202_);stroke-width:3;stroke-miterlimit:50;}
</style>
<g id="Camada_1">
</g>
<g id="Camada_3">
</g>
<g id="Camada_2">
	<g>
		<g class="st0">
			<g>
				<path class="st1" d="M34.9,41.9c0,1-0.1,1.8-0.4,2.6c-0.2,0.8-0.6,1.4-1,2c-0.4,0.6-0.9,1.1-1.4,1.5c-0.5,0.4-1.1,0.7-1.7,1
					c-0.6,0.3-1.2,0.5-1.8,0.6c-0.6,0.1-1.2,0.2-1.7,0.2H8.2v-4.8h18.8c0.9,0,1.7-0.3,2.2-0.8c0.5-0.5,0.8-1.3,0.8-2.2
					c0-0.4-0.1-0.9-0.2-1.2c-0.1-0.4-0.3-0.7-0.6-1c-0.3-0.3-0.6-0.5-0.9-0.6c-0.4-0.1-0.8-0.2-1.2-0.2H15.8c-0.8,0-1.6-0.1-2.6-0.4
					c-0.9-0.3-1.8-0.7-2.5-1.4c-0.8-0.6-1.4-1.4-2-2.4c-0.5-1-0.8-2.2-0.8-3.7c0-1.5,0.3-2.7,0.8-3.7c0.5-1,1.2-1.8,2-2.4
					c0.8-0.6,1.6-1.1,2.5-1.4c0.9-0.3,1.8-0.4,2.6-0.4h16.6v4.8H15.8c-0.9,0-1.7,0.3-2.2,0.8c-0.5,0.6-0.8,1.3-0.8,2.2
					c0,0.9,0.3,1.7,0.8,2.2c0.5,0.5,1.2,0.8,2.2,0.8h11.2h0c0.5,0,1.1,0.1,1.7,0.2c0.6,0.1,1.2,0.3,1.8,0.6c0.6,0.3,1.1,0.6,1.7,1
					c0.5,0.4,1,0.9,1.4,1.5c0.4,0.6,0.7,1.3,1,2C34.8,40.1,34.9,40.9,34.9,41.9z"/>
				<path class="st1" d="M60.8,43c0,0.8-0.1,1.6-0.3,2.2c-0.2,0.7-0.5,1.2-0.8,1.8c-0.4,0.5-0.8,0.9-1.2,1.3
					c-0.5,0.4-0.9,0.6-1.5,0.9c-0.5,0.2-1,0.4-1.5,0.5c-0.5,0.1-1,0.2-1.5,0.2h-8.8v-4.8H54c0.7,0,1.1-0.2,1.5-0.5
					c0.3-0.3,0.5-0.8,0.5-1.5v-6.5c0-0.7-0.2-1.2-0.5-1.5c-0.3-0.3-0.8-0.5-1.5-0.5h-8.8c-0.7,0-1.2,0.2-1.5,0.5s-0.5,0.8-0.5,1.4
					v19.7h-4.9V36.4c0-0.8,0.1-1.6,0.3-2.2c0.2-0.7,0.5-1.2,0.9-1.7c0.4-0.5,0.8-0.9,1.2-1.3c0.5-0.4,0.9-0.6,1.5-0.9
					c0.5-0.2,1-0.4,1.5-0.5c0.5-0.1,1-0.2,1.5-0.2H54c0.8,0,1.6,0.1,2.3,0.3c0.7,0.2,1.2,0.5,1.8,0.8c0.5,0.3,0.9,0.8,1.3,1.2
					c0.4,0.5,0.6,0.9,0.9,1.4c0.2,0.5,0.4,1,0.5,1.5c0.1,0.5,0.2,1,0.2,1.5V43z"/>
				<path class="st1" d="M86.9,36.3c0,0.7-0.1,1.4-0.4,2.2c-0.2,0.8-0.6,1.5-1.2,2.2c-0.5,0.7-1.2,1.2-2.1,1.7
					c-0.9,0.4-1.9,0.7-3.1,0.7h-8.8v-4.6h8.8c0.7,0,1.2-0.2,1.5-0.6c0.4-0.4,0.5-0.9,0.5-1.5c0-0.6-0.2-1.1-0.6-1.5
					c-0.4-0.4-0.9-0.5-1.5-0.5h-8.8c-0.7,0-1.2,0.2-1.5,0.6c-0.4,0.4-0.5,0.9-0.5,1.5v6.8c0,0.6,0.2,1.1,0.6,1.5
					c0.4,0.4,0.9,0.5,1.5,0.5h8.8v4.6h-8.8c-0.7,0-1.4-0.1-2.2-0.4c-0.8-0.2-1.5-0.6-2.2-1.1c-0.7-0.5-1.2-1.2-1.7-2.1
					c-0.5-0.9-0.7-1.9-0.7-3.1v-6.8c0-0.7,0.1-1.4,0.4-2.2c0.2-0.8,0.6-1.5,1.2-2.2c0.5-0.7,1.2-1.2,2.1-1.7
					c0.9-0.4,1.9-0.7,3.1-0.7h8.8c0.7,0,1.4,0.1,2.2,0.4c0.8,0.2,1.5,0.6,2.2,1.1c0.7,0.5,1.2,1.2,1.7,2.1
					C86.6,34,86.9,35.1,86.9,36.3z"/>
				<path class="st1" d="M112,36.3c0,0.7-0.1,1.4-0.4,2.2c-0.2,0.8-0.6,1.5-1.2,2.2c-0.5,0.7-1.2,1.2-2.1,1.7
					c-0.9,0.4-1.9,0.7-3.1,0.7h-8.8v-4.6h8.8c0.7,0,1.2-0.2,1.5-0.6c0.4-0.4,0.5-0.9,0.5-1.5c0-0.6-0.2-1.1-0.6-1.5
					c-0.4-0.4-0.9-0.5-1.5-0.5h-8.8c-0.7,0-1.2,0.2-1.5,0.6c-0.4,0.4-0.5,0.9-0.5,1.5v6.8c0,0.6,0.2,1.1,0.6,1.5
					c0.4,0.4,0.9,0.5,1.5,0.5h8.8v4.6h-8.8c-0.7,0-1.4-0.1-2.2-0.4c-0.8-0.2-1.5-0.6-2.2-1.1c-0.7-0.5-1.2-1.2-1.7-2.1
					c-0.5-0.9-0.7-1.9-0.7-3.1v-6.8c0-0.7,0.1-1.4,0.4-2.2c0.2-0.8,0.6-1.5,1.2-2.2c0.5-0.7,1.2-1.2,2.1-1.7
					c0.9-0.4,1.9-0.7,3.1-0.7h8.8c0.7,0,1.4,0.1,2.2,0.4c0.8,0.2,1.5,0.6,2.2,1.1c0.7,0.5,1.2,1.2,1.7,2.1
					C111.8,34,112,35.1,112,36.3z"/>
				<path class="st1" d="M137.6,43c0,0.8-0.1,1.6-0.3,2.2c-0.2,0.7-0.5,1.2-0.8,1.8c-0.4,0.5-0.8,0.9-1.2,1.3
					c-0.5,0.4-0.9,0.6-1.5,0.9c-0.5,0.2-1,0.4-1.5,0.5c-0.5,0.1-1,0.2-1.5,0.2h-8.8c-0.8,0-1.6-0.1-2.3-0.3
					c-0.7-0.2-1.2-0.5-1.8-0.8c-0.5-0.4-0.9-0.8-1.3-1.2c-0.4-0.5-0.6-0.9-0.9-1.4c-0.2-0.5-0.4-1-0.5-1.5c-0.1-0.5-0.2-1-0.2-1.4
					v-6.6c0-1.2,0.2-2.3,0.7-3.2c0.5-0.9,1-1.6,1.7-2.1c0.7-0.5,1.4-0.9,2.2-1.2c0.8-0.2,1.5-0.4,2.2-0.4h8.8v4.8h-8.8
					c-0.7,0-1.1,0.2-1.5,0.5s-0.5,0.8-0.5,1.4v6.5c0,0.7,0.2,1.2,0.5,1.5s0.8,0.5,1.5,0.5h8.8c0.7,0,1.2-0.2,1.5-0.5
					c0.3-0.3,0.5-0.8,0.5-1.5V21.1h4.9V43z"/>
			</g>
			<g>
				<linearGradient id="SVGID_1_" gradientUnits="userSpaceOnUse" x1="72.7822" y1="28.7235" x2="72.7822" y2="53.1058">
					<stop  offset="1.255997e-02" style="stop-color:#0002E9"/>
					<stop  offset="5.082669e-02" style="stop-color:#000EE9"/>
					<stop  offset="0.1807" style="stop-color:#0033E9"/>
					<stop  offset="0.3016" style="stop-color:#004EE9"/>
					<stop  offset="0.4089" style="stop-color:#005EE9"/>
					<stop  offset="0.4916" style="stop-color:#0064E9"/>
					<stop  offset="0.7202" style="stop-color:#0062E9"/>
					<stop  offset="0.8026" style="stop-color:#005BE7"/>
					<stop  offset="0.8613" style="stop-color:#0150E5"/>
					<stop  offset="0.9088" style="stop-color:#013FE1"/>
					<stop  offset="0.9494" style="stop-color:#0229DD"/>
					<stop  offset="0.9848" style="stop-color:#030ED7"/>
					<stop  offset="1" style="stop-color:#0300D4"/>
				</linearGradient>
				<path class="st2" d="M34.9,41.9c0,1-0.1,1.8-0.4,2.6c-0.2,0.8-0.6,1.4-1,2c-0.4,0.6-0.9,1.1-1.4,1.5c-0.5,0.4-1.1,0.7-1.7,1
					c-0.6,0.3-1.2,0.5-1.8,0.6c-0.6,0.1-1.2,0.2-1.7,0.2H8.2v-4.8h18.8c0.9,0,1.7-0.3,2.2-0.8c0.5-0.5,0.8-1.3,0.8-2.2
					c0-0.4-0.1-0.9-0.2-1.2c-0.1-0.4-0.3-0.7-0.6-1c-0.3-0.3-0.6-0.5-0.9-0.6c-0.4-0.1-0.8-0.2-1.2-0.2H15.8c-0.8,0-1.6-0.1-2.6-0.4
					c-0.9-0.3-1.8-0.7-2.5-1.4c-0.8-0.6-1.4-1.4-2-2.4c-0.5-1-0.8-2.2-0.8-3.7c0-1.5,0.3-2.7,0.8-3.7c0.5-1,1.2-1.8,2-2.4
					c0.8-0.6,1.6-1.1,2.5-1.4c0.9-0.3,1.8-0.4,2.6-0.4h16.6v4.8H15.8c-0.9,0-1.7,0.3-2.2,0.8c-0.5,0.6-0.8,1.3-0.8,2.2
					c0,0.9,0.3,1.7,0.8,2.2c0.5,0.5,1.2,0.8,2.2,0.8h11.2h0c0.5,0,1.1,0.1,1.7,0.2c0.6,0.1,1.2,0.3,1.8,0.6c0.6,0.3,1.1,0.6,1.7,1
					c0.5,0.4,1,0.9,1.4,1.5c0.4,0.6,0.7,1.3,1,2C34.8,40.1,34.9,40.9,34.9,41.9z"/>
				
					<linearGradient id="SVGID_00000168079483533335058720000006882298165695351175_" gradientUnits="userSpaceOnUse" x1="72.7822" y1="28.7235" x2="72.7822" y2="53.1058">
					<stop  offset="1.255997e-02" style="stop-color:#0002E9"/>
					<stop  offset="5.082669e-02" style="stop-color:#000EE9"/>
					<stop  offset="0.1807" style="stop-color:#0033E9"/>
					<stop  offset="0.3016" style="stop-color:#004EE9"/>
					<stop  offset="0.4089" style="stop-color:#005EE9"/>
					<stop  offset="0.4916" style="stop-color:#0064E9"/>
					<stop  offset="0.7202" style="stop-color:#0062E9"/>
					<stop  offset="0.8026" style="stop-color:#005BE7"/>
					<stop  offset="0.8613" style="stop-color:#0150E5"/>
					<stop  offset="0.9088" style="stop-color:#013FE1"/>
					<stop  offset="0.9494" style="stop-color:#0229DD"/>
					<stop  offset="0.9848" style="stop-color:#030ED7"/>
					<stop  offset="1" style="stop-color:#0300D4"/>
				</linearGradient>
				<path style="fill:url(#SVGID_00000168079483533335058720000006882298165695351175_);" d="M60.8,43c0,0.8-0.1,1.6-0.3,2.2
					c-0.2,0.7-0.5,1.2-0.8,1.8c-0.4,0.5-0.8,0.9-1.2,1.3c-0.5,0.4-0.9,0.6-1.5,0.9c-0.5,0.2-1,0.4-1.5,0.5c-0.5,0.1-1,0.2-1.5,0.2
					h-8.8v-4.8H54c0.7,0,1.1-0.2,1.5-0.5c0.3-0.3,0.5-0.8,0.5-1.5v-6.5c0-0.7-0.2-1.2-0.5-1.5c-0.3-0.3-0.8-0.5-1.5-0.5h-8.8
					c-0.7,0-1.2,0.2-1.5,0.5s-0.5,0.8-0.5,1.4v19.7h-4.9V36.4c0-0.8,0.1-1.6,0.3-2.2c0.2-0.7,0.5-1.2,0.9-1.7
					c0.4-0.5,0.8-0.9,1.2-1.3c0.5-0.4,0.9-0.6,1.5-0.9c0.5-0.2,1-0.4,1.5-0.5c0.5-0.1,1-0.2,1.5-0.2H54c0.8,0,1.6,0.1,2.3,0.3
					c0.7,0.2,1.2,0.5,1.8,0.8c0.5,0.3,0.9,0.8,1.3,1.2c0.4,0.5,0.6,0.9,0.9,1.4c0.2,0.5,0.4,1,0.5,1.5c0.1,0.5,0.2,1,0.2,1.5V43z"/>
				
					<linearGradient id="SVGID_00000169554296837119933050000003305515506418438335_" gradientUnits="userSpaceOnUse" x1="72.7822" y1="28.7235" x2="72.7822" y2="53.1058">
					<stop  offset="1.255997e-02" style="stop-color:#0002E9"/>
					<stop  offset="5.082669e-02" style="stop-color:#000EE9"/>
					<stop  offset="0.1807" style="stop-color:#0033E9"/>
					<stop  offset="0.3016" style="stop-color:#004EE9"/>
					<stop  offset="0.4089" style="stop-color:#005EE9"/>
					<stop  offset="0.4916" style="stop-color:#0064E9"/>
					<stop  offset="0.7202" style="stop-color:#0062E9"/>
					<stop  offset="0.8026" style="stop-color:#005BE7"/>
					<stop  offset="0.8613" style="stop-color:#0150E5"/>
					<stop  offset="0.9088" style="stop-color:#013FE1"/>
					<stop  offset="0.9494" style="stop-color:#0229DD"/>
					<stop  offset="0.9848" style="stop-color:#030ED7"/>
					<stop  offset="1" style="stop-color:#0300D4"/>
				</linearGradient>
				<path style="fill:url(#SVGID_00000169554296837119933050000003305515506418438335_);" d="M86.9,36.3c0,0.7-0.1,1.4-0.4,2.2
					c-0.2,0.8-0.6,1.5-1.2,2.2c-0.5,0.7-1.2,1.2-2.1,1.7c-0.9,0.4-1.9,0.7-3.1,0.7h-8.8v-4.6h8.8c0.7,0,1.2-0.2,1.5-0.6
					c0.4-0.4,0.5-0.9,0.5-1.5c0-0.6-0.2-1.1-0.6-1.5c-0.4-0.4-0.9-0.5-1.5-0.5h-8.8c-0.7,0-1.2,0.2-1.5,0.6
					c-0.4,0.4-0.5,0.9-0.5,1.5v6.8c0,0.6,0.2,1.1,0.6,1.5c0.4,0.4,0.9,0.5,1.5,0.5h8.8v4.6h-8.8c-0.7,0-1.4-0.1-2.2-0.4
					c-0.8-0.2-1.5-0.6-2.2-1.1c-0.7-0.5-1.2-1.2-1.7-2.1c-0.5-0.9-0.7-1.9-0.7-3.1v-6.8c0-0.7,0.1-1.4,0.4-2.2
					c0.2-0.8,0.6-1.5,1.2-2.2c0.5-0.7,1.2-1.2,2.1-1.7c0.9-0.4,1.9-0.7,3.1-0.7h8.8c0.7,0,1.4,0.1,2.2,0.4c0.8,0.2,1.5,0.6,2.2,1.1
					c0.7,0.5,1.2,1.2,1.7,2.1C86.6,34,86.9,35.1,86.9,36.3z"/>
				
					<linearGradient id="SVGID_00000033347121796741370270000013917249037209003943_" gradientUnits="userSpaceOnUse" x1="72.7822" y1="28.7235" x2="72.7822" y2="53.1058">
					<stop  offset="1.255997e-02" style="stop-color:#0002E9"/>
					<stop  offset="5.082669e-02" style="stop-color:#000EE9"/>
					<stop  offset="0.1807" style="stop-color:#0033E9"/>
					<stop  offset="0.3016" style="stop-color:#004EE9"/>
					<stop  offset="0.4089" style="stop-color:#005EE9"/>
					<stop  offset="0.4916" style="stop-color:#0064E9"/>
					<stop  offset="0.7202" style="stop-color:#0062E9"/>
					<stop  offset="0.8026" style="stop-color:#005BE7"/>
					<stop  offset="0.8613" style="stop-color:#0150E5"/>
					<stop  offset="0.9088" style="stop-color:#013FE1"/>
					<stop  offset="0.9494" style="stop-color:#0229DD"/>
					<stop  offset="0.9848" style="stop-color:#030ED7"/>
					<stop  offset="1" style="stop-color:#0300D4"/>
				</linearGradient>
				<path style="fill:url(#SVGID_00000033347121796741370270000013917249037209003943_);" d="M112,36.3c0,0.7-0.1,1.4-0.4,2.2
					c-0.2,0.8-0.6,1.5-1.2,2.2c-0.5,0.7-1.2,1.2-2.1,1.7c-0.9,0.4-1.9,0.7-3.1,0.7h-8.8v-4.6h8.8c0.7,0,1.2-0.2,1.5-0.6
					c0.4-0.4,0.5-0.9,0.5-1.5c0-0.6-0.2-1.1-0.6-1.5c-0.4-0.4-0.9-0.5-1.5-0.5h-8.8c-0.7,0-1.2,0.2-1.5,0.6
					c-0.4,0.4-0.5,0.9-0.5,1.5v6.8c0,0.6,0.2,1.1,0.6,1.5c0.4,0.4,0.9,0.5,1.5,0.5h8.8v4.6h-8.8c-0.7,0-1.4-0.1-2.2-0.4
					c-0.8-0.2-1.5-0.6-2.2-1.1c-0.7-0.5-1.2-1.2-1.7-2.1c-0.5-0.9-0.7-1.9-0.7-3.1v-6.8c0-0.7,0.1-1.4,0.4-2.2
					c0.2-0.8,0.6-1.5,1.2-2.2c0.5-0.7,1.2-1.2,2.1-1.7c0.9-0.4,1.9-0.7,3.1-0.7h8.8c0.7,0,1.4,0.1,2.2,0.4c0.8,0.2,1.5,0.6,2.2,1.1
					c0.7,0.5,1.2,1.2,1.7,2.1C111.8,34,112,35.1,112,36.3z"/>
				
					<linearGradient id="SVGID_00000013164158972370966240000009205717312859569546_" gradientUnits="userSpaceOnUse" x1="72.7822" y1="28.7235" x2="72.7822" y2="53.1058">
					<stop  offset="1.255997e-02" style="stop-color:#0002E9"/>
					<stop  offset="5.082669e-02" style="stop-color:#000EE9"/>
					<stop  offset="0.1807" style="stop-color:#0033E9"/>
					<stop  offset="0.3016" style="stop-color:#004EE9"/>
					<stop  offset="0.4089" style="stop-color:#005EE9"/>
					<stop  offset="0.4916" style="stop-color:#0064E9"/>
					<stop  offset="0.7202" style="stop-color:#0062E9"/>
					<stop  offset="0.8026" style="stop-color:#005BE7"/>
					<stop  offset="0.8613" style="stop-color:#0150E5"/>
					<stop  offset="0.9088" style="stop-color:#013FE1"/>
					<stop  offset="0.9494" style="stop-color:#0229DD"/>
					<stop  offset="0.9848" style="stop-color:#030ED7"/>
					<stop  offset="1" style="stop-color:#0300D4"/>
				</linearGradient>
				<path style="fill:url(#SVGID_00000013164158972370966240000009205717312859569546_);" d="M137.6,43c0,0.8-0.1,1.6-0.3,2.2
					c-0.2,0.7-0.5,1.2-0.8,1.8c-0.4,0.5-0.8,0.9-1.2,1.3c-0.5,0.4-0.9,0.6-1.5,0.9c-0.5,0.2-1,0.4-1.5,0.5c-0.5,0.1-1,0.2-1.5,0.2
					h-8.8c-0.8,0-1.6-0.1-2.3-0.3c-0.7-0.2-1.2-0.5-1.8-0.8c-0.5-0.4-0.9-0.8-1.3-1.2c-0.4-0.5-0.6-0.9-0.9-1.4
					c-0.2-0.5-0.4-1-0.5-1.5c-0.1-0.5-0.2-1-0.2-1.4v-6.6c0-1.2,0.2-2.3,0.7-3.2c0.5-0.9,1-1.6,1.7-2.1c0.7-0.5,1.4-0.9,2.2-1.2
					c0.8-0.2,1.5-0.4,2.2-0.4h8.8v4.8h-8.8c-0.7,0-1.1,0.2-1.5,0.5s-0.5,0.8-0.5,1.4v6.5c0,0.7,0.2,1.2,0.5,1.5s0.8,0.5,1.5,0.5h8.8
					c0.7,0,1.2-0.2,1.5-0.5c0.3-0.3,0.5-0.8,0.5-1.5V21.1h4.9V43z"/>
			</g>
		</g>
		<g>
			<g>
				
					<radialGradient id="SVGID_00000111174350711799477380000005011729344185734832_" cx="174.9193" cy="34.7917" r="25.5239" fx="200.032" fy="39.3549" gradientTransform="matrix(1 0 0 0.992 0 0.2495)" gradientUnits="userSpaceOnUse">
					<stop  offset="0.1578" style="stop-color:#F59D1D"/>
					<stop  offset="0.9441" style="stop-color:#FFBE15;stop-opacity:0.2"/>
				</radialGradient>
				<path style="fill:url(#SVGID_00000111174350711799477380000005011729344185734832_);" d="M168.8,41.2c0,1-0.1,1.8-0.4,2.6
					c-0.2,0.8-0.6,1.4-1,2c-0.4,0.6-0.9,1.1-1.4,1.5c-0.5,0.4-1.1,0.7-1.7,1c-0.6,0.3-1.2,0.5-1.8,0.6c-0.6,0.1-1.2,0.2-1.7,0.2
					h-18.8v-4.8h18.8c0.9,0,1.7-0.3,2.2-0.8c0.5-0.5,0.8-1.3,0.8-2.2c0-0.4-0.1-0.9-0.2-1.2c-0.1-0.4-0.3-0.7-0.6-1
					c-0.3-0.3-0.6-0.5-0.9-0.6c-0.4-0.1-0.8-0.2-1.2-0.2h-11.2c-0.8,0-1.6-0.1-2.6-0.4c-0.9-0.3-1.8-0.7-2.5-1.4
					c-0.8-0.6-1.4-1.4-2-2.4c-0.5-1-0.8-2.2-0.8-3.7c0-1.5,0.3-2.7,0.8-3.7c0.5-1,1.2-1.8,2-2.4c0.8-0.6,1.6-1.1,2.5-1.4
					c0.9-0.3,1.8-0.4,2.6-0.4h16.6v4.8h-16.6c-0.9,0-1.7,0.3-2.2,0.8c-0.5,0.6-0.8,1.3-0.8,2.2c0,0.9,0.3,1.7,0.8,2.2
					c0.5,0.5,1.2,0.8,2.2,0.8h11.2h0c0.5,0,1.1,0.1,1.7,0.2s1.2,0.3,1.8,0.6c0.6,0.3,1.1,0.6,1.7,1c0.5,0.4,1,0.9,1.4,1.5
					c0.4,0.6,0.7,1.3,1,2C168.6,39.4,168.8,40.3,168.8,41.2z"/>
				
					<radialGradient id="SVGID_00000049200906141110076110000016334703062200303783_" cx="174.9193" cy="34.7917" r="25.5239" fx="200.032" fy="39.3549" gradientTransform="matrix(1 0 0 0.992 0 0.2495)" gradientUnits="userSpaceOnUse">
					<stop  offset="0.1578" style="stop-color:#F59D1D"/>
					<stop  offset="0.9441" style="stop-color:#FFBE15;stop-opacity:0.2"/>
				</radialGradient>
				<path style="fill:url(#SVGID_00000049200906141110076110000016334703062200303783_);" d="M194.5,46.7c0,0.3-0.1,0.7-0.2,1
					c-0.1,0.3-0.3,0.6-0.5,0.8c-0.2,0.2-0.5,0.4-0.8,0.5s-0.6,0.2-0.9,0.2h-11c-0.6,0-1.2-0.1-1.9-0.2c-0.7-0.1-1.4-0.4-2-0.7
					c-0.7-0.3-1.3-0.7-1.9-1.2c-0.6-0.5-1.2-1-1.6-1.7c-0.5-0.7-0.8-1.4-1.1-2.3c-0.3-0.9-0.4-1.9-0.4-2.9V28.9h4.9v11.2
					c0,0.6,0.1,1.2,0.3,1.7c0.2,0.5,0.5,0.9,0.9,1.3c0.4,0.4,0.8,0.6,1.3,0.8c0.5,0.2,1.1,0.3,1.6,0.3h8.5V28.9h4.9V46.7z"/>
				
					<radialGradient id="SVGID_00000032620307312629537890000007804083355147320755_" cx="174.9193" cy="34.7917" r="25.5239" fx="200.032" fy="39.3549" gradientTransform="matrix(1 0 0 0.992 0 0.2495)" gradientUnits="userSpaceOnUse">
					<stop  offset="0.1578" style="stop-color:#F59D1D"/>
					<stop  offset="0.9441" style="stop-color:#FFBE15;stop-opacity:0.2"/>
				</radialGradient>
				<path style="fill:url(#SVGID_00000032620307312629537890000007804083355147320755_);" d="M208,49.1h-2.2c-0.7,0-1.4-0.1-2.2-0.4
					c-0.8-0.2-1.5-0.6-2.2-1.2c-0.7-0.5-1.3-1.2-1.7-2.1c-0.5-0.9-0.7-1.9-0.7-3.2V20.4h4.9v21.9c0,0.6,0.2,1.1,0.6,1.4
					c0.4,0.4,0.8,0.5,1.4,0.5h2.2V49.1z"/>
			</g>
			<g>
				<path d="M168.8,41.2c0,1-0.1,1.8-0.4,2.6c-0.2,0.8-0.6,1.4-1,2c-0.4,0.6-0.9,1.1-1.4,1.5c-0.5,0.4-1.1,0.7-1.7,1
					c-0.6,0.3-1.2,0.5-1.8,0.6c-0.6,0.1-1.2,0.2-1.7,0.2h-18.8v-4.8h18.8c0.9,0,1.7-0.3,2.2-0.8c0.5-0.5,0.8-1.3,0.8-2.2
					c0-0.4-0.1-0.9-0.2-1.2c-0.1-0.4-0.3-0.7-0.6-1c-0.3-0.3-0.6-0.5-0.9-0.6c-0.4-0.1-0.8-0.2-1.2-0.2h-11.2
					c-0.8,0-1.6-0.1-2.6-0.4c-0.9-0.3-1.8-0.7-2.5-1.4c-0.8-0.6-1.4-1.4-2-2.4c-0.5-1-0.8-2.2-0.8-3.7c0-1.5,0.3-2.7,0.8-3.7
					c0.5-1,1.2-1.8,2-2.4c0.8-0.6,1.6-1.1,2.5-1.4c0.9-0.3,1.8-0.4,2.6-0.4h16.6v4.8h-16.6c-0.9,0-1.7,0.3-2.2,0.8
					c-0.5,0.6-0.8,1.3-0.8,2.2c0,0.9,0.3,1.7,0.8,2.2c0.5,0.5,1.2,0.8,2.2,0.8h11.2h0c0.5,0,1.1,0.1,1.7,0.2s1.2,0.3,1.8,0.6
					c0.6,0.3,1.1,0.6,1.7,1c0.5,0.4,1,0.9,1.4,1.5c0.4,0.6,0.7,1.3,1,2C168.6,39.4,168.8,40.3,168.8,41.2z"/>
				<path d="M194.5,46.7c0,0.3-0.1,0.7-0.2,1c-0.1,0.3-0.3,0.6-0.5,0.8c-0.2,0.2-0.5,0.4-0.8,0.5s-0.6,0.2-0.9,0.2h-11
					c-0.6,0-1.2-0.1-1.9-0.2c-0.7-0.1-1.4-0.4-2-0.7c-0.7-0.3-1.3-0.7-1.9-1.2c-0.6-0.5-1.2-1-1.6-1.7c-0.5-0.7-0.8-1.4-1.1-2.3
					c-0.3-0.9-0.4-1.9-0.4-2.9V28.9h4.9v11.2c0,0.6,0.1,1.2,0.3,1.7c0.2,0.5,0.5,0.9,0.9,1.3c0.4,0.4,0.8,0.6,1.3,0.8
					c0.5,0.2,1.1,0.3,1.6,0.3h8.5V28.9h4.9V46.7z"/>
				<path d="M208,49.1h-2.2c-0.7,0-1.4-0.1-2.2-0.4c-0.8-0.2-1.5-0.6-2.2-1.2c-0.7-0.5-1.3-1.2-1.7-2.1c-0.5-0.9-0.7-1.9-0.7-3.2
					V20.4h4.9v21.9c0,0.6,0.2,1.1,0.6,1.4c0.4,0.4,0.8,0.5,1.4,0.5h2.2V49.1z"/>
			</g>
			<g>
				
					<linearGradient id="SVGID_00000087396220652839924010000000211083369559474316_" gradientUnits="userSpaceOnUse" x1="175.1175" y1="25.8315" x2="174.8964" y2="41.3084" gradientTransform="matrix(1 0 0 0.992 0 0.2495)">
					<stop  offset="0.1578" style="stop-color:#F59D1D"/>
					<stop  offset="0.3842" style="stop-color:#F1D932"/>
					<stop  offset="0.5447" style="stop-color:#EEFF3F"/>
					<stop  offset="0.9441" style="stop-color:#FFBE15"/>
				</linearGradient>
				<path style="fill:url(#SVGID_00000087396220652839924010000000211083369559474316_);" d="M168.8,41.2c0,1-0.1,1.8-0.4,2.6
					c-0.2,0.8-0.6,1.4-1,2c-0.4,0.6-0.9,1.1-1.4,1.5c-0.5,0.4-1.1,0.7-1.7,1c-0.6,0.3-1.2,0.5-1.8,0.6c-0.6,0.1-1.2,0.2-1.7,0.2
					h-18.8v-4.8h18.8c0.9,0,1.7-0.3,2.2-0.8c0.5-0.5,0.8-1.3,0.8-2.2c0-0.4-0.1-0.9-0.2-1.2c-0.1-0.4-0.3-0.7-0.6-1
					c-0.3-0.3-0.6-0.5-0.9-0.6c-0.4-0.1-0.8-0.2-1.2-0.2h-11.2c-0.8,0-1.6-0.1-2.6-0.4c-0.9-0.3-1.8-0.7-2.5-1.4
					c-0.8-0.6-1.4-1.4-2-2.4c-0.5-1-0.8-2.2-0.8-3.7c0-1.5,0.3-2.7,0.8-3.7c0.5-1,1.2-1.8,2-2.4c0.8-0.6,1.6-1.1,2.5-1.4
					c0.9-0.3,1.8-0.4,2.6-0.4h16.6v4.8h-16.6c-0.9,0-1.7,0.3-2.2,0.8c-0.5,0.6-0.8,1.3-0.8,2.2c0,0.9,0.3,1.7,0.8,2.2
					c0.5,0.5,1.2,0.8,2.2,0.8h11.2h0c0.5,0,1.1,0.1,1.7,0.2s1.2,0.3,1.8,0.6c0.6,0.3,1.1,0.6,1.7,1c0.5,0.4,1,0.9,1.4,1.5
					c0.4,0.6,0.7,1.3,1,2C168.6,39.4,168.8,40.3,168.8,41.2z"/>
				
					<linearGradient id="SVGID_00000035505245323923956330000011068095303322809504_" gradientUnits="userSpaceOnUse" x1="175.1175" y1="25.8315" x2="174.8964" y2="41.3084" gradientTransform="matrix(1 0 0 0.992 0 0.2495)">
					<stop  offset="0.1578" style="stop-color:#F59D1D"/>
					<stop  offset="0.3842" style="stop-color:#F1D932"/>
					<stop  offset="0.5447" style="stop-color:#EEFF3F"/>
					<stop  offset="0.9441" style="stop-color:#FFBE15"/>
				</linearGradient>
				<path style="fill:url(#SVGID_00000035505245323923956330000011068095303322809504_);" d="M194.5,46.7c0,0.3-0.1,0.7-0.2,1
					c-0.1,0.3-0.3,0.6-0.5,0.8c-0.2,0.2-0.5,0.4-0.8,0.5s-0.6,0.2-0.9,0.2h-11c-0.6,0-1.2-0.1-1.9-0.2c-0.7-0.1-1.4-0.4-2-0.7
					c-0.7-0.3-1.3-0.7-1.9-1.2c-0.6-0.5-1.2-1-1.6-1.7c-0.5-0.7-0.8-1.4-1.1-2.3c-0.3-0.9-0.4-1.9-0.4-2.9V28.9h4.9v11.2
					c0,0.6,0.1,1.2,0.3,1.7c0.2,0.5,0.5,0.9,0.9,1.3c0.4,0.4,0.8,0.6,1.3,0.8c0.5,0.2,1.1,0.3,1.6,0.3h8.5V28.9h4.9V46.7z"/>
				
					<linearGradient id="SVGID_00000183961752354929026650000016820054452980310924_" gradientUnits="userSpaceOnUse" x1="175.1175" y1="25.8315" x2="174.8964" y2="41.3084" gradientTransform="matrix(1 0 0 0.992 0 0.2495)">
					<stop  offset="0.1578" style="stop-color:#F59D1D"/>
					<stop  offset="0.3842" style="stop-color:#F1D932"/>
					<stop  offset="0.5447" style="stop-color:#EEFF3F"/>
					<stop  offset="0.9441" style="stop-color:#FFBE15"/>
				</linearGradient>
				<path style="fill:url(#SVGID_00000183961752354929026650000016820054452980310924_);" d="M208,49.1h-2.2c-0.7,0-1.4-0.1-2.2-0.4
					c-0.8-0.2-1.5-0.6-2.2-1.2c-0.7-0.5-1.3-1.2-1.7-2.1c-0.5-0.9-0.7-1.9-0.7-3.2V20.4h4.9v21.9c0,0.6,0.2,1.1,0.6,1.4
					c0.4,0.4,0.8,0.5,1.4,0.5h2.2V49.1z"/>
			</g>
		</g>
		<g>
			
				<linearGradient id="SVGID_00000117642624149919639110000014534330930603988353_" gradientUnits="userSpaceOnUse" x1="37.1581" y1="14.3244" x2="56.8446" y2="14.3244">
				<stop  offset="0.1578" style="stop-color:#F59D1D"/>
				<stop  offset="0.3842" style="stop-color:#F1D932"/>
				<stop  offset="0.5447" style="stop-color:#EEFF3F"/>
				<stop  offset="0.9441" style="stop-color:#FFBE15"/>
			</linearGradient>
			
				<path style="fill:none;stroke:url(#SVGID_00000117642624149919639110000014534330930603988353_);stroke-width:3;stroke-miterlimit:50;" d="
				M37.2,6.1c10,0,18.2,8.1,18.2,18l0,0"/>
			
				<linearGradient id="SVGID_00000136397331002231183780000015723971981705995409_" gradientUnits="userSpaceOnUse" x1="37.1581" y1="17.3372" x2="50.7922" y2="17.3372">
				<stop  offset="0.1578" style="stop-color:#F59D1D"/>
				<stop  offset="0.3842" style="stop-color:#F1D932"/>
				<stop  offset="0.5447" style="stop-color:#EEFF3F"/>
				<stop  offset="0.9441" style="stop-color:#FFBE15"/>
			</linearGradient>
			
				<path style="fill:none;stroke:url(#SVGID_00000136397331002231183780000015723971981705995409_);stroke-width:3;stroke-miterlimit:50;" d="
				M37.2,12.1c6.7,0,12.1,5.4,12.1,12"/>
			
				<linearGradient id="SVGID_00000061451000504693421870000009856495632402833577_" gradientUnits="userSpaceOnUse" x1="37.1572" y1="20.3437" x2="44.7215" y2="20.3437">
				<stop  offset="0.1578" style="stop-color:#F59D1D"/>
				<stop  offset="0.3842" style="stop-color:#F1D932"/>
				<stop  offset="0.5447" style="stop-color:#EEFF3F"/>
				<stop  offset="0.9441" style="stop-color:#FFBE15"/>
			</linearGradient>
			
				<path style="fill:none;stroke:url(#SVGID_00000061451000504693421870000009856495632402833577_);stroke-width:3;stroke-miterlimit:50;" d="
				M37.2,18.1c3.3,0,6.1,2.7,6.1,6"/>
		</g>
	</g>
</g>
</svg>
